<?xml version="1.0" standalone="no"?>
<!DOCTYPE svg PUBLIC "-//W3C//DTD SVG 1.1//EN" "http://www.w3.org/Graphics/SVG/1.1/DTD/svg11.dtd" >
<svg>
<metadata>
Created by FontForge 20120731 at Thu Aug 25 04:54:20 2016
 By www
Copyright (c) 2008 Linotype GmbH, www.linotype.com. All rights reserved. This font software may not be reproduced, modified, disclosed or transferred without the express written approval of Linotype GmbH. Snoogle is a trademark of Linotype GmbH and may be registered in certain jurisdictions. This typeface is original artwork of Hannes von Doehren. The design may be protected in certain jurisdictions.
</metadata>
<defs>
<font id="SnoogleLTW01" horiz-adv-x="596" >
  <font-face 
    font-family="SnoogleLTW01"
    font-weight="400"
    font-stretch="normal"
    units-per-em="1000"
    panose-1="4 7 10 5 3 15 0 2 2 0"
    ascent="770"
    descent="-230"
    x-height="501"
    cap-height="695"
    bbox="-69 -253 1068 990"
    underline-thickness="50"
    underline-position="-100"
    unicode-range="U+000D-E011"
  />
<missing-glyph horiz-adv-x="0" 
 />
    <glyph glyph-name=".notdef" horiz-adv-x="0" 
 />
    <glyph glyph-name="glyph1" horiz-adv-x="0" 
 />
    <glyph glyph-name="uni000D" unicode="&#xd;" horiz-adv-x="0" 
 />
    <glyph glyph-name="space" unicode=" " horiz-adv-x="229" 
 />
    <glyph glyph-name="exclam" unicode="!" horiz-adv-x="288" 
d="M244 359q0 -18 -6.5 -36.5t-19 -33.5t-32 -25t-44.5 -10q-28 0 -47.5 9t-31.5 24t-17.5 33.5t-5.5 38.5v231q0 18 5.5 36.5t17.5 34t31.5 25.5t47.5 10q25 0 44.5 -10t32 -25.5t19 -34t6.5 -36.5v-231zM140 -15q-26 0 -45 10.5t-31.5 25.5t-19 33t-6.5 33q0 23 8 43
t22 34.5t32.5 23t39.5 8.5q28 0 48 -10.5t32.5 -26t18.5 -35t6 -37.5q0 -20 -8 -38.5t-22 -32.5t-33 -22.5t-42 -8.5z" />
    <glyph glyph-name="quotedbl" unicode="&#x22;" horiz-adv-x="486" 
d="M231 481q0 -18 -7.5 -36t-21.5 -32t-34.5 -22.5t-45.5 -8.5q-26 0 -45 10t-31.5 24.5t-19 32t-6.5 32.5v108q0 19 6.5 38t19 34t31.5 24.5t45 9.5q51 0 80 -31.5t29 -74.5v-108zM471 481q0 -18 -7.5 -36t-21.5 -32t-34.5 -22.5t-45.5 -8.5q-26 0 -45 10t-31.5 24.5
t-19 32t-6.5 32.5v108q0 19 6.5 38t19 34t31.5 24.5t45 9.5q51 0 80 -31.5t29 -74.5v-108z" />
    <glyph glyph-name="numbersign" unicode="#" horiz-adv-x="655" 
d="M355 599q6 23 20 41t32 30t39 18.5t42 6.5q27 0 52 -9.5t44.5 -26.5t31 -41.5t11.5 -55.5q0 -38 -18 -66.5t-44 -45.5h11q7 0 16.5 -3.5t18 -10t14 -16t5.5 -22.5q0 -26 -17 -38t-37 -12h-174q-18 0 -33.5 10t-20.5 31q-8 -19 -23 -32t-38 -13q-25 0 -46 20.5t-39.5 48
t-33.5 55.5t-28 43q3 -7 4 -18.5t2 -24.5t1 -24.5v-18.5q0 -43 -18.5 -60t-41.5 -17q-26 0 -44.5 22.5t-18.5 58.5v174q0 40 19 66t53 26q25 0 45.5 -19.5t37 -46t29.5 -54t24 -44.5q0 5 -0.5 14.5t-1 20t-1 20.5t-0.5 17q0 19 2.5 36t9.5 29.5t19.5 19.5t32.5 7
q16 0 28 -8.5t19.5 -21t11 -27.5t3.5 -27v-12zM409 450q-17 12 -33 31.5t-21 43.5v-100q8 14 21.5 19.5t25.5 5.5h7z" />
    <glyph glyph-name="dollar" unicode="$" horiz-adv-x="608" 
d="M192 685q0 10 5.5 27.5t17.5 34.5t31.5 29.5t47.5 12.5q23 0 40.5 -9t29.5 -23.5t19 -32.5t9 -36q39 -7 74 -21.5t60.5 -38t40.5 -56.5t15 -77q0 -60 -26 -87.5t-74 -27.5q-16 0 -34 4t-33 14t-25 27t-10 42q0 33 -22.5 45.5t-50.5 12.5q-20 0 -33.5 -10t-13.5 -21
q0 -17 22 -28.5t70 -27.5q9 -37 30 -57t48.5 -28t58 -6t56.5 9q23 -23 36.5 -60t13.5 -78q0 -45 -16 -81.5t-43 -64t-63 -46.5t-76 -29q-2 -15 -10 -33.5t-20.5 -34.5t-31 -27t-41.5 -11q-26 0 -44.5 11.5t-31 28t-18.5 34t-6 30.5q-38 9 -71.5 27.5t-59 44.5t-40.5 60.5
t-15 76.5q0 60 26 87.5t74 27.5q15 0 33 -4.5t33 -14.5t25 -27t10 -42q0 -17 8.5 -29.5t22 -21t29 -13t29.5 -4.5q28 0 43 8t15 28q0 16 -13 30.5t-32 25.5t-40.5 19.5t-37.5 13.5q-13 27 -36 42t-47.5 21t-46.5 5t-33 -7q-28 24 -35.5 56.5t-7.5 70.5q0 86 46.5 137.5
t118.5 71.5z" />
    <glyph glyph-name="percent" unicode="%" horiz-adv-x="557" 
d="M423 -13q-23 0 -43 9.5t-34.5 25.5t-23 37t-8.5 44t8.5 44t23 37t34.5 25.5t43 9.5t44 -9.5t36.5 -25.5t25 -37t9.5 -44t-8.5 -44t-23.5 -37t-36.5 -25.5t-46.5 -9.5zM211 39q-11 -19 -39 -36.5t-58 -17.5q-33 0 -54 16.5t-30.5 40.5t-8.5 51t13 48l296 492q16 30 43 46
t55 16q34 0 56.5 -16.5t32.5 -41t7.5 -53t-17.5 -53.5zM123 463q-23 0 -42.5 9.5t-34 25.5t-23 37t-8.5 44t8.5 44t23 37t34 25.5t42.5 9.5q28 0 50 -9.5t36.5 -25.5t22 -37t7.5 -44t-8.5 -44t-24 -37t-37 -25.5t-46.5 -9.5z" />
    <glyph glyph-name="ampersand" unicode="&#x26;" horiz-adv-x="680" 
d="M125 397q-3 5 -10 13.5t-14 22t-12 33t-5 48.5q0 30 13 62t39.5 58.5t65.5 43.5t91 17q46 0 86 -10.5t69.5 -31.5t46.5 -52.5t17 -73.5t-11.5 -71t-27 -48t-31.5 -30t-25 -18q4 -8 13.5 -19.5t20 -23.5t19.5 -22t14 -14q5 6 14.5 18.5t23 24.5t31.5 21t42 9q19 0 32 -6.5
t21.5 -17t12.5 -24t4 -26.5q0 -18 -6 -34.5t-15 -31.5t-20 -28t-21 -23q17 -18 25.5 -41t8.5 -46q0 -36 -22 -63.5t-69 -27.5q-18 0 -32 5t-25 13t-21.5 17.5t-20.5 18.5q-19 -16 -46 -27q-23 -11 -58 -19t-81 -8q-56 0 -101 17t-77 46t-49.5 67t-17.5 80q0 48 14 83t32 59
t36 38.5t26 21.5z" />
    <glyph glyph-name="quotesingle" unicode="'" horiz-adv-x="255" 
d="M231 481q0 -18 -7.5 -36t-21.5 -32t-34.5 -22.5t-45.5 -8.5q-26 0 -45 10t-31.5 24.5t-19 32t-6.5 32.5v108q0 19 6.5 38t19 34t31.5 24.5t45 9.5q51 0 80 -31.5t29 -74.5v-108v0z" />
    <glyph glyph-name="parenleft" unicode="(" horiz-adv-x="315" 
d="M94 639q16 20 43.5 38.5t61.5 18.5q25 0 43.5 -9.5t30 -24t17 -32.5t5.5 -34q0 -32 -11.5 -52.5t-25.5 -45t-25.5 -59.5t-11.5 -95q0 -43 5.5 -72t13 -50t17 -35.5t17 -28.5t13 -31t5.5 -41q0 -15 -4.5 -32.5t-15 -33t-28 -25.5t-43.5 -10q-38 0 -64.5 20t-42.5 44
q-22 34 -39 79q-14 38 -26 92.5t-12 123.5q0 77 12 132.5t26 91.5q17 42 39 71z" />
    <glyph glyph-name="parenright" unicode=")" horiz-adv-x="315" 
d="M219 639q21 -29 38 -71q14 -36 26.5 -91.5t12.5 -132.5q0 -69 -12.5 -123.5t-26.5 -92.5q-17 -45 -38 -79q-16 -24 -42.5 -44t-64.5 -20q-26 0 -43.5 10t-28.5 25.5t-15.5 33t-4.5 32.5q0 24 5.5 41t13.5 31t17 28.5t17 35.5t13.5 50t5.5 72q0 60 -11.5 95t-26 59.5
t-26 45t-11.5 52.5q0 16 5.5 34t17.5 32.5t30 24t44 9.5q33 0 61 -18.5t44 -38.5z" />
    <glyph glyph-name="asterisk" unicode="*" horiz-adv-x="416" 
d="M341 425q15 -22 14.5 -51t-29.5 -51q-28 -20 -57 -14t-47 30l-18 26l-17 -23q-15 -22 -43 -30t-57 12q-29 21 -31.5 50.5t14.5 53.5l18 26l-26 8q-26 8 -42.5 32t-5.5 59q11 32 37.5 45t55.5 3l30 -9v27q0 27 18 50.5t53 23.5t55.5 -22t20.5 -52v-31l26 8q26 9 53 -1
t38 -43q11 -35 -3.5 -60.5t-41.5 -33.5l-32 -11z" />
    <glyph glyph-name="plus" unicode="+" horiz-adv-x="572" 
d="M453 351q15 0 32.5 -6.5t32 -19t24.5 -32t10 -44.5q0 -28 -10 -47.5t-24.5 -31.5t-32 -17.5t-32.5 -5.5h-65v-63q0 -15 -6.5 -32.5t-19 -32.5t-32 -25t-44.5 -10q-26 0 -45 9t-31.5 23.5t-19 32t-6.5 34.5v64h-59q-13 0 -31 5.5t-34.5 17.5t-28.5 31.5t-12 47.5
q0 25 10 44.5t25.5 32t34 19t36.5 6.5h59v58q0 18 6.5 37t19 34t31.5 25t45 10q25 0 44.5 -10t32 -25t19 -34t6.5 -37v-58h65v0z" />
    <glyph glyph-name="comma" unicode="," horiz-adv-x="276" 
d="M206 -41q-24 -44 -63.5 -58.5t-86.5 11.5q-23 13 -33.5 31.5t-12 39t4 41t14.5 37.5l41 75q9 16 23.5 30.5t33.5 23t40.5 8t45.5 -13.5q46 -26 51.5 -67t-17.5 -83z" />
    <glyph glyph-name="hyphen" unicode="-" horiz-adv-x="486" 
d="M354 383q45 0 76.5 -28t31.5 -74q0 -28 -9.5 -47.5t-25 -31.5t-35 -17.5t-38.5 -5.5h-228q-18 0 -37 5.5t-34 17.5t-25 31.5t-10 47.5q0 46 29.5 74t76.5 28h228v0z" />
    <glyph glyph-name="period" unicode="." horiz-adv-x="256" 
d="M128 -15q-26 0 -45 10.5t-31.5 25.5t-19 33t-6.5 33q0 23 8.5 43t22.5 34.5t32.5 23t38.5 8.5q28 0 48 -10.5t32.5 -26t18.5 -35t6 -37.5q0 -20 -8 -38.5t-22 -32.5t-33 -22.5t-42 -8.5z" />
    <glyph glyph-name="slash" unicode="/" horiz-adv-x="557" 
d="M211 39q-17 -29 -39 -41.5t-53 -12.5q-32 0 -54.5 15.5t-33.5 38.5t-10.5 50.5t13.5 51.5l296 492q16 30 43 46t55 16q34 0 56.5 -16.5t32.5 -41t7.5 -53t-17.5 -53.5z" />
    <glyph glyph-name="zero" unicode="0" horiz-adv-x="619" 
d="M306 -15q-86 0 -142 37t-88 92t-44.5 117t-12.5 112q0 33 6 72t20 78t36 75.5t54 64.5t74.5 45t96.5 17q57 0 101.5 -18t77 -47t54.5 -67t35.5 -78t19 -79t5.5 -70q0 -50 -14.5 -111t-48.5 -114.5t-90 -89.5t-140 -36z" />
    <glyph glyph-name="one" unicode="1" horiz-adv-x="397" 
d="M137 416q-20 5 -40 4.5t-42 8.5q-25 12 -37.5 31.5t-12.5 41.5q0 27 15.5 43.5t37.5 27.5t45.5 19.5t40.5 20.5q18 13 31.5 27.5t27.5 26.5t30.5 20t39.5 8q25 0 43.5 -11.5t29.5 -29.5t16.5 -39.5t5.5 -42.5v-467q0 -51 -29.5 -86t-85.5 -35q-57 0 -86.5 35t-29.5 86
v311z" />
    <glyph glyph-name="two" unicode="2" horiz-adv-x="562" 
d="M420 194q34 0 57.5 -8t38 -21t21 -30t6.5 -35q0 -48 -31.5 -74t-94.5 -26h-268q-23 0 -46.5 7t-42 21.5t-30 35.5t-11.5 49q0 37 22.5 69t56.5 61t74 55.5t74 53t56.5 54t22.5 58.5q0 28 -15.5 41.5t-35.5 13.5q-30 0 -47 -17t-32 -37.5t-32.5 -37.5t-47.5 -17
q-21 0 -38.5 8.5t-30 22.5t-20 32.5t-7.5 38.5q0 43 22.5 77.5t59 58t83 36t94.5 12.5q58 0 107 -15t84 -43t54.5 -68.5t19.5 -91.5q0 -54 -25 -94.5t-62 -73t-79.5 -60.5t-78.5 -56h122z" />
    <glyph glyph-name="three" unicode="3" horiz-adv-x="606" 
d="M507 370q15 -11 29 -26t25.5 -34t18.5 -41.5t7 -48.5q0 -60 -26.5 -104.5t-70 -73.5t-98 -43t-109.5 -14q-50 0 -97.5 11.5t-84.5 33t-59.5 53t-22.5 72.5q0 22 7.5 40t21 31.5t30.5 21t37 7.5q30 0 50 -15.5t37 -34t36 -34t48 -15.5q24 0 42.5 15.5t18.5 48.5
q0 29 -16 40.5t-35 20t-35 22t-16 45.5q0 29 16 43.5t35 24.5t35 21t16 32q0 27 -15.5 37.5t-36.5 10.5q-30 0 -51 -11t-39 -23.5t-36 -23.5t-41 -11q-38 0 -62.5 27.5t-24.5 64.5t21 66.5t55.5 49t79 30t92.5 10.5q51 0 100.5 -12.5t88.5 -37.5t63 -64t24 -91
q0 -27 -7 -46.5t-16.5 -34t-19.5 -24t-15 -16.5z" />
    <glyph glyph-name="four" unicode="4" horiz-adv-x="616" 
d="M301 115q-16 0 -35.5 -0.5t-42.5 -0.5q-37 0 -75.5 3.5t-70 15.5t-52 34t-20.5 59q0 28 17.5 66t45 80t60.5 85t64 79.5t56 63t36 37.5q31 30 62.5 44t72.5 14q32 0 54 -20t35.5 -54t19.5 -79.5t6 -97.5q0 -38 -1.5 -73t-1.5 -62q11 -11 22.5 -20t21 -19t15.5 -22.5
t6 -31.5q0 -24 -9.5 -38t-22 -25t-24.5 -23t-17 -31q-5 -20 -13.5 -40.5t-21 -37t-29.5 -26.5t-38 -10q-28 0 -50 10.5t-37 28.5t-23.5 41.5t-9.5 49.5z" />
    <glyph glyph-name="five" unicode="5" horiz-adv-x="571" 
d="M218 447q7 3 19.5 6t27.5 5t29.5 3t25.5 1q47 0 89.5 -18.5t74 -50t50 -73.5t18.5 -90q0 -58 -26.5 -103.5t-69.5 -77t-97 -48t-109 -16.5q-41 0 -81.5 7t-72.5 23t-52 43t-20 66q0 19 7.5 35.5t20 29t29.5 20t35 7.5t34.5 -7.5t32 -17t32 -17t35.5 -7.5q36 0 59.5 15.5
t23.5 47.5q0 21 -7.5 35t-19.5 21.5t-26.5 10.5t-29.5 3q-32 0 -60.5 -10t-59.5 -10q-32 0 -52 9.5t-31 26.5t-15.5 40t-4.5 50q0 60 5 110.5t20 87t42.5 56.5t72.5 20h202q16 0 38 -1.5t41.5 -10.5t33 -29t13.5 -57q0 -28 -11.5 -45t-29.5 -26.5t-40.5 -13t-44.5 -3.5h-148
q-2 -3 -2.5 -10t-0.5 -14.5v-13.5v-9z" />
    <glyph glyph-name="six" unicode="6" horiz-adv-x="629" 
d="M382 447q5 -18 20 -33t35.5 -23.5t44.5 -9.5t47 10q36 -30 58 -74.5t22 -96.5q0 -56 -24.5 -99.5t-63.5 -73.5t-88.5 -46t-100.5 -16q-74 0 -132.5 28.5t-98.5 76.5t-61 111.5t-21 132.5q0 72 21 137.5t62 115.5t100.5 79.5t136.5 29.5q61 0 107 -15t77.5 -41t47.5 -61
t16 -74q0 -21 -9.5 -38t-24 -29t-32 -18t-34.5 -6q-22 0 -48 15t-40 47q-8 22 -29 31t-42 9q-24 0 -39 -6t-23 -15.5t-11 -21t-3 -23.5q0 -19 4 -30t7 -13q26 19 56.5 29.5t62.5 10.5z" />
    <glyph glyph-name="seven" unicode="7" horiz-adv-x="535" 
d="M119 495q-13 0 -32.5 2t-37.5 11t-31 26.5t-13 49.5q0 30 11.5 48.5t30.5 29t42 14.5t46 4h261q26 0 50 -5t43 -18t30 -34t11 -53q0 -26 -11 -46.5t-26 -35.5q-39 -35 -67 -86t-47 -106t-30 -107t-15 -88q-2 -19 -9 -39.5t-20.5 -38t-34.5 -28.5t-52 -11t-53 9
t-36.5 24.5t-21 35.5t-6.5 42q0 21 9.5 52.5t25 68t36 76t41.5 77t42 70t38 56.5h-174z" />
    <glyph glyph-name="eight" unicode="8" horiz-adv-x="608" 
d="M502 357q15 -18 29.5 -35t26.5 -35.5t19 -39t7 -44.5q0 -53 -20.5 -94t-57 -68.5t-88 -42t-114.5 -14.5q-60 0 -111 13.5t-88.5 40.5t-59 68t-21.5 97q0 39 11.5 66t25.5 44.5t27.5 27.5t17.5 16q-3 6 -12.5 17.5t-20.5 29t-19.5 39.5t-8.5 48q0 50 22.5 88.5t59 64.5
t83 39t94.5 13q52 0 99.5 -13t82.5 -39t56 -64.5t21 -88.5q0 -26 -6.5 -46t-16 -35.5t-20 -28t-18.5 -24.5z" />
    <glyph glyph-name="nine" unicode="9" horiz-adv-x="609" 
d="M235 238q-5 18 -20 31.5t-35.5 21t-44.5 7.5t-47 -11q-38 30 -53.5 74.5t-15.5 93.5q0 44 16 87t50 76.5t85 54.5t122 21q78 0 134.5 -29.5t92.5 -77.5t53.5 -109.5t17.5 -126.5q0 -68 -18.5 -133.5t-57 -117.5t-97.5 -83.5t-139 -31.5q-61 0 -106 15t-75 40.5t-45 60.5
t-15 74q0 21 9 38t23.5 29t32.5 18t35 6q22 0 48 -15t39 -47q9 -22 30 -31t41 -9q16 0 29.5 8.5t23 22t13.5 30.5t0 33q-31 -10 -59.5 -15t-66.5 -5z" />
    <glyph glyph-name="colon" unicode=":" horiz-adv-x="256" 
d="M128 -15q-26 0 -45 10.5t-31.5 25.5t-19 33t-6.5 33q0 23 8.5 43t22.5 34.5t32.5 23t38.5 8.5q28 0 48 -10.5t32.5 -26t18.5 -35t6 -37.5q0 -20 -8 -38.5t-22 -32.5t-33 -22.5t-42 -8.5zM128 304q-26 0 -45 10t-31.5 25.5t-19 33.5t-6.5 33q0 23 8.5 43t22.5 34.5
t32.5 23t38.5 8.5q28 0 48 -10.5t32.5 -26t18.5 -35t6 -37.5q0 -20 -8 -38.5t-22 -32.5t-33 -22.5t-42 -8.5z" />
    <glyph glyph-name="semicolon" unicode=";" horiz-adv-x="256" 
d="M128 304q-26 0 -45 10t-31.5 25.5t-19 33.5t-6.5 33q0 23 8.5 43t22.5 34.5t32.5 23t38.5 8.5q28 0 48 -10.5t32.5 -26t18.5 -35t6 -37.5q0 -20 -8 -38.5t-22 -32.5t-33 -22.5t-42 -8.5zM196 -41q-24 -44 -63.5 -58.5t-85.5 11.5q-23 13 -34 31.5t-12.5 39t4 41
t14.5 37.5l41 75q9 16 24 30.5t33.5 23t40 8t45.5 -13.5q46 -26 51.5 -67t-17.5 -83z" />
    <glyph glyph-name="less" unicode="&#x3c;" horiz-adv-x="416" 
d="M57 157q-41 41 -41 88q0 18 4.5 33t21.5 38t51.5 59t93.5 96q25 23 47.5 33.5t54.5 10.5q23 0 42 -9.5t32.5 -24.5t21 -34t7.5 -38q0 -29 -13.5 -55.5t-29.5 -43.5l-62 -61l69 -62q20 -18 32 -40.5t12 -54.5q0 -43 -28.5 -75t-78.5 -32q-39 0 -61 13.5t-38 28.5z" />
    <glyph glyph-name="equal" unicode="=" horiz-adv-x="486" 
d="M352 515q45 0 76.5 -26t31.5 -69q0 -26 -9.5 -44.5t-25 -30t-35 -16.5t-38.5 -5h-226q-18 0 -37 5t-34 16.5t-25 30t-10 44.5q0 43 29.5 69t76.5 26h226zM352 259q45 0 76.5 -26t31.5 -69q0 -26 -9.5 -44.5t-25 -29.5t-35 -16t-38.5 -5h-226q-18 0 -37 5t-34 16t-25 29.5
t-10 44.5q0 43 29.5 69t76.5 26h226z" />
    <glyph glyph-name="greater" unicode="&#x3e;" horiz-adv-x="416" 
d="M221 27q-15 -15 -37 -28.5t-62 -13.5q-50 0 -78 32t-28 75q0 32 12 54.5t32 40.5l69 62l-62 61q-16 17 -30 43.5t-14 55.5q0 19 7.5 38t21.5 34t32.5 24.5t41.5 9.5q32 0 55 -10.5t47 -33.5q60 -60 94 -96t51.5 -59t22 -38t4.5 -33q0 -47 -42 -88z" />
    <glyph glyph-name="question" unicode="?" horiz-adv-x="536" 
d="M251 -15q-26 0 -45 10.5t-31.5 25.5t-19 33t-6.5 33q0 23 8 43t22 34.5t32.5 23t39.5 8.5q28 0 48 -10.5t33.5 -26t20 -35t6.5 -37.5q0 -20 -8.5 -38.5t-23 -32.5t-34 -22.5t-42.5 -8.5zM251 238q-36 0 -59 23t-23 59q0 38 20 60.5t44.5 39t44.5 32t20 38.5q0 20 -10 27
t-23 7q-18 0 -34.5 -9.5t-27.5 -18.5q-12 -10 -23 -20.5t-23 -19t-26.5 -14t-33.5 -5.5q-37 0 -57.5 28t-20.5 66q0 25 16 53.5t46.5 53t76.5 41t106 16.5q55 0 102 -12t82 -36.5t55 -62t20 -88.5q0 -60 -29.5 -108t-71.5 -81.5t-89 -51t-82 -17.5z" />
    <glyph glyph-name="at" unicode="@" horiz-adv-x="724" 
d="M357 -15q-82 0 -144 28t-103 75t-62 108.5t-21 128.5q0 97 34.5 167t88.5 115.5t120.5 67t129.5 21.5q64 0 117.5 -17.5t91.5 -47.5t59 -70t21 -84v-212q0 -39 -19.5 -62t-61.5 -23q-29 0 -49 22t-27 47q-12 -11 -27.5 -22t-34 -21t-41 -16t-48.5 -6q-25 0 -49 10t-43 28
t-30.5 42.5t-11.5 53.5q0 49 18 77.5t46.5 42t65 16t74.5 0.5q29 0 47.5 4.5t18.5 29.5q0 14 -6.5 27t-21.5 23.5t-39 17t-59 6.5q-53 0 -94 -19t-69.5 -51t-43 -73t-14.5 -84q0 -42 15 -80.5t42 -67.5t64.5 -46t81.5 -17q19 0 33 3t26 6.5t22.5 6.5t24.5 3q21 0 35 -16
t17 -38t-8 -46t-41 -39q-7 -4 -16.5 -7.5t-24 -6t-35 -4t-49.5 -1.5z" />
    <glyph glyph-name="A" unicode="A" horiz-adv-x="638" 
d="M197 59q12 -9 2 -28q-9 -14 -28 -29.5t-56 -16.5q-48 0 -76.5 31t-28.5 77q0 14 11 54t28 93.5t37.5 114t40.5 114t36 95t25 56.5q21 35 53.5 55t74.5 20q41 0 75 -16.5t54 -51.5q6 -12 17.5 -38.5t25.5 -63t30 -80t31.5 -88t30 -87.5t25.5 -79t17.5 -62t6.5 -36
q0 -46 -29 -77t-80 -31q-23 0 -39.5 9t-28.5 21.5t-20.5 26.5t-16.5 24q-10 1 -28.5 1h-39t-39.5 -0.5t-29 -0.5q-51 0 -73.5 26t-22.5 69q0 48 30 71t75 23h55q14 0 27 1q1 7 -4.5 26t-13 42t-16 46t-14.5 37q-5 9 -13 8t-10 -8q-10 -29 -19 -53q-8 -20 -15.5 -39.5
t-9.5 -25.5q-3 -7 -20 -12t-35.5 -17t-33.5 -35t-15 -66q0 -25 6 -43t13.5 -30t15.5 -18.5t11 -8.5z" />
    <glyph glyph-name="B" unicode="B" horiz-adv-x="668" 
d="M555 363q43 -29 68.5 -67t25.5 -87q0 -46 -17.5 -84.5t-49.5 -66t-76.5 -43t-99.5 -15.5h-221q-31 0 -59 11.5t-49.5 32t-34.5 47.5t-13 58v377q0 33 13 61t35 48.5t51 32.5t62 12h202q49 0 91 -13.5t73 -38t48.5 -59t17.5 -77.5q0 -38 -21.5 -71.5t-45.5 -57.5z" />
    <glyph glyph-name="C" unicode="C" horiz-adv-x="669" 
d="M645 497q0 -18 -8 -36.5t-21.5 -33.5t-30.5 -25t-35 -10q-41 0 -62 18t-41 42q-17 19 -36 27t-45 8q-27 0 -48.5 -13t-36.5 -34.5t-23.5 -48.5t-8.5 -55q0 -26 8 -52t23 -47t37.5 -34t51.5 -13q36 0 54 14t33.5 30.5t35.5 30.5t58 14q20 0 37.5 -9.5t30 -24.5t20 -34.5
t7.5 -39.5q0 -52 -29.5 -87.5t-72 -57.5t-91 -32t-86.5 -10q-70 0 -133 24.5t-110.5 70t-75.5 110.5t-28 145q0 72 27.5 137t75.5 115t112.5 79.5t138.5 29.5q48 0 96.5 -13.5t87.5 -39t63.5 -62.5t24.5 -83z" />
    <glyph glyph-name="D" unicode="D" horiz-adv-x="684" 
d="M191 0q-36 0 -65.5 13t-51 34.5t-33.5 49.5t-12 58v364q0 52 16 83.5t41 49t55.5 23t60.5 5.5h149q62 0 119.5 -20t101.5 -61.5t70.5 -106.5t26.5 -155q0 -61 -22 -121t-63.5 -108t-101.5 -78t-136 -30h-155z" />
    <glyph glyph-name="E" unicode="E" horiz-adv-x="595" 
d="M574 586q0 -30 -10.5 -48.5t-26 -28.5t-34 -13.5t-33.5 -3.5h-172q-10 0 -15 -8t-5 -13q0 -15 5 -21t15 -6h126q45 0 74 -21.5t29 -72.5q0 -25 -8.5 -43t-23 -29.5t-33 -17t-38.5 -5.5h-126q-10 0 -18.5 -9t-8.5 -24t8.5 -21t18.5 -6h186q42 0 69.5 -25t27.5 -76
t-29 -72.5t-76 -21.5h-299q-35 0 -62.5 15.5t-46.5 39.5t-29 52.5t-10 53.5v365q0 35 14 63.5t36.5 48.5t51.5 31t59 11h273q16 0 35 -3.5t36 -13.5t28.5 -28.5t11.5 -48.5z" />
    <glyph glyph-name="F" unicode="F" horiz-adv-x="571" 
d="M301 469q-6 -3 -9 -10.5t-3 -15.5q0 -17 12 -21h105q23 0 43.5 -7.5t36 -21t24.5 -32t9 -41.5t-9 -42t-24.5 -32.5t-36 -20.5t-43.5 -7h-112q-5 -8 -6 -30.5t-2.5 -49.5t-6 -54t-14.5 -45q-14 -26 -42.5 -40.5t-64.5 -14.5q-30 0 -54 11t-40.5 29.5t-25.5 42t-9 49.5v387
q0 41 13.5 73.5t37 55.5t56 35.5t70.5 12.5h234q19 0 41.5 -6t41 -18t31 -31.5t12.5 -46.5q0 -26 -10 -46t-26.5 -34t-38 -21.5t-44.5 -7.5h-146z" />
    <glyph glyph-name="G" unicode="G" horiz-adv-x="716" 
d="M429 232q-4 12 -11 18l-14 12t-12.5 15.5t-5.5 28.5q0 25 13 39.5t33 22t43.5 9t44.5 1.5q54 0 88 -12.5t54 -37t27.5 -61t7.5 -84.5q0 -26 -2.5 -60t-12 -64.5t-30 -52t-56.5 -21.5q-15 0 -26.5 7t-21.5 15t-19 15t-19 7q-8 0 -19.5 -7t-31 -15t-47.5 -15t-69 -7
q-74 0 -134 28.5t-102 76.5t-65 111t-23 132q0 74 27 140t74.5 115.5t111.5 78.5t138 29q42 0 88 -9.5t84 -29.5t62.5 -52t24.5 -77q0 -41 -25.5 -70t-81.5 -29q-23 0 -40 10.5t-33.5 22.5t-35 22.5t-43.5 10.5q-28 0 -49 -15.5t-34.5 -39t-20 -50.5t-6.5 -50
q0 -24 5.5 -49.5t19 -46.5t36 -35t55.5 -14q7 0 17 3t19 8t14 11.5t3 14.5z" />
    <glyph glyph-name="H" unicode="H" horiz-adv-x="737" 
d="M284 490q0 -22 24 -22h120q26 0 26 24v80q0 54 34 88.5t93 34.5q29 0 52.5 -10.5t40 -28t25.5 -41t9 -50.5v-451q0 -59 -34 -93t-93 -34t-93 33t-34 87v123q0 6 -3 9.5t-12 5.5t-26 3t-45 1t-44.5 -1t-25.5 -3t-11.5 -5.5t-2.5 -9.5v-123q0 -27 -10 -49t-27.5 -37.5
t-40.5 -24.5t-50 -9t-50 9t-40 24.5t-27 37.5t-10 49v458q0 27 9 50.5t25.5 41t40 28t52.5 10.5t53 -10.5t40.5 -28t25.5 -41t9 -50.5v-75z" />
    <glyph glyph-name="I" unicode="I" horiz-adv-x="310" 
d="M281 136q0 -24 -5.5 -50.5t-19.5 -48.5t-38 -36.5t-60 -15.5q-41 1 -66 16.5t-39 39t-19 52.5t-5 57v380q0 28 5.5 56.5t20 52.5t39.5 39.5t64 16.5q36 -1 59 -15.5t36.5 -36.5t19.5 -48.5t8 -50.5v-408z" />
    <glyph glyph-name="J" unicode="J" horiz-adv-x="558" 
d="M533 237q0 -54 -20.5 -100t-57 -79.5t-86.5 -53t-108 -19.5q-55 0 -101 15.5t-79.5 43t-52 65t-18.5 80.5q0 23 7.5 44t21 37t32 25.5t41.5 9.5q46 0 72 -26t37 -62q3 -13 10.5 -23.5t23.5 -10.5q20 0 27 12.5t7 27.5v357q0 23 7.5 44t22.5 37t36.5 25.5t48.5 9.5
q35 0 59.5 -10t40 -27.5t22.5 -41.5t7 -52v-328v0z" />
    <glyph glyph-name="K" unicode="K" horiz-adv-x="680" 
d="M285 554q0 -23 3.5 -32t9 -9.5t12 5.5t13.5 15q21 27 43.5 56t48 52.5t53.5 38.5t58 15q43 0 71 -28.5t28 -71.5q0 -29 -19.5 -62.5t-43.5 -63.5t-43.5 -52.5t-19.5 -29.5q0 -6 13 -21.5t32.5 -38t42.5 -50.5t42.5 -58t32.5 -61t13 -59q0 -24 -8.5 -44.5t-23.5 -36
t-36 -24.5t-46 -9q-38 0 -68.5 18t-54.5 44.5t-42.5 58t-32.5 58t-24.5 44.5t-17.5 18q-14 0 -20 -18t-10 -44.5t-9.5 -58t-19 -58t-38.5 -44.5t-67 -18q-29 0 -52.5 10.5t-40.5 29t-26 42.5t-9 51v438q0 27 9 52t26 44.5t40.5 31t52.5 11.5q63 0 95.5 -40.5t32.5 -100.5z
" />
    <glyph glyph-name="L" unicode="L" horiz-adv-x="516" 
d="M274 211h107q17 0 39.5 -3.5t42.5 -14.5t34 -31t14 -53q0 -41 -19 -63t-43.5 -32t-46.5 -12t-28 -2h-148q-103 0 -150 48t-47 156v334q0 18 3 44.5t15 52t36.5 43.5t68.5 18q45 0 70 -18t36.5 -42.5t13.5 -50t2 -40.5v-334z" />
    <glyph glyph-name="M" unicode="M" horiz-adv-x="836" 
d="M418 290q0 3 4 25t9.5 51t11.5 58.5t10 47.5q8 38 22 77.5t36 72t53.5 53t75.5 20.5q39 0 70 -12.5t52.5 -34.5t33 -53t11.5 -68v-424q0 -23 -8 -44t-23 -37.5t-37 -26.5t-50 -10q-29 0 -49.5 12.5t-34.5 30.5t-20.5 38t-6.5 36v191q-9 -18 -14.5 -47.5t-12.5 -64
t-16 -69.5t-23.5 -63t-37 -46t-55.5 -18q-36 0 -59 17.5t-37.5 45.5t-22.5 62.5t-14.5 69t-12 64.5t-15.5 49v-185q0 -18 -6.5 -39.5t-20 -40t-34.5 -31t-49 -12.5q-32 0 -54.5 10.5t-36.5 27t-21 37.5t-7 41v440q0 74 47 114t120 40q49 0 81 -23t52 -57t30.5 -73t17.5 -70
q4 -18 11 -48t13.5 -59t11.5 -50.5t5 -24.5z" />
    <glyph glyph-name="N" unicode="N" horiz-adv-x="726" 
d="M267 328q3 -13 5 -39.5t3.5 -56t2.5 -57t1 -43.5q0 -42 -11 -70.5t-28.5 -45.5t-40 -24t-45.5 -7q-27 0 -49.5 8.5t-39.5 27.5t-26.5 48.5t-9.5 70.5l3 375q0 38 8.5 71t26 57t43.5 38t61 14q34 0 63.5 -18t54.5 -46.5t46 -64.5t40.5 -72.5t37 -69.5t35.5 -55
q0 17 -1.5 59.5t-1.5 112.5q0 18 4 44t17.5 50.5t38.5 42t67 17.5q36 0 60 -13t38.5 -35t20.5 -49.5t6 -56.5v-379q0 -34 -8 -65.5t-25 -55.5t-43 -38.5t-63 -14.5q-33 0 -62.5 19t-56 49t-50 68t-45 76t-41 71.5t-36.5 56.5z" />
    <glyph glyph-name="O" unicode="O" horiz-adv-x="746" 
d="M373 -15q-77 0 -141.5 28.5t-112 77t-74 113t-26.5 135.5t27.5 135.5t75.5 113t112.5 77t138.5 28.5q71 0 135.5 -28.5t113 -77t77 -113t28.5 -135.5t-27.5 -135.5t-75.5 -113t-112.5 -77t-138.5 -28.5z" />
    <glyph glyph-name="P" unicode="P" horiz-adv-x="629" 
d="M323 208q-24 0 -44.5 7.5t-35.5 21.5t-23.5 32t-8.5 39q0 27 10 45.5t24 30t30.5 16.5t28.5 4t27.5 0.5t28.5 8t22 19.5t9 35q0 23 -16 32.5t-35 13.5q-22 4 -50 2q-15 0 -21 -8.5t-6 -23.5v-32q0 -11 -4 -17t-8 -8q-9 -5 -21.5 -12.5t-24 -21t-19 -34.5t-7.5 -51
q0 -17 4.5 -34.5t14.5 -33.5t25.5 -29t36.5 -20q8 -2 9.5 -13t1.5 -22q-2 -41 -6 -73t-16 -53.5t-34.5 -32.5t-61.5 -11q-35 0 -58.5 10.5t-38 27.5t-21 40t-6.5 49v425q0 48 18 78.5t45 48.5t59.5 24.5t62.5 6.5h148q54 0 100.5 -16.5t81.5 -48t55 -77.5t20 -104
q0 -54 -15.5 -92.5t-41 -65t-57.5 -43t-65 -25t-63.5 -12t-53.5 -3.5z" />
    <glyph glyph-name="Q" unicode="Q" horiz-adv-x="748" 
d="M693 192q-16 -30 -21.5 -44.5t-5.5 -23.5q0 -8 8 -26t8 -47q0 -32 -18 -49t-50 -17q-17 0 -31.5 3.5t-27.5 8t-24.5 8.5t-21.5 4q-14 0 -29.5 -4t-35 -8.5t-42.5 -8t-50 -3.5q-63 0 -123 26.5t-106.5 74t-75 113t-28.5 143.5q0 71 27.5 135.5t75.5 113t112.5 77
t138.5 28.5q77 0 141.5 -29.5t111 -79t72.5 -114.5t26 -135q0 -75 -31 -146z" />
    <glyph glyph-name="R" unicode="R" horiz-adv-x="664" 
d="M274 97q0 -23 -9.5 -43.5t-26 -35.5t-39 -24t-47.5 -9q-26 0 -48 9t-39 25t-26.5 37.5t-9.5 47.5v406q0 38 14.5 69.5t38.5 54t56 34.5t68 12h190q43 0 88 -13.5t81.5 -40t59.5 -64.5t23 -86q0 -56 -27 -92t-61 -58q42 -42 68.5 -91.5t26.5 -114.5q0 -26 -7.5 -50
t-22.5 -43t-36.5 -30.5t-49.5 -11.5q-38 0 -61 11.5t-36.5 32t-20 47.5t-11.5 58q-5 46 -24.5 68t-70.5 22q-56 0 -76.5 27t-20.5 69q0 27 9.5 43.5t23.5 26t30.5 13t30.5 3.5q10 0 24.5 1t27.5 7t22 18.5t9 34.5q0 23 -16 32.5t-35 13.5q-22 4 -50 2q-15 0 -21 -8.5
t-6 -23.5v-32q0 -11 -4 -17t-8 -8q-9 -5 -20 -11.5t-20.5 -18.5t-16 -31t-6.5 -49q0 -17 3 -34.5t11.5 -34t22.5 -29.5t35 -20q8 -2 9.5 -8.5t1.5 -17.5z" />
    <glyph glyph-name="S" unicode="S" horiz-adv-x="621" 
d="M318 695q52 0 101 -10.5t87.5 -34.5t61.5 -62t23 -93q0 -60 -26 -87.5t-74 -27.5q-16 0 -34 4t-33 14t-25 27t-10 42q0 33 -22.5 45.5t-50.5 12.5q-20 0 -33.5 -10t-13.5 -21q0 -17 21.5 -28.5t69.5 -27.5q9 -37 30.5 -57t49 -28t58 -6t56.5 9q23 -23 36.5 -60t13.5 -78
q0 -60 -27 -103.5t-70.5 -72t-97.5 -42.5t-107 -14q-56 0 -107 13t-91 40t-63.5 68t-23.5 97q0 60 26 87.5t74 27.5q15 0 32.5 -4.5t33 -14.5t25.5 -27t10 -42q0 -17 8.5 -29.5t22 -21t29 -13t29.5 -4.5q28 0 42.5 8t14.5 28q0 16 -13 30.5t-32 25.5t-40 19.5t-37 13.5
q-13 27 -36 42t-47.5 21t-46.5 5t-33 -7q-28 24 -35.5 56.5t-7.5 70.5q0 58 24 99.5t63.5 68t90 39t104.5 12.5z" />
    <glyph glyph-name="T" unicode="T" horiz-adv-x="636" 
d="M195 462q-25 0 -57.5 3t-62 14t-50 32.5t-20.5 59.5q0 31 11.5 51.5t31.5 33.5t47 18.5t58 5.5h339q67 0 103 -31t36 -80q0 -24 -13.5 -50.5t-41.5 -38.5q-16 -7 -35 -10.5t-37 -4.5t-33.5 -1.5t-23.5 -1.5v-329q0 -28 -7 -54.5t-22 -47.5t-39.5 -33.5t-60.5 -12.5
q-33 0 -56.5 11.5t-38.5 31t-21.5 45t-6.5 53.5v336z" />
    <glyph glyph-name="U" unicode="U" horiz-adv-x="678" 
d="M276 299q0 -41 11 -64.5t48 -23.5q21 0 33 8t18 21.5t7.5 30.5t1.5 35v264q0 18 8.5 40t25 41t41.5 32t58 13q31 0 54.5 -13t39.5 -32t24 -41t8 -40v-313q0 -77 -32.5 -129t-81 -83.5t-104 -45.5t-101.5 -14q-43 0 -97 13t-101.5 44.5t-80 83.5t-32.5 131v313q0 18 8 40
t23.5 41t40 32t57.5 13t56.5 -14t38.5 -34.5t21.5 -43.5t6.5 -41v-264v0z" />
    <glyph glyph-name="V" unicode="V" horiz-adv-x="630" 
d="M311 298q10 37 20.5 75.5t18.5 76.5q7 31 17.5 73t28.5 80t45 65t66 27q26 0 48 -9.5t37.5 -24t24.5 -32.5t9 -35q0 -19 -11.5 -62.5t-29.5 -98t-39.5 -114.5t-42 -112.5t-37 -92t-23.5 -53.5q-13 -23 -27.5 -38t-31 -23.5t-35.5 -12t-40 -3.5q-41 0 -74 15.5t-49 47.5
q-10 16 -27.5 57.5t-38 95.5t-41 114.5t-37 114t-27 93.5t-10.5 54q0 53 29.5 86t82.5 33q44 -5 70.5 -30.5t43 -61.5t25.5 -77t18 -76q10 -37 17.5 -76t18.5 -76h1z" />
    <glyph glyph-name="W" unicode="W" horiz-adv-x="866" 
d="M435 314q-4 -29 -7 -64.5t-8 -72t-15 -71.5t-28 -61.5t-47 -43t-72 -16.5q-44 0 -71.5 11.5t-44.5 32.5t-26 49.5t-16 62.5l-91 421q-6 29 -1.5 53.5t19 42.5t38 27.5t55.5 9.5q94 -1 126 -161l26 -185q0 7 2 22.5t4.5 35t6 41.5t6.5 42.5t5.5 36.5t3.5 25q7 63 40 103
t90 40q36 0 59 -12.5t37 -32.5t21.5 -47t13.5 -55l32 -205l31 205q9 66 39.5 107t83.5 41q21 0 41.5 -6.5t36.5 -20t25.5 -34.5t9.5 -49q0 -7 -0.5 -17.5t-4 -29.5t-9.5 -49.5t-16 -78t-25 -114.5t-36 -159q-8 -29 -21 -56.5t-32.5 -49t-45.5 -34.5t-59 -13
q-52 0 -82.5 32.5t-48 81.5t-27 106.5t-18.5 108.5z" />
    <glyph glyph-name="X" unicode="X" horiz-adv-x="595" 
d="M294 508q15 19 29.5 51t33.5 62.5t45.5 52.5t64.5 22q19 0 37 -6t32 -19t22.5 -33.5t8.5 -48.5q0 -27 -18 -60.5t-39.5 -66.5t-39.5 -62.5t-18 -48.5q0 -22 20 -54t44.5 -67.5t44.5 -71t20 -65.5q0 -26 -9 -46.5t-23.5 -34.5t-33.5 -21.5t-40 -7.5q-33 0 -61.5 26.5
t-51 61t-40 68t-28.5 47.5q-6 -7 -12.5 -25t-16.5 -40t-23 -46t-31 -44t-42 -33t-54 -13q-44 0 -72 30t-28 78q0 30 20 66.5t44.5 73t44.5 68t20 50.5t-18 47.5t-40 60.5t-40 66t-18 64q0 21 8 40.5t22 34t34.5 23.5t44.5 9q27 0 47.5 -11.5t36.5 -30t27.5 -40.5t20 -42.5
t14.5 -38t11 -25.5z" />
    <glyph glyph-name="Y" unicode="Y" horiz-adv-x="579" 
d="M289 493q19 27 36 61.5t37.5 66t47.5 53t66 21.5q19 0 37 -7t31.5 -21.5t21.5 -35t8 -47.5q0 -24 -12 -54t-29.5 -61.5t-38.5 -63.5t-38.5 -60t-29.5 -51t-12 -37q0 -63 -0.5 -113t-10.5 -85.5t-35.5 -54.5t-74.5 -19q-50 0 -74 21.5t-33.5 58.5t-9 86.5t0.5 105.5
q0 10 -12.5 32.5t-32 52t-41.5 63t-41.5 66.5t-32 62.5t-12.5 50.5q0 47 28.5 79t75.5 32q38 0 64 -22t45.5 -53.5t36 -66t34.5 -60.5z" />
    <glyph glyph-name="Z" unicode="Z" horiz-adv-x="631" 
d="M151 476q-23 0 -45 5.5t-39 17.5t-27 31.5t-10 47.5t11.5 47.5t29.5 31.5t40.5 17.5t45.5 5.5h322q62 0 99 -23t37 -81q0 -23 -17 -53.5t-43.5 -64.5t-59 -70t-64 -69.5t-57.5 -63t-40 -51.5h159q25 0 48.5 -4.5t41.5 -16t28.5 -31t10.5 -50.5q0 -26 -11.5 -45t-30 -31.5
t-41.5 -19t-46 -6.5h-346q-59 0 -90 32.5t-31 83.5q0 28 15.5 59t40 63.5t55 65t60 63t55 58.5t41.5 51h-142z" />
    <glyph glyph-name="bracketleft" unicode="[" horiz-adv-x="377" 
d="M29 576q0 45 28 75.5t74 30.5h132q45 0 77 -23t32 -69q0 -28 -9.5 -46t-25 -28.5t-35 -14.5t-39.5 -4h-44v-452h44q20 0 39.5 -4t35 -14.5t25 -28.5t9.5 -46q0 -46 -32 -69t-77 -23h-132q-46 0 -74 30.5t-28 75.5v610z" />
    <glyph glyph-name="backslash" unicode="\" horiz-adv-x="557" 
d="M42 531q-15 25 -17.5 53.5t7.5 53t32 41t56 16.5q28 0 55.5 -16t43.5 -46l296 -492q13 -24 13.5 -51.5t-11 -50.5t-33.5 -38.5t-55 -15.5q-30 0 -52 12.5t-39 41.5z" />
    <glyph glyph-name="bracketright" unicode="]" horiz-adv-x="377" 
d="M348 -34q0 -45 -28 -75.5t-74 -30.5h-132q-46 0 -77.5 23t-31.5 69q0 28 9.5 46t25 28.5t35 14.5t39.5 4h44v452h-44q-20 0 -39.5 4t-35 14.5t-25 28.5t-9.5 46q0 46 31.5 69t77.5 23h132q46 0 74 -30.5t28 -75.5v-610z" />
    <glyph glyph-name="asciicircum" unicode="^" 
d="M296 707q9 -1 18 -3.5t17 -8.5l92 -74q24 -20 26 -42.5t-9 -38.5q-6 -9 -15 -15.5t-20.5 -8.5t-24.5 0.5t-26 12.5l-57 43l-58 -43q-13 -10 -26 -12.5t-24.5 -0.5t-21 8.5t-14.5 15.5q-11 16 -9 38.5t26 42.5l91 74q8 6 17.5 8.5t17.5 3.5z" />
    <glyph glyph-name="underscore" unicode="_" horiz-adv-x="580" 
d="M444 -2q57 0 87.5 -24t30.5 -62q0 -24 -9.5 -40.5t-25.5 -27t-37.5 -15t-45.5 -4.5h-311q-22 0 -43 4.5t-37 15t-26 27t-10 40.5q0 38 29.5 62t86.5 24h311v0z" />
    <glyph glyph-name="grave" unicode="`" horiz-adv-x="340" 
d="M87 607q-34 22 -39 49t7 48q14 23 41.5 30t56.5 -10l97 -57q27 -15 35 -41.5t-6 -52.5q-14 -23 -40 -29.5t-54 10.5z" />
    <glyph glyph-name="a" unicode="a" horiz-adv-x="535" 
d="M314 348q0 20 -11 27t-25 7q-17 0 -27.5 -8.5t-10.5 -32.5q0 -18 -9.5 -30t-23 -19t-28.5 -10t-26 -3q-34 0 -57.5 19.5t-23.5 62.5q0 39 21 68t53 48t71.5 28.5t76.5 9.5q34 0 72 -10t70 -31t53.5 -53t21.5 -76v-268q0 -40 -24.5 -66t-68.5 -26q-38 0 -55 21t-24 46
q-19 -27 -59 -47t-85 -20q-43 0 -76 12.5t-55 35.5t-33.5 55t-11.5 70q0 40 12.5 68.5t46.5 44.5q18 -13 44.5 -17.5t53.5 -1t49.5 16t31.5 33.5q29 0 43 6.5t14 39.5z" />
    <glyph glyph-name="b" unicode="b" horiz-adv-x="595" 
d="M249 449q13 13 26 25t29 21t35.5 14.5t45.5 5.5q46 0 81.5 -19.5t59.5 -54.5t36.5 -82.5t12.5 -103.5q0 -52 -16 -101t-45 -86.5t-69.5 -60t-90.5 -22.5q-27 0 -49.5 6t-40 15.5t-30 20.5t-19.5 21q-5 -11 -14.5 -22t-22 -20t-27.5 -15t-30 -6q-28 0 -46.5 12.5t-30 32.5
t-16 44t-4.5 47v440q0 27 6 51.5t19 43t34 29.5t50 11q31 0 53 -11.5t36 -30.5t20.5 -43.5t6.5 -49.5v-112z" />
    <glyph glyph-name="c" unicode="c" horiz-adv-x="524" 
d="M500 379q0 -15 -6.5 -30t-17 -27t-24.5 -19t-29 -7q-18 0 -32.5 7.5t-27.5 16t-26 16t-29 7.5q-23 0 -38.5 -9t-25.5 -22.5t-14 -30t-4 -30.5q0 -36 20 -62.5t63 -26.5q15 0 29 6t28.5 13.5t29.5 13.5t33 6q31 0 52 -24.5t21 -55.5q0 -38 -21.5 -63.5t-54 -42t-72 -23.5
t-75.5 -7q-54 0 -101.5 19.5t-83 54.5t-55.5 84t-20 108q0 56 22.5 104.5t61 84t89 56t106.5 20.5q28 0 63 -9t66 -26.5t52 -43t21 -58.5z" />
    <glyph glyph-name="d" unicode="d" horiz-adv-x="595" 
d="M346 564q0 25 6.5 49t20.5 42t36 29t52 11t50.5 -11t33.5 -29.5t19 -42t6 -48.5v-443q0 -23 -6.5 -47t-19.5 -44t-33.5 -32.5t-47.5 -12.5q-18 0 -32.5 6t-25.5 15.5t-19.5 20.5t-12.5 21q-21 -23 -54 -43t-75 -20q-51 0 -92.5 22.5t-71 60.5t-45.5 87.5t-16 102.5
q0 50 12.5 96.5t38 82t63.5 57t89 21.5q21 0 40.5 -5.5t36 -14t29 -18t18.5 -17.5v104z" />
    <glyph glyph-name="e" unicode="e" 
d="M381 174q13 32 37 45t46 13q35 0 59.5 -22t24.5 -65q0 -39 -23.5 -69t-59 -50.5t-77.5 -30.5t-79 -10q-65 0 -118.5 18.5t-91.5 53t-59 82.5t-21 107q0 56 23.5 105t63 85.5t91.5 57.5t108 21q50 0 98.5 -14t87 -41.5t62.5 -67t24 -90.5q0 -22 -8.5 -40.5t-28.5 -30.5
q-8 10 -28.5 19t-46.5 9.5t-53 -11.5t-48 -44h-108q-8 0 -11 -7.5t-1 -12.5q15 -54 71 -54q16 0 36.5 11t29.5 33z" />
    <glyph glyph-name="f" unicode="f" horiz-adv-x="329" 
d="M270 511q0 -10 7.5 -18.5t16.5 -18t16.5 -21.5t7.5 -29q0 -15 -5 -26.5t-12 -20t-15.5 -15.5t-15.5 -14v-237q0 -26 -6.5 -49t-20.5 -40t-36 -27.5t-53 -10.5q-30 0 -51 10.5t-33.5 28.5t-18 42.5t-5.5 52.5v230q-16 23 -28.5 40.5t-12.5 40.5q0 20 11.5 42.5t22.5 32.5
q7 36 22.5 70.5t39.5 61t56 43t72 16.5q21 0 41.5 -6t37 -17.5t27 -28t10.5 -37.5q0 -23 -11.5 -37t-26 -23.5t-26 -17t-11.5 -17.5z" />
    <glyph glyph-name="g" unicode="g" horiz-adv-x="569" 
d="M263 -3q41 0 54.5 22.5t13.5 67.5q-15 -10 -42 -20t-57 -10h-8.5t-7.5 1q-11 37 -48 56.5t-84 11.5q-30 29 -46.5 64t-16.5 89q0 48 16 91t44.5 75.5t66.5 51t82 18.5q50 0 81.5 -19.5t49.5 -39.5q3 5 8.5 15t15 19.5t23.5 17t35 7.5q31 0 50.5 -14t31 -35t16 -46.5
t4.5 -49.5v-274q0 -65 -21.5 -112t-60.5 -78t-93 -46t-118 -15q-37 0 -77.5 10.5t-74 31.5t-55 51.5t-21.5 69.5q0 43 25 67t60 24q22 0 48 -15t39 -47q9 -22 28 -31t39 -9z" />
    <glyph glyph-name="h" unicode="h" horiz-adv-x="599" 
d="M255 475q23 18 57 29t66 11q41 0 77 -16t62.5 -44t42 -64.5t15.5 -77.5v-196q0 -26 -8.5 -49.5t-24.5 -42t-38.5 -29.5t-50.5 -11q-31 0 -52 11.5t-33.5 30.5t-18 43t-5.5 50v193q0 20 -16 30.5t-32 10.5q-15 0 -23 -6t-12 -14.5t-5 -18t-1 -16.5v-182q0 -56 -29.5 -94
t-85.5 -38q-51 0 -83.5 32.5t-32.5 90.5v461q0 28 10 51t26.5 39.5t37.5 26t42 9.5q49 0 82.5 -31t33.5 -94q0 -40 -0.5 -60.5t-0.5 -34.5z" />
    <glyph glyph-name="i" unicode="i" horiz-adv-x="274" 
d="M250 116q0 -24 -5 -47t-17 -42t-33 -30.5t-54 -11.5q-44 0 -67.5 17.5t-34.5 40.5t-12.5 45t-1.5 32v214q0 15 2.5 38t13.5 45t34.5 38t65.5 16q38 0 59.5 -15.5t32.5 -36.5t14 -42t3 -32v-229zM141 520q-23 0 -39.5 9t-27.5 22.5t-16.5 28.5t-5.5 28q0 21 8 37.5t21 28
t29 17.5t31 6q25 0 41.5 -9t26.5 -22.5t13.5 -29t3.5 -28.5q0 -18 -6.5 -34t-18 -28t-27 -19t-33.5 -7z" />
    <glyph glyph-name="j" unicode="j" horiz-adv-x="284" 
d="M259 49q0 -28 -8.5 -63.5t-28 -66.5t-52 -52.5t-81.5 -21.5q-10 0 -27.5 4t-34 13.5t-28.5 25t-12 38.5q0 15 4.5 27t11 22.5t15 20t17.5 19.5v323q0 25 6 49.5t20 43t37 30t58 11.5q27 0 46.5 -11.5t32 -30t18.5 -43t6 -50.5v-288zM151 520q-26 0 -43 9t-27 22.5
t-14.5 28.5t-4.5 28q0 36 23.5 62.5t65.5 26.5q23 0 38.5 -10t25 -24.5t13.5 -29.5t4 -25q0 -41 -23 -64.5t-58 -23.5z" />
    <glyph glyph-name="k" unicode="k" horiz-adv-x="540" 
d="M258 377q16 16 31.5 38t33.5 41.5t40 33.5t52 14q37 0 60.5 -23.5t23.5 -60.5q0 -22 -10 -41t-22 -34.5t-22 -29t-10 -24.5q0 -16 15.5 -38t34.5 -48.5t34.5 -57t15.5 -62.5q0 -42 -28 -70.5t-72 -28.5q-26 0 -46 11t-35.5 27.5t-28 36t-22 36t-18.5 27.5t-17 11
q-4 0 -7.5 -11.5t-7 -28t-9 -34.5t-14.5 -32q-14 -23 -40 -33t-52 -10q-59 0 -86.5 35t-27.5 87v458q0 57 33.5 93.5t87.5 36.5q27 0 48 -11.5t35.5 -30t22 -41.5t7.5 -47v-189z" />
    <glyph glyph-name="l" unicode="l" horiz-adv-x="286" 
d="M261 105q0 -21 -7 -42.5t-21 -39t-35.5 -28t-50.5 -10.5q-41 0 -65 14.5t-37 34.5t-17 41t-4 35v461q0 13 4 34.5t17 41.5t37 34.5t65 14.5q32 0 53.5 -13t35 -32t19.5 -39t6 -33v-474v0z" />
    <glyph glyph-name="m" unicode="m" horiz-adv-x="882" 
d="M221 447q16 14 33 26.5t36.5 21.5t42 14.5t50.5 5.5q53 0 87.5 -19.5t56.5 -48.5q30 30 62.5 49t80.5 19q46 0 78 -16.5t53 -44.5t33 -64.5t18 -76t7.5 -79.5t1.5 -75q0 -30 -2.5 -61t-14 -56t-34.5 -41t-65 -16q-31 0 -52 11.5t-33.5 30.5t-18 44t-5.5 53v187
q0 15 -16 21t-31 6q-21 0 -27.5 -10.5t-6.5 -30.5v-173q0 -28 -6 -53t-19.5 -44t-35.5 -30.5t-55 -11.5q-31 0 -52 11.5t-33.5 30.5t-18 44t-5.5 53v187q0 10 -15 18.5t-26 8.5q-26 0 -33 -10.5t-7 -30.5v-173q0 -28 -6 -53t-19.5 -44t-35.5 -30.5t-55 -11.5q-31 0 -52 11.5
t-33.5 30.5t-18 44t-5.5 53v266q0 22 5.5 44t17.5 40t31.5 29.5t47.5 11.5q21 0 36.5 -6t27 -16t19 -22t12.5 -24z" />
    <glyph glyph-name="n" unicode="n" horiz-adv-x="590" 
d="M228 442q56 74 143 74q66 0 105.5 -33.5t59.5 -83.5t26 -109t6 -110q0 -31 -2 -65t-12.5 -63t-34 -48t-66.5 -19q-31 0 -52.5 14t-35.5 36.5t-21 50.5t-7 56l-1 147q0 29 -14.5 40t-32.5 11t-29 -12.5t-11 -28.5q0 -11 0.5 -29.5t1.5 -39t1.5 -40.5t0.5 -34
q0 -84 -30.5 -127.5t-87.5 -43.5q-23 0 -43 10.5t-35 30t-24 48.5t-9 65v233q0 25 5.5 51t17.5 46t31.5 33t47.5 13q46 0 69 -22t33 -51z" />
    <glyph glyph-name="o" unicode="o" 
d="M298 -15q-54 0 -104 18.5t-89 53t-62.5 83.5t-23.5 111q0 64 25.5 113t65.5 83t90 51.5t98 17.5q54 0 104 -18.5t89 -53t62.5 -83.5t23.5 -110q0 -66 -25.5 -116t-65.5 -83.5t-90 -50t-98 -16.5z" />
    <glyph glyph-name="p" unicode="p" horiz-adv-x="591" 
d="M215 460q21 23 57 39t79 16q48 0 88.5 -18.5t70 -52t45.5 -80t16 -101.5q0 -134 -58 -206t-156 -72q-15 0 -32 3.5t-32.5 9t-29 13t-21.5 15.5q0 -12 0.5 -25.5t0.5 -27.5q0 -37 -9.5 -61.5t-25 -39.5t-35.5 -21t-42 -6q-48 0 -77.5 34.5t-29.5 111.5v374q0 23 4.5 49
t16 48.5t31.5 37.5t50 15q35 0 56 -18t33 -37z" />
    <glyph glyph-name="q" unicode="q" horiz-adv-x="595" 
d="M380 461q11 20 34 37t54 17q56 0 79 -32.5t23 -78.5v-412q0 -40 -8.5 -67.5t-23.5 -45t-35.5 -25.5t-43.5 -8q-15 0 -30 2t-28 8.5t-24 18t-18 29.5q-11 30 -12 60.5t-1 61.5q-17 -17 -44.5 -29t-64.5 -12q-53 0 -93.5 22t-68.5 59t-42 86t-14 103q0 57 16 104.5
t44.5 82.5t69 54.5t88.5 19.5q22 0 44 -5t41 -13t34 -17.5t24 -19.5z" />
    <glyph glyph-name="r" unicode="r" horiz-adv-x="422" 
d="M228 433q16 31 41.5 53t60.5 22q36 0 57 -21t27 -49t-4.5 -56.5t-38.5 -43.5q-18 -10 -38.5 -13.5t-37.5 -8.5t-28.5 -16.5t-11.5 -36.5v-160q0 -51 -29 -84.5t-86 -33.5q-28 0 -49.5 10t-36.5 27t-22.5 39.5t-7.5 48.5v269q0 23 6.5 47t20 44t34 32.5t48.5 12.5
q36 0 58 -23t37 -59z" />
    <glyph glyph-name="s" unicode="s" horiz-adv-x="524" 
d="M260 392q-13 0 -24.5 -5.5t-11.5 -18.5q0 -10 20 -21.5t44 -19.5q9 -27 29 -41.5t43.5 -20.5t47 -5t39.5 6q29 -18 45.5 -41t16.5 -67q0 -51 -25 -84.5t-63.5 -53t-85.5 -27.5t-91 -8q-37 0 -75.5 8t-69.5 25.5t-51 45.5t-20 67q0 21 7.5 37t20 26t28.5 15t33 5
q11 0 25.5 -3t28 -10.5t23 -19t9.5 -29.5q0 -25 11 -33t27 -8q15 0 30 5t15 21q0 14 -14.5 23t-46.5 17q-4 17 -18.5 31t-36 22.5t-46.5 11t-50 -4.5q-27 18 -43 42t-16 68q0 45 22.5 77t58 52t79.5 29.5t87 9.5q37 0 75.5 -8t70 -25.5t51.5 -45.5t20 -67q0 -43 -23.5 -62.5
t-58.5 -19.5q-11 0 -25.5 3t-28 10t-23 19t-9.5 30q0 24 -17 33.5t-34 9.5z" />
    <glyph glyph-name="t" unicode="t" horiz-adv-x="358" 
d="M267 161q16 -11 30.5 -19.5t26 -18t18.5 -21.5t7 -29q0 -20 -9.5 -36t-26 -27.5t-37.5 -18t-45 -6.5q-31 0 -63.5 6.5t-59.5 27t-44 58t-17 100.5l5 178q-5 10 -13 16.5t-15.5 14.5t-13 21t-5.5 36q0 13 3.5 21.5t9 15.5t13 14t15.5 17q7 25 15.5 49t22.5 43.5t35.5 31.5
t53.5 12q22 0 39.5 -11t30.5 -28.5t21 -39t13 -43.5q9 -9 18.5 -17t17.5 -17t13 -21t5 -29q0 -18 -5.5 -28.5t-14 -18t-19.5 -15t-22 -18.5z" />
    <glyph glyph-name="u" unicode="u" horiz-adv-x="588" 
d="M362 53q-18 -18 -33.5 -30.5t-32 -21t-35 -12.5t-41.5 -4q-54 0 -91.5 17t-61.5 46.5t-34.5 69.5t-10.5 86v183q0 24 6.5 47t20 41t34 28.5t48.5 10.5q31 0 53 -11t36 -30t20.5 -44t6.5 -53v-161q0 -29 8.5 -40.5t32.5 -11.5q9 0 18.5 4.5t17.5 10.5t13 13t5 12v180
q0 25 6.5 49t20.5 42t36 29t53 11q28 0 48.5 -11t33.5 -29.5t19.5 -44t6.5 -53.5v-248q0 -23 -5.5 -48t-17.5 -46t-31.5 -35t-47.5 -14q-41 0 -66.5 22t-35.5 46z" />
    <glyph glyph-name="v" unicode="v" horiz-adv-x="518" 
d="M301 406q4 21 12.5 41t22 35t33 24.5t45.5 9.5q21 0 39 -8t31 -22t19 -33.5t3 -41.5q-1 -10 -9.5 -36.5t-20 -61t-25 -73t-26 -73t-22 -61.5t-12.5 -38q-5 -15 -15 -30t-25 -27t-36.5 -19.5t-49.5 -7.5q-34 0 -57 7t-38 18.5t-24.5 27t-16.5 32.5q-9 21 -20.5 48.5
t-23 57t-22.5 58.5t-18 53q-3 5 -8.5 21.5t-11.5 37.5t-10.5 43t-4.5 37q0 20 8.5 36.5t22.5 28.5t32 19t37 7q35 0 63.5 -23.5t45.5 -73.5q1 -6 6.5 -29.5t12 -52.5t12.5 -58.5t10 -48.5q4 15 9.5 38.5t11.5 49t11.5 49t8.5 39.5z" />
    <glyph glyph-name="w" unicode="w" horiz-adv-x="788" 
d="M248 252q6 26 10 52.5t8.5 52t11 50.5t17.5 49q12 25 36 42.5t60 17.5t60 -17t39 -42t23.5 -55t13.5 -55q5 -26 11.5 -49t8.5 -40q4 19 9.5 42t11.5 47.5t12.5 49t14.5 45.5q4 12 11.5 25t18.5 24.5t25.5 18.5t32.5 7q31 0 49.5 -9t28.5 -22.5t13.5 -30.5t3.5 -33
q0 -14 -7 -45t-18 -70.5t-25 -83t-26.5 -81t-23 -65.5t-15.5 -37q-11 -18 -25.5 -29t-29.5 -16.5t-29.5 -7.5t-24.5 -2q-56 0 -85 28.5t-43 69t-20 85t-15 77.5q-6 -16 -9 -41.5t-8 -54.5t-13.5 -58t-24.5 -52.5t-40.5 -38.5t-61.5 -15q-10 0 -25.5 2t-32 8.5t-32 18.5
t-25.5 33q-5 10 -15 36t-22.5 60.5t-25 73.5t-23 76t-17 67.5t-6.5 47.5q0 18 5.5 37t16.5 35t29 26t44 10q30 0 51 -16.5t35 -41.5t22.5 -54.5t13.5 -54.5q5 -26 10.5 -51.5t10.5 -45.5z" />
    <glyph glyph-name="x" unicode="x" horiz-adv-x="486" 
d="M239 408q10 14 20.5 32.5t24 35t32 28t45.5 11.5q19 0 36 -7.5t30 -20.5t20.5 -29.5t7.5 -35.5q0 -24 -11.5 -48t-25 -45t-24.5 -38t-11 -28q0 -16 13.5 -36.5t29.5 -44.5t29.5 -50.5t13.5 -53.5q0 -22 -8 -39t-21.5 -29t-31 -18.5t-35.5 -6.5q-24 0 -43.5 14t-36 34
t-29.5 41t-25 36q-12 -14 -25.5 -35t-30 -40.5t-36 -33.5t-42.5 -14q-35 0 -61.5 26t-26.5 72q0 29 12 54.5t27 48t27 41t12 34.5q0 13 -11.5 29.5t-25 36.5t-24.5 43t-11 50q0 44 28.5 68.5t66.5 24.5q22 0 41 -11.5t34 -28t26.5 -35t19.5 -32.5z" />
    <glyph glyph-name="y" unicode="y" horiz-adv-x="502" 
d="M255 240q7 31 15 77.5t23 90.5t39 75.5t65 31.5q23 0 41 -8.5t30 -22.5t18.5 -32.5t6.5 -38.5q0 -15 -10 -52t-25.5 -84.5t-34.5 -100t-38 -100t-35.5 -84.5t-26.5 -52q-31 -48 -77 -71.5t-93 -23.5q-21 0 -40.5 5t-34.5 16t-24.5 27.5t-9.5 39.5q0 25 13.5 40.5t30 25
t30.5 15.5t14 14t-8.5 34t-19.5 56t-20.5 56.5t-12.5 34.5q-5 15 -15.5 44t-20.5 60.5t-17.5 59t-7.5 40.5q0 50 27.5 76.5t63.5 26.5q42 0 66.5 -27.5t39.5 -68.5t25 -89.5t23 -90.5z" />
    <glyph glyph-name="z" unicode="z" horiz-adv-x="492" 
d="M139 331q-18 0 -35.5 5t-31 15.5t-22 25.5t-8.5 36q0 23 8.5 39.5t23 27.5t33 16t39.5 5h209q58 0 90 -25.5t32 -76.5q0 -36 -22.5 -68.5t-53.5 -61.5t-64.5 -54t-54.5 -45h19.5t26 0.5t25.5 0.5h19q21 0 40 -4.5t33.5 -14t23 -25.5t8.5 -39q0 -20 -9 -36.5t-23 -28
t-31.5 -17.5t-35.5 -6h-241q-60 0 -91 27.5t-31 73.5q0 36 24 68.5t57 61t67.5 54t54.5 46.5h-79z" />
    <glyph glyph-name="braceleft" unicode="{" horiz-adv-x="280" 
d="M211 271q9 -9 17 -21q7 -11 12.5 -25.5t5.5 -34.5q0 -35 -6.5 -59.5t-14.5 -43.5t-14.5 -35t-6.5 -34q0 -13 8 -21.5t17.5 -17t17.5 -20.5t8 -32q0 -35 -22.5 -58.5t-58.5 -23.5q-33 0 -58 13t-42.5 35t-26 51.5t-8.5 62.5q0 35 5.5 59.5t11.5 43.5t11.5 35.5t5.5 34.5
q0 13 -7.5 23t-17 20t-17 21.5t-7.5 26.5t7.5 25.5t17 20.5t17 19.5t7.5 23.5q0 18 -5.5 34t-11.5 35t-11.5 43.5t-5.5 59.5q0 33 8.5 63t26 52.5t42.5 35.5t58 13q36 0 58.5 -24t22.5 -59q0 -20 -8 -32t-17.5 -20.5t-17.5 -17t-8 -21.5q0 -18 6.5 -34.5t14.5 -35t14.5 -43
t6.5 -59.5q0 -20 -5.5 -34.5t-12.5 -24.5q-8 -11 -17 -20z" />
    <glyph glyph-name="bar" unicode="|" horiz-adv-x="315" 
d="M232 -64q0 -42 -20.5 -66.5t-58.5 -24.5q-40 0 -57.5 25.5t-17.5 65.5v669q0 18 4.5 34t13.5 28.5t23 20t34 7.5q79 0 79 -90v-669v0z" />
    <glyph glyph-name="braceright" unicode="}" horiz-adv-x="280" 
d="M69 271q-10 9 -18 20q-7 10 -12 24.5t-5 34.5q0 35 6.5 59.5t14.5 43t14.5 35t6.5 34.5q0 13 -8 21.5t-18 17t-18 20.5t-8 32q0 35 22.5 59t59.5 24q33 0 58 -13t42 -35.5t26 -52.5t9 -63q0 -35 -5.5 -59.5t-11.5 -43.5t-11.5 -35t-5.5 -34q0 -14 7.5 -23.5t16.5 -19.5
t16.5 -20.5t7.5 -25.5t-7.5 -26.5t-16.5 -21.5t-16.5 -20t-7.5 -23q0 -18 5.5 -34.5t11.5 -35.5t11.5 -43.5t5.5 -59.5q0 -33 -9 -62.5t-26 -51.5t-42 -35t-58 -13q-37 0 -59.5 23.5t-22.5 58.5q0 20 8 32t18 20.5t18 17t8 21.5q0 18 -6.5 34t-14.5 35t-14.5 43.5t-6.5 59.5
q0 20 5 34.5t12 25.5q8 12 18 21z" />
    <glyph glyph-name="asciitilde" unicode="~" horiz-adv-x="580" 
d="M190 219q-13 0 -21.5 -5.5t-17.5 -12.5t-21.5 -12.5t-32.5 -5.5q-35 0 -58 24t-23 56q0 33 13 55.5t35.5 36.5t52.5 20.5t63 6.5q35 0 65 -9.5t56.5 -21t48.5 -21t40 -9.5q13 0 21.5 5.5t17.5 12.5t21.5 12.5t32.5 5.5q35 0 58 -24.5t23 -56.5q0 -33 -13.5 -55.5
t-36 -36.5t-52 -20.5t-62.5 -6.5q-35 0 -65 9.5t-56.5 21.5t-48.5 21.5t-40 9.5z" />
    <glyph glyph-name="uni00A0" unicode="&#xa0;" horiz-adv-x="229" 
 />
    <glyph glyph-name="exclamdown" unicode="&#xa1;" horiz-adv-x="288" 
d="M40 180q0 18 6.5 36.5t19 34t31.5 25.5t45 10q28 0 47.5 -9.5t31.5 -24.5t17.5 -34t5.5 -38v-231q0 -18 -5.5 -36.5t-17.5 -33.5t-31.5 -25t-47.5 -10q-26 0 -45 10t-31.5 25t-19 33.5t-6.5 36.5v231zM144 554q25 0 44.5 -10t32 -25.5t19 -33.5t6.5 -33q0 -23 -8.5 -43
t-22.5 -34.5t-32.5 -23t-38.5 -8.5q-28 0 -48 10.5t-32.5 26t-18.5 35t-6 37.5q0 20 8 38.5t22 32.5t33 22.5t42 8.5z" />
    <glyph glyph-name="cent" unicode="&#xa2;" horiz-adv-x="521" 
d="M498 119q0 -26 -10 -44.5t-26 -32t-36 -23t-38 -15.5q-3 -18 -9.5 -36t-18.5 -33t-30.5 -24t-43.5 -9q-26 0 -44 11t-30 27t-19 33.5t-9 30.5q-36 15 -67 39t-54 55.5t-36 69t-13 81.5q0 87 46.5 150.5t123.5 93.5q0 21 7 40.5t20.5 35t32.5 25t42 9.5q28 0 47.5 -12.5
t31.5 -30t17.5 -36t5.5 -31.5q20 -8 39.5 -18t34.5 -24t24.5 -32t9.5 -41q0 -15 -6.5 -30t-17 -26.5t-24.5 -18.5t-29 -7q-18 0 -32.5 7.5t-27.5 16t-26 16t-29 7.5q-23 0 -38.5 -9t-25.5 -22.5t-14 -30t-4 -30.5q0 -36 20 -62.5t63 -26.5q15 0 29 6t28.5 13.5t29.5 13.5
t33 6q15 0 28.5 -7t23.5 -18.5t15.5 -26.5t5.5 -30z" />
    <glyph glyph-name="sterling" unicode="&#xa3;" horiz-adv-x="624" 
d="M123 443v13.5v24.5v24v14q4 51 26.5 85t57.5 54.5t78.5 29.5t90.5 9q19 0 42.5 -2t48 -6.5t47 -11.5t39.5 -16q20 -12 33 -31t13 -51q0 -27 -11 -45.5t-27.5 -29t-36 -12t-37.5 6.5q-8 4 -14.5 8t-13.5 9q-10 6 -27.5 10.5t-34.5 4.5t-31 -6t-18 -20q0 -4 -0.5 -12.5
t-0.5 -18v-18.5v-14h49q18 1 37 -6t34 -20.5t25 -32t10 -41.5q0 -28 -12 -47.5t-28.5 -31.5t-34.5 -17.5t-31 -5.5h-50v-56h169q13 0 27.5 -5t27 -16.5t21 -29.5t8.5 -45q0 -25 -10 -41.5t-23.5 -27t-28 -15t-22.5 -4.5h-281q-51 0 -78.5 18.5t-32.5 72.5l-1 148
q-15 0 -33.5 5.5t-34 17.5t-26.5 31.5t-11 47.5q0 23 9 41.5t23.5 32t33.5 21t40 7.5z" />
    <glyph glyph-name="currency" unicode="&#xa4;" horiz-adv-x="603" 
d="M204 126q15 15 28.5 32t20.5 35t3.5 37t-22.5 37q-18 18 -37.5 21.5t-38 -2t-34.5 -18t-28 -25.5q-18 46 -17 93t24 92q15 -15 31.5 -27.5t34 -18.5t36 -2t37.5 23q17 17 21 35.5t-1.5 37t-17 35t-24.5 28.5q42 18 87.5 16t83.5 -16q-14 -15 -26 -32t-17 -34.5
t-1.5 -35.5t20.5 -35q19 -19 36.5 -23.5t35 1.5t34.5 20t36 32q18 -42 21 -91t-18 -94q-12 13 -28.5 24.5t-34.5 16.5t-37 1.5t-36 -20.5q-19 -19 -23 -37.5t2 -36t19 -34t28 -31.5q-51 -29 -103.5 -27t-94.5 23zM225 507q18 -20 21 -43.5t-17 -48.5q-20 -20 -44 -19t-44 20
l-68 67q-17 15 -19.5 41.5t18.5 46.5q19 20 43 19t43 -18zM542 190q17 -20 20 -43.5t-16 -48.5q-20 -20 -44 -18.5t-44 19.5l-68 67q-18 16 -20.5 42t19.5 47q19 20 43 19t43 -19zM129 252q20 17 43.5 20t48.5 -17q20 -20 19 -44t-19 -44l-68 -68q-15 -17 -41.5 -19.5
t-46.5 18.5q-20 19 -19 43t18 44zM446 568q20 17 43.5 20t48.5 -16q20 -20 18.5 -44t-19.5 -44l-67 -68q-15 -18 -41.5 -20t-47.5 19q-19 19 -18.5 43t18.5 43z" />
    <glyph glyph-name="yen" unicode="&#xa5;" horiz-adv-x="572" 
d="M410 138q-1 -69 -28 -111.5t-93 -42.5q-35 0 -58 11.5t-37 31.5t-20 48.5t-6 62.5h-50q-13 0 -31 5.5t-34.5 17.5t-28.5 31.5t-12 47.5q0 23 12 41.5t29.5 31.5t38 20t38.5 6q-18 28 -39 61.5t-39 66.5t-30 63.5t-12 53.5q0 20 7.5 40t21 35.5t32 25.5t41.5 10
q39 0 64.5 -22.5t44 -54.5t34 -67.5t34.5 -61.5q19 27 35 62.5t35 67.5t45.5 54t66.5 22q19 0 36.5 -7.5t30.5 -21.5t21 -34.5t8 -47.5q0 -26 -13.5 -56.5t-32.5 -63t-40 -65t-36 -60.5q18 1 39 -6t39.5 -20t30.5 -31.5t12 -41.5q0 -28 -12 -47.5t-28.5 -31.5t-34.5 -17.5
t-31 -5.5h-50z" />
    <glyph glyph-name="brokenbar" unicode="&#xa6;" horiz-adv-x="315" 
d="M78 601q0 18 4.5 34.5t13.5 30t23 21.5t34 8q79 0 79 -94v-155q0 -42 -20.5 -68.5t-58.5 -26.5q-40 0 -57.5 27.5t-17.5 67.5v155zM232 -60q0 -42 -20.5 -68.5t-58.5 -26.5q-40 0 -57.5 27.5t-17.5 67.5v173q0 17 4.5 34t13.5 30t23 21t34 8q38 0 58.5 -24t20.5 -69v-173
z" />
    <glyph glyph-name="section" unicode="&#xa7;" horiz-adv-x="524" 
d="M60 437q-14 15 -27 35.5t-13 49.5q0 46 23 79t60 54t82 30.5t89 9.5q37 0 74.5 -8t68 -25t50 -44t19.5 -65q0 -45 -25 -66t-60 -21q-11 0 -25 3t-27.5 10t-22.5 19t-9 29q0 26 -16 35.5t-34 9.5q-13 0 -24.5 -6t-11.5 -18q0 -11 19 -22t42 -19q6 -19 18 -32t27 -21
t32 -11.5t34 -3.5q14 0 25.5 2t21.5 5q28 -17 43 -40t15 -63q0 -32 -12.5 -54t-29.5 -42q15 -14 25.5 -34.5t10.5 -49.5q0 -53 -25.5 -87.5t-65 -55t-87.5 -28.5t-93 -8q-37 0 -74.5 8t-68 25t-49.5 44t-19 65q0 23 8 39.5t20.5 27t29 15.5t34.5 5q11 0 25.5 -3t27.5 -10
t22 -18.5t9 -28.5q0 -26 10 -34.5t27 -8.5q15 0 30.5 5t15.5 21q0 14 -14 23t-45 17q-3 14 -13 26t-25 20.5t-34 13.5t-39 5q-10 0 -19.5 -1t-19.5 -4q-25 17 -40 43t-15 66q0 32 13.5 52t31.5 40z" />
    <glyph glyph-name="dieresis" unicode="&#xa8;" horiz-adv-x="531" 
d="M147 557q-23 0 -40 9t-28 22.5t-16 28.5t-5 28q0 20 8 36.5t21 28t29 17.5t31 6q25 0 41.5 -9t26.5 -22.5t13.5 -28.5t3.5 -28q0 -18 -6.5 -34t-18 -28t-27 -19t-33.5 -7zM388 557q-23 0 -40 9t-28 22.5t-16 28.5t-5 28q0 20 8 36.5t21 28t29 17.5t31 6q25 0 41.5 -9
t26.5 -22.5t13.5 -28.5t3.5 -28q0 -18 -6.5 -34t-18 -28t-27 -19t-33.5 -7z" />
    <glyph glyph-name="copyright" unicode="&#xa9;" horiz-adv-x="768" 
d="M29 339q0 73 28 138t76 113.5t112.5 76.5t138.5 28q73 0 138 -28t113 -76.5t76 -113.5t28 -138q0 -74 -28 -138.5t-76 -112.5t-113 -76t-138 -28q-74 0 -138.5 28t-112.5 76t-76 112.5t-28 138.5zM589 454q0 33 -17.5 59t-45.5 44t-63.5 28t-70.5 10q-53 0 -99 -21
t-80.5 -57t-54.5 -83t-20 -98q0 -58 20 -104.5t54.5 -79.5t79.5 -50.5t96 -17.5q27 0 62 7t65.5 23t52 41.5t21.5 63.5q0 14 -5 28t-14.5 25t-22 17.5t-27.5 6.5q-27 0 -41 -10t-25.5 -22t-24.5 -22t-39 -10q-21 0 -37 9.5t-27.5 25t-17 34t-5.5 36.5q0 20 6 39.5t17.5 35
t27 25t34.5 9.5q18 0 32 -5.5t26 -19.5q14 -18 29.5 -30.5t44.5 -12.5q13 0 25.5 7t22 18t15.5 24.5t6 26.5z" />
    <glyph glyph-name="ordfeminine" unicode="&#xaa;" horiz-adv-x="350" 
d="M203 591q0 12 -7 16t-16 4q-10 0 -17 -5t-7 -20q0 -11 -6 -18t-14 -11.5t-17 -6.5t-16 -2q-21 0 -36 12t-15 38q0 25 13 43t33 30t44.5 18t47.5 6q21 0 44.5 -6.5t44 -19.5t33.5 -33t13 -47v-167q0 -25 -15.5 -41t-42.5 -16q-23 0 -34 13.5t-14 27.5q-16 -13 -40.5 -27
t-56.5 -14q-49 0 -76 30t-27 78q0 24 8 41.5t28 27.5q11 -8 28 -10.5t34 -0.5t31 9.5t19 20.5q17 0 26.5 4.5t9.5 25.5z" />
    <glyph glyph-name="guillemotleft" unicode="&#xab;" horiz-adv-x="715" 
d="M389 157q-37 41 -37 88q0 18 4 33t19 38t45 59t81 96q20 23 40 33.5t48 10.5q19 0 38 -6.5t33.5 -19.5t23.5 -32.5t9 -44.5q0 -23 -12 -44.5t-26 -38.5l-68 -80l80 -90q24 -24 29.5 -54t-5 -57t-36 -45t-62.5 -18q-35 0 -53.5 13.5t-32.5 28.5zM52 157q-18 21 -27 42
t-9 46q0 18 4 33t19 38t45 59t81 96q20 23 40 33.5t48 10.5q19 0 38 -6.5t33.5 -19.5t23.5 -32.5t9 -44.5q0 -23 -12 -44.5t-26 -38.5l-68 -80l80 -90q24 -24 29.5 -54t-5.5 -57t-36.5 -45t-62.5 -18q-34 0 -53 13.5t-32 28.5z" />
    <glyph glyph-name="logicalnot" unicode="&#xac;" horiz-adv-x="582" 
d="M451 498q45 0 75.5 -27.5t30.5 -74.5v-161q0 -45 -28 -77t-74 -32q-28 0 -47.5 9.5t-31.5 25.5t-17.5 35t-5.5 39v59h-227q-18 0 -37 5.5t-34 17.5t-25 31.5t-10 47.5q0 47 29.5 74.5t76.5 27.5h325v0z" />
    <glyph glyph-name="uni00AD" unicode="&#xad;" horiz-adv-x="486" 
d="M354 383q45 0 76.5 -28t31.5 -74q0 -28 -9.5 -47.5t-25 -31.5t-35 -17.5t-38.5 -5.5h-228q-18 0 -37 5.5t-34 17.5t-25 31.5t-10 47.5q0 46 29.5 74t76.5 28h228v0z" />
    <glyph glyph-name="registered" unicode="&#xae;" horiz-adv-x="451" 
d="M32 499q0 40 15 75.5t41.5 62t61.5 42t75 15.5t75.5 -15.5t62 -42t42 -62t15.5 -75.5t-15.5 -75t-42 -61.5t-62 -41.5t-75.5 -15t-75 15t-61.5 41.5t-41.5 61.5t-15 75zM203 443q0 9 -4 10q-32 10 -32 48q0 13 3 21t7.5 13t9.5 7.5t8 4.5q6 0 6 9v6q0 13 9 13q10 1 19 -1
q7 -2 13 -5.5t6 -11.5q0 -17 -11.5 -20t-19.5 -3q-11 0 -22.5 -6t-11.5 -25q0 -15 7 -25.5t27 -10.5q19 0 26.5 -7.5t8.5 -24.5q4 -23 11.5 -38.5t35.5 -15.5q20 0 31.5 15t11.5 34q0 23 -10 41.5t-25 33.5q12 9 21.5 21t9.5 35q0 17 -8.5 30.5t-21.5 23t-29 14.5t-31 5h-70
q-26 0 -45 -16.5t-19 -45.5v-148q0 -18 12.5 -30.5t31.5 -12.5t31.5 12t13.5 29v21z" />
    <glyph glyph-name="macron" unicode="&#xaf;" horiz-adv-x="412" 
d="M299 731q26 0 45 -20t19 -47q0 -32 -20.5 -49t-43.5 -17h-188q-22 0 -42 17t-20 49q0 27 17 47t45 20h188v0z" />
    <glyph glyph-name="degree" unicode="&#xb0;" horiz-adv-x="376" 
d="M189 362q-43 0 -74 17t-51.5 42t-30 53.5t-9.5 52.5q0 39 14 70.5t37.5 53t53 33.5t60.5 12q48 0 79 -17t50 -42.5t26.5 -55t7.5 -54.5q0 -33 -12.5 -63t-34.5 -52.5t-52 -36t-64 -13.5zM189 497q13 0 22.5 10.5t9.5 22.5q0 10 -6.5 21t-25.5 11q-12 0 -22 -8t-10 -24
q0 -9 7.5 -21t24.5 -12z" />
    <glyph glyph-name="plusminus" unicode="&#xb1;" horiz-adv-x="572" 
d="M453 500q15 0 32.5 -6.5t32 -19t24.5 -32t10 -44.5q0 -28 -10 -47.5t-24.5 -31.5t-32 -17.5t-32.5 -5.5h-65v-43q0 -15 -6.5 -32.5t-19 -32.5t-32 -25t-44.5 -10q-26 0 -45 9t-31.5 23.5t-19 32t-6.5 34.5v44h-59q-13 0 -31 5.5t-34.5 17.5t-28.5 31.5t-12 47.5
q0 25 10 44.5t25.5 32t34 19t36.5 6.5h59v59q0 18 6.5 36.5t19 33.5t31.5 25t45 10q25 0 44.5 -10t32 -25t19 -33.5t6.5 -36.5v-59h65zM408 211q45 0 72.5 -26t27.5 -72q0 -28 -10.5 -49t-27 -35t-36.5 -21t-40 -7h-227q-18 0 -37 7t-34 21t-25 35t-10 49q0 46 29.5 72.5
t76.5 26.5q5 -25 19 -44q12 -17 35.5 -30t64.5 -13q32 0 54.5 10t36.5 24t21.5 28.5t9.5 23.5z" />
    <glyph glyph-name="uni00B2" unicode="&#xb2;" horiz-adv-x="299" 
d="M218 470q32 0 44.5 -16.5t12.5 -33.5q0 -23 -16 -39t-46 -16h-127q-23 0 -42.5 13.5t-19.5 40.5t21 48.5t46.5 40.5t46.5 35.5t21 32.5q0 6 -3 12t-11 6q-12 0 -19.5 -6t-14.5 -13t-16 -13t-24 -6q-18 0 -32.5 16t-14.5 35q0 21 10.5 37.5t28 27.5t39.5 17t45 6
q56 0 91 -27t35 -76q0 -25 -8 -42t-21.5 -30.5t-30 -25t-33.5 -24.5h38z" />
    <glyph glyph-name="uni00B3" unicode="&#xb3;" horiz-adv-x="317" 
d="M255 543q14 -11 25.5 -28.5t11.5 -42.5q0 -28 -12.5 -48.5t-32.5 -34t-45 -20t-51 -6.5q-24 0 -47 5t-40.5 15t-28.5 25t-11 34q0 20 13 37t35 17q14 0 24 -6t18 -12.5t16 -12.5t19 -6q8 0 13.5 3.5t5.5 12.5q0 14 -6.5 19t-14 9t-14 9.5t-6.5 20.5q0 13 6 20t13.5 11.5
t14 9.5t6.5 16q0 6 -5.5 10t-12.5 4q-11 0 -18.5 -4.5t-15 -10.5t-16 -10.5t-21.5 -4.5q-23 0 -32 15.5t-9 33.5q0 17 10 30.5t26 23t37 14.5t43 5q24 0 47.5 -6t42 -18t29.5 -30t11 -43q0 -13 -3.5 -22t-8 -15.5t-9.5 -11t-7 -7.5z" />
    <glyph glyph-name="acute" unicode="&#xb4;" horiz-adv-x="340" 
d="M153 554q-29 -17 -55 -10.5t-40 29.5q-14 26 -6 52.5t35 41.5l98 57q29 17 56 10t41 -30q12 -21 7 -48t-39 -49z" />
    <glyph glyph-name="mu" unicode="&#xb5;" horiz-adv-x="594" 
d="M22 389q0 28 6.5 53t19.5 44t33.5 30t49.5 11q31 0 53 -11t36 -29.5t20.5 -42.5t6.5 -49v-179q0 -5 5 -12t13 -13t17.5 -10.5t18.5 -4.5q23 0 32 11t9 40v162q0 28 6.5 53t20.5 44t36 30t53 11q28 0 48 -11t33.5 -29t20 -41t6.5 -47v-182q0 -46 -10.5 -86t-34 -69.5
t-61 -46.5t-91.5 -17q-23 0 -41.5 4t-35 12t-32.5 21t-34 31v-125q0 -20 -5.5 -39.5t-17.5 -35t-31.5 -25t-47.5 -9.5q-46 0 -74 32t-28 77v448z" />
    <glyph glyph-name="paragraph" unicode="&#xb6;" horiz-adv-x="824" 
d="M267 247q-45 1 -90 9.5t-81 33t-58.5 68t-22.5 114.5q0 63 27 106t68 69t90 37t93 11q40 0 78.5 -6.5t68.5 -24.5t48.5 -48.5t18.5 -78.5v-425q0 -26 -6.5 -49t-20.5 -40t-37.5 -27.5t-56.5 -10.5q-34 0 -57 11t-37.5 29t-20.5 41t-6 47zM795 112q0 -22 -7 -44.5t-21 -41
t-35.5 -30t-51.5 -11.5q-41 0 -65 15t-36.5 36t-16.5 43t-4 36v452q0 13 4 35t16.5 43t36.5 36t65 15q32 0 54 -14t35.5 -33t19.5 -40t6 -34v-463z" />
    <glyph glyph-name="periodcentered" unicode="&#xb7;" horiz-adv-x="256" 
d="M128 178q-26 0 -45 10t-31.5 25.5t-19 33.5t-6.5 33q0 23 8.5 43t22.5 34.5t32.5 23t38.5 8.5q28 0 48 -10.5t32.5 -26.5t18.5 -35t6 -37q0 -21 -8 -39.5t-22 -32.5t-33 -22t-42 -8z" />
    <glyph glyph-name="cedilla" unicode="&#xb8;" horiz-adv-x="301" 
d="M264 -121q0 -65 -38.5 -98.5t-101.5 -33.5q-44 0 -65.5 17.5t-21.5 46.5q0 23 14.5 44t50.5 21q13 0 18 8t8 24q4 29 23.5 39t43.5 10q11 0 23.5 -3.5t22.5 -12.5t16.5 -24t6.5 -38z" />
    <glyph glyph-name="uni00B9" unicode="&#xb9;" horiz-adv-x="250" 
d="M97 556q-11 2 -22 1.5t-23 3.5q-14 6 -21 17.5t-7 21.5q0 13 8.5 21.5t21 14.5t25.5 10.5t22 10.5q10 6 17.5 12.5t15.5 12.5t17 9.5t22 3.5q28 0 40 -19t12 -38v-207q0 -24 -16 -45t-48 -21q-31 0 -47.5 21t-16.5 45v125z" />
    <glyph glyph-name="ordmasculine" unicode="&#xba;" horiz-adv-x="376" 
d="M189 362q-43 0 -74 17t-51.5 42t-30 53.5t-9.5 52.5q0 39 14 70.5t37.5 53t53 33.5t60.5 12q48 0 79 -17t50 -42.5t26.5 -55t7.5 -54.5q0 -33 -12.5 -63t-34.5 -52.5t-52 -36t-64 -13.5zM189 497q13 0 22.5 10.5t9.5 22.5q0 10 -6.5 21t-25.5 11q-12 0 -22 -8t-10 -24
q0 -9 7.5 -21t24.5 -12z" />
    <glyph glyph-name="guillemotright" unicode="&#xbb;" horiz-adv-x="715" 
d="M208 27q-14 -15 -32.5 -28.5t-53.5 -13.5q-37 0 -62.5 18t-36 45t-5 57t29.5 54l80 90l-68 80q-14 17 -26 38.5t-12 44.5q0 25 9 44.5t23.5 32.5t33 19.5t38.5 6.5q28 0 48 -10.5t40 -33.5q51 -60 81 -96t45 -59t19 -38t4 -33q0 -47 -37 -88zM544 27q-13 -15 -32 -28.5
t-53 -13.5q-38 0 -63 18t-36 45t-5.5 57t29.5 54l80 90l-68 80q-14 17 -26 38.5t-12 44.5q0 25 9 44.5t23.5 32.5t33 19.5t38.5 6.5q28 0 48 -10.5t40 -33.5q51 -60 81 -96t45 -59t19 -38t4 -33q0 -25 -9 -46t-27 -42z" />
    <glyph glyph-name="onequarter" unicode="&#xbc;" horiz-adv-x="533" 
d="M102 556q-11 2 -22 1.5t-23 3.5q-14 6 -21 17.5t-7 21.5q0 13 8.5 21.5t21 14.5t25.5 10.5t22 10.5q10 6 17.5 12.5t15.5 12.5t17 9.5t22 3.5q28 0 40 -19t12 -38v-207q0 -24 -16 -45t-48 -21q-31 0 -47.5 21t-16.5 45v125zM288 493q28 34 60 37t53.5 -13.5t25 -46.5
t-24.5 -63l-53 -55q-23 -25 -44 -50q-19 -22 -39 -46.5t-37 -47.5q-27 -36 -59 -40.5t-54 12t-26 47t26 65.5l37 45q20 0 39.5 5.5t33.5 18t22 34t6 54.5zM360 49q-8 0 -17.5 -0.5t-19.5 -0.5q-18 0 -37 1.5t-34.5 7.5t-25.5 17t-10 29q0 20 18 51t41.5 61.5t46 55
t30.5 32.5q15 15 30.5 21.5t35.5 6.5q15 0 26 -9.5t17.5 -26t9.5 -39t3 -47.5q0 -18 -1 -35.5t-1 -30.5q11 -11 21.5 -19t10.5 -26q0 -12 -4.5 -19t-10.5 -12t-12 -11t-9 -15q-5 -20 -16.5 -38t-32.5 -18q-28 0 -42.5 19.5t-16.5 44.5z" />
    <glyph glyph-name="onehalf" unicode="&#xbd;" horiz-adv-x="546" 
d="M102 556q-11 2 -22 1.5t-23 3.5q-14 6 -21 17.5t-7 21.5q0 13 8.5 21.5t21 14.5t25.5 10.5t22 10.5q10 6 17.5 12.5t15.5 12.5t17 9.5t22 3.5q28 0 40 -19t12 -38v-207q0 -24 -16 -45t-48 -21q-31 0 -47.5 21t-16.5 45v125zM288 493q28 34 60 37t53.5 -13.5t25 -46.5
t-24.5 -63l-53 -55q-32 -4 -57 -19q-21 -13 -37.5 -37t-12.5 -66l-13 -22q-29 -35 -61 -39t-54 12t-25 46t27 65l37 45q20 0 39.5 5.5t33.5 18t22 34t6 54.5zM459 106q32 0 45 -16.5t13 -34.5q0 -23 -16.5 -38.5t-45.5 -15.5h-127q-23 0 -42.5 13t-19.5 40t21 49t46.5 40.5
t46.5 35.5t21 33q0 6 -3 11.5t-11 5.5q-12 0 -19.5 -6t-14.5 -13t-16 -13t-24 -6q-18 0 -32.5 16.5t-14.5 35.5q0 21 10.5 37t28 27.5t39.5 17t45 5.5q56 0 91 -27t35 -76q0 -25 -8 -42t-21.5 -30t-30 -24.5t-33.5 -24.5h37z" />
    <glyph glyph-name="threequarters" unicode="&#xbe;" horiz-adv-x="587" 
d="M341 493q28 34 60.5 37t54 -13.5t25 -46.5t-24.5 -63l-54 -55q-22 -25 -43 -50q-18 -22 -39 -46.5t-37 -47.5q-27 -36 -59 -40.5t-54.5 12t-26.5 47t26 65.5l39 51q12 0 31.5 7t38 21t31.5 37.5t13 56.5zM414 49q-8 0 -17.5 -0.5t-20.5 -0.5q-18 0 -37 1.5t-34.5 7.5
t-25.5 17t-10 29q0 13 8.5 31.5t22 39.5t29.5 41.5t31.5 38.5t27.5 31t17 18q15 15 30.5 21.5t35.5 6.5q16 0 26.5 -9.5t17 -26t9.5 -39t3 -47.5q0 -18 -0.5 -35.5t-0.5 -30.5q11 -11 21.5 -19t10.5 -26q0 -12 -5 -19t-11 -12t-12 -11t-8 -15q-5 -20 -17 -38t-33 -18
q-28 0 -42 19.5t-16 44.5zM260 543q14 -11 25.5 -28.5t11.5 -42.5q0 -28 -12.5 -48.5t-32.5 -34t-45.5 -20t-51.5 -6.5q-24 0 -46.5 5t-40 15t-28.5 25t-11 34q0 20 13 37t35 17q14 0 24 -6t18 -12.5t16 -12.5t18 -6q8 0 14 3.5t6 12.5q0 14 -6.5 19t-14 9t-14 9.5
t-6.5 20.5q0 13 6 20t13.5 11.5t14 9.5t6.5 16q0 6 -5.5 10t-13.5 4q-11 0 -18.5 -4.5t-14.5 -10.5t-15.5 -10.5t-21.5 -4.5q-23 0 -32 15.5t-9 33.5q0 17 10 30.5t26 22.5t37 14t43 5q24 0 47.5 -5.5t41.5 -17.5t29.5 -30t11.5 -43q0 -13 -3.5 -22t-8 -15.5t-9.5 -11
t-7 -7.5z" />
    <glyph glyph-name="questiondown" unicode="&#xbf;" horiz-adv-x="536" 
d="M291 554q25 0 44.5 -10t32 -25.5t19 -33.5t6.5 -33q0 -23 -8 -43t-22 -34.5t-32.5 -23t-39.5 -8.5q-28 0 -48 10.5t-33.5 26t-20 35t-6.5 37.5q0 20 8.5 38.5t23 32.5t34 22.5t42.5 8.5zM291 301q36 0 59 -23t23 -58q0 -38 -20 -61t-44.5 -39.5t-44.5 -31.5t-20 -38
q0 -20 10 -27t23 -7q18 0 34.5 9t27.5 18q12 10 23 20.5t23 19t26.5 14t33.5 5.5q37 0 57.5 -28t20.5 -66q0 -25 -16 -53.5t-46.5 -53t-76.5 -40.5t-106 -16q-55 0 -102 11.5t-82 36t-55 62t-20 88.5q0 60 29.5 108t71.5 81.5t89 51t82 17.5z" />
    <glyph glyph-name="Agrave" unicode="&#xc0;" horiz-adv-x="638" 
d="M197 59q12 -9 2 -28q-9 -14 -28 -29.5t-56 -16.5q-48 0 -76.5 31t-28.5 77q0 14 11 54t28 93.5t37.5 114t40.5 114t36 95t25 56.5q21 35 53.5 55t74.5 20q41 0 75 -16.5t54 -51.5q6 -12 17.5 -38.5t25.5 -63t30 -80t31.5 -88t30 -87.5t25.5 -79t17.5 -62t6.5 -36
q0 -46 -29 -77t-80 -31q-23 0 -39.5 9t-28.5 21.5t-20.5 26.5t-16.5 24q-10 1 -28.5 1h-39t-39.5 -0.5t-29 -0.5q-51 0 -73.5 26t-22.5 69q0 48 30 71t75 23h55q14 0 27 1q1 7 -4.5 26t-13 42t-16 46t-14.5 37q-5 9 -13 8t-10 -8q-10 -29 -19 -53q-8 -20 -15.5 -39.5
t-9.5 -25.5q-3 -7 -20 -12t-35.5 -17t-33.5 -35t-15 -66q0 -25 6 -43t13.5 -30t15.5 -18.5t11 -8.5zM235 790q-34 22 -39 49t7 48q14 23 41 29.5t56 -10.5l98 -56q27 -15 35 -41.5t-6 -52.5q-14 -23 -40 -29.5t-55 9.5z" />
    <glyph glyph-name="Aacute" unicode="&#xc1;" horiz-adv-x="638" 
d="M197 59q12 -9 2 -28q-9 -14 -28 -29.5t-56 -16.5q-48 0 -76.5 31t-28.5 77q0 14 11 54t28 93.5t37.5 114t40.5 114t36 95t25 56.5q21 35 53.5 55t74.5 20q41 0 75 -16.5t54 -51.5q6 -12 17.5 -38.5t25.5 -63t30 -80t31.5 -88t30 -87.5t25.5 -79t17.5 -62t6.5 -36
q0 -46 -29 -77t-80 -31q-23 0 -39.5 9t-28.5 21.5t-20.5 26.5t-16.5 24q-10 1 -28.5 1h-39t-39.5 -0.5t-29 -0.5q-51 0 -73.5 26t-22.5 69q0 48 30 71t75 23h55q14 0 27 1q1 7 -4.5 26t-13 42t-16 46t-14.5 37q-5 9 -13 8t-10 -8q-10 -29 -19 -53q-8 -20 -15.5 -39.5
t-9.5 -25.5q-3 -7 -20 -12t-35.5 -17t-33.5 -35t-15 -66q0 -25 6 -43t13.5 -30t15.5 -18.5t11 -8.5zM301 736q-29 -16 -55 -9.5t-40 29.5q-14 26 -6 52.5t35 41.5l98 56q29 17 56 10.5t41 -29.5q12 -21 7 -48t-39 -49z" />
    <glyph glyph-name="Acircumflex" unicode="&#xc2;" horiz-adv-x="638" 
d="M197 59q12 -9 2 -28q-9 -14 -28 -29.5t-56 -16.5q-48 0 -76.5 31t-28.5 77q0 14 11 54t28 93.5t37.5 114t40.5 114t36 95t25 56.5q21 35 53.5 55t74.5 20q41 0 75 -16.5t54 -51.5q6 -12 17.5 -38.5t25.5 -63t30 -80t31.5 -88t30 -87.5t25.5 -79t17.5 -62t6.5 -36
q0 -46 -29 -77t-80 -31q-23 0 -39.5 9t-28.5 21.5t-20.5 26.5t-16.5 24q-10 1 -28.5 1h-39t-39.5 -0.5t-29 -0.5q-51 0 -73.5 26t-22.5 69q0 48 30 71t75 23h55q14 0 27 1q1 7 -4.5 26t-13 42t-16 46t-14.5 37q-5 9 -13 8t-10 -8q-10 -29 -19 -53q-8 -20 -15.5 -39.5
t-9.5 -25.5q-3 -7 -20 -12t-35.5 -17t-33.5 -35t-15 -66q0 -25 6 -43t13.5 -30t15.5 -18.5t11 -8.5zM318 926q9 -1 18 -3.5t17 -9.5l91 -74q24 -20 26.5 -42.5t-8.5 -37.5q-6 -9 -15 -15.5t-21 -9t-25 0.5t-26 13l-56 43l-58 -43q-13 -10 -26 -13t-25 -0.5t-21 9t-15 15.5
q-11 15 -8.5 37.5t26.5 42.5l91 74q8 7 17 9.5t18 3.5z" />
    <glyph glyph-name="Atilde" unicode="&#xc3;" horiz-adv-x="638" 
d="M197 59q12 -9 2 -28q-9 -14 -28 -29.5t-56 -16.5q-48 0 -76.5 31t-28.5 77q0 14 11 54t28 93.5t37.5 114t40.5 114t36 95t25 56.5q21 35 53.5 55t74.5 20q41 0 75 -16.5t54 -51.5q6 -12 17.5 -38.5t25.5 -63t30 -80t31.5 -88t30 -87.5t25.5 -79t17.5 -62t6.5 -36
q0 -46 -29 -77t-80 -31q-23 0 -39.5 9t-28.5 21.5t-20.5 26.5t-16.5 24q-10 1 -28.5 1h-39t-39.5 -0.5t-29 -0.5q-51 0 -73.5 26t-22.5 69q0 48 30 71t75 23h55q14 0 27 1q1 7 -4.5 26t-13 42t-16 46t-14.5 37q-5 9 -13 8t-10 -8q-10 -29 -19 -53q-8 -20 -15.5 -39.5
t-9.5 -25.5q-3 -7 -20 -12t-35.5 -17t-33.5 -35t-15 -66q0 -25 6 -43t13.5 -30t15.5 -18.5t11 -8.5zM271 932q26 0 42.5 -8t26 -19.5t13 -23.5t3.5 -20q0 -15 3.5 -21t8.5 -6q12 0 12 20v29q0 5 1.5 13.5t6 16.5t13 13.5t23.5 5.5q13 0 22 -5.5t13.5 -13t6.5 -15t2 -11.5
v-34q0 -44 -22.5 -72.5t-77.5 -28.5q-53 0 -73 21.5t-20 51.5q0 26 -13 26q-7 0 -8.5 -6t-1.5 -14v-30q0 -5 -1 -13.5t-5 -16.5t-12 -13.5t-23 -5.5q-14 0 -22.5 5.5t-13 13t-6 15.5t-1.5 12v34q0 43 23.5 71.5t79.5 28.5z" />
    <glyph glyph-name="Adieresis" unicode="&#xc4;" horiz-adv-x="638" 
d="M197 59q12 -9 2 -28q-9 -14 -28 -29.5t-56 -16.5q-48 0 -76.5 31t-28.5 77q0 14 11 54t28 93.5t37.5 114t40.5 114t36 95t25 56.5q21 35 53.5 55t74.5 20q41 0 75 -16.5t54 -51.5q6 -12 17.5 -38.5t25.5 -63t30 -80t31.5 -88t30 -87.5t25.5 -79t17.5 -62t6.5 -36
q0 -46 -29 -77t-80 -31q-23 0 -39.5 9t-28.5 21.5t-20.5 26.5t-16.5 24q-10 1 -28.5 1h-39t-39.5 -0.5t-29 -0.5q-51 0 -73.5 26t-22.5 69q0 48 30 71t75 23h55q14 0 27 1q1 7 -4.5 26t-13 42t-16 46t-14.5 37q-5 9 -13 8t-10 -8q-10 -29 -19 -53q-8 -20 -15.5 -39.5
t-9.5 -25.5q-3 -7 -20 -12t-35.5 -17t-33.5 -35t-15 -66q0 -25 6 -43t13.5 -30t15.5 -18.5t11 -8.5zM199 732q-23 0 -40 9t-28 22.5t-16 29t-5 28.5q0 20 8 36.5t21 28t29 17.5t31 6q25 0 41.5 -9t26.5 -22.5t13.5 -28.5t3.5 -28q0 -18 -6.5 -34t-18 -28.5t-27 -19.5
t-33.5 -7zM440 732q-23 0 -40 9t-28 22.5t-16 29t-5 28.5q0 20 8 36.5t21 28t29 17.5t31 6q25 0 41.5 -9t26.5 -22.5t13.5 -28.5t3.5 -28q0 -18 -6.5 -34t-18 -28.5t-27 -19.5t-33.5 -7z" />
    <glyph glyph-name="Aring" unicode="&#xc5;" horiz-adv-x="638" 
d="M197 59q12 -9 2 -28q-9 -14 -28 -29.5t-56 -16.5q-48 0 -76.5 31t-28.5 77q0 14 11 54t28 93.5t37.5 114t40.5 114t36 95t25 56.5q21 35 53.5 55t74.5 20q41 0 75 -16.5t54 -51.5q6 -12 17.5 -38.5t25.5 -63t30 -80t31.5 -88t30 -87.5t25.5 -79t17.5 -62t6.5 -36
q0 -46 -29 -77t-80 -31q-23 0 -39.5 9t-28.5 21.5t-20.5 26.5t-16.5 24q-10 1 -28.5 1h-39t-39.5 -0.5t-29 -0.5q-51 0 -73.5 26t-22.5 69q0 48 30 71t75 23h55q14 0 27 1q1 7 -4.5 26t-13 42t-16 46t-14.5 37q-5 9 -13 8t-10 -8q-10 -29 -19 -53q-8 -20 -15.5 -39.5
t-9.5 -25.5q-3 -7 -20 -12t-35.5 -17t-33.5 -35t-15 -66q0 -25 6 -43t13.5 -30t15.5 -18.5t11 -8.5zM319 767q-29 0 -49.5 11.5t-34 28t-20 36t-6.5 35.5q0 26 9.5 46.5t24.5 35t35 22.5t41 8q31 0 52 -11.5t33.5 -28.5t17.5 -36.5t5 -35.5q0 -22 -8.5 -42t-23 -35.5
t-34 -24.5t-42.5 -9zM319 858q8 0 14.5 6.5t6.5 14.5q0 7 -4.5 14.5t-16.5 7.5q-8 0 -15 -5.5t-7 -16.5q0 -6 5.5 -13.5t16.5 -7.5z" />
    <glyph glyph-name="AE" unicode="&#xc6;" horiz-adv-x="962" 
d="M517 -16q-23 0 -39 9t-27 22t-19.5 27t-16.5 24q-10 1 -28.5 1h-39t-39.5 -0.5t-29 -0.5q-51 0 -73.5 26t-22.5 69q0 48 30 71t75 23h55q14 0 27 1q1 7 -4.5 26t-13 42t-16 46t-14.5 37q-5 9 -13 8t-10 -8q-10 -29 -19 -53q-8 -20 -15.5 -39.5t-9.5 -25.5q-3 -7 -20 -12
t-35.5 -17t-33.5 -35t-15 -66q0 -25 6 -43t13.5 -30t15.5 -18.5t11 -8.5q12 -9 2 -28q-9 -14 -32 -30t-60 -17q-29 0 -47.5 10.5t-29.5 26.5t-15.5 35.5t-4.5 37.5q0 17 11 58t28.5 94.5t38.5 112.5t41 112t36.5 93t24.5 55q22 37 56.5 56.5t76.5 19.5q32 0 59 -17.5
t47 -40.5q25 24 56.5 33.5t63.5 9.5h268q12 0 31.5 -4t38.5 -14.5t33 -30t14 -49.5q0 -29 -14 -47.5t-32.5 -29t-37 -14.5t-27.5 -4h-167q-20 0 -20 -21q0 -14 6 -19t14 -5h125q12 0 29.5 -5t34.5 -16.5t29 -29.5t12 -45q0 -26 -12 -44.5t-29 -30t-34.5 -17t-29.5 -5.5h-125
q-9 0 -16 -8t-7 -25q0 -14 7 -20.5t16 -6.5h185q16 0 34 -6t33 -17.5t24.5 -29t9.5 -41.5q0 -26 -12 -44t-28.5 -29t-34 -16.5t-27.5 -5.5h-245q-10 0 -17 -2.5t-15 -5.5t-19 -5.5t-27 -2.5z" />
    <glyph glyph-name="Ccedilla" unicode="&#xc7;" horiz-adv-x="669" 
d="M645 497q0 -18 -8 -36.5t-21.5 -33.5t-30.5 -25t-35 -10q-41 0 -62 18t-41 42q-17 19 -36 27t-45 8q-27 0 -48.5 -13t-36.5 -34.5t-23.5 -48.5t-8.5 -55q0 -26 8 -52t23 -47t37.5 -34t51.5 -13q36 0 54 14t33.5 30.5t35.5 30.5t58 14q20 0 37.5 -9.5t30 -24.5t20 -34.5
t7.5 -39.5q0 -52 -29.5 -87.5t-72 -57.5t-91 -32t-86.5 -10q-70 0 -133 24.5t-110.5 70t-75.5 110.5t-28 145q0 72 27.5 137t75.5 115t112.5 79.5t138.5 29.5q48 0 96.5 -13.5t87.5 -39t63.5 -62.5t24.5 -83zM479 -121q0 -65 -38.5 -98.5t-101.5 -33.5q-44 0 -65.5 17.5
t-21.5 46.5q0 23 14.5 44t50.5 21q13 0 18 8t8 24q4 29 23.5 39t43.5 10q11 0 23.5 -3.5t22.5 -12.5t16.5 -24t6.5 -38z" />
    <glyph glyph-name="Egrave" unicode="&#xc8;" horiz-adv-x="595" 
d="M574 586q0 -30 -10.5 -48.5t-26 -28.5t-34 -13.5t-33.5 -3.5h-172q-10 0 -15 -8t-5 -13q0 -15 5 -21t15 -6h126q45 0 74 -21.5t29 -72.5q0 -25 -8.5 -43t-23 -29.5t-33 -17t-38.5 -5.5h-126q-10 0 -18.5 -9t-8.5 -24t8.5 -21t18.5 -6h186q42 0 69.5 -25t27.5 -76
t-29 -72.5t-76 -21.5h-299q-35 0 -62.5 15.5t-46.5 39.5t-29 52.5t-10 53.5v365q0 35 14 63.5t36.5 48.5t51.5 31t59 11h273q16 0 35 -3.5t36 -13.5t28.5 -28.5t11.5 -48.5zM230 790q-34 22 -39 49t7 48q14 23 41 29.5t56 -10.5l98 -56q27 -15 35 -41.5t-6 -52.5
q-14 -23 -40 -29.5t-55 9.5z" />
    <glyph glyph-name="Eacute" unicode="&#xc9;" horiz-adv-x="595" 
d="M574 586q0 -30 -10.5 -48.5t-26 -28.5t-34 -13.5t-33.5 -3.5h-172q-10 0 -15 -8t-5 -13q0 -15 5 -21t15 -6h126q45 0 74 -21.5t29 -72.5q0 -25 -8.5 -43t-23 -29.5t-33 -17t-38.5 -5.5h-126q-10 0 -18.5 -9t-8.5 -24t8.5 -21t18.5 -6h186q42 0 69.5 -25t27.5 -76
t-29 -72.5t-76 -21.5h-299q-35 0 -62.5 15.5t-46.5 39.5t-29 52.5t-10 53.5v365q0 35 14 63.5t36.5 48.5t51.5 31t59 11h273q16 0 35 -3.5t36 -13.5t28.5 -28.5t11.5 -48.5zM296 736q-29 -16 -55 -9.5t-40 29.5q-14 26 -6 52.5t35 41.5l98 56q29 17 56 10.5t41 -29.5
q12 -21 7 -48t-39 -49z" />
    <glyph glyph-name="Ecircumflex" unicode="&#xca;" horiz-adv-x="595" 
d="M574 586q0 -30 -10.5 -48.5t-26 -28.5t-34 -13.5t-33.5 -3.5h-172q-10 0 -15 -8t-5 -13q0 -15 5 -21t15 -6h126q45 0 74 -21.5t29 -72.5q0 -25 -8.5 -43t-23 -29.5t-33 -17t-38.5 -5.5h-126q-10 0 -18.5 -9t-8.5 -24t8.5 -21t18.5 -6h186q42 0 69.5 -25t27.5 -76
t-29 -72.5t-76 -21.5h-299q-35 0 -62.5 15.5t-46.5 39.5t-29 52.5t-10 53.5v365q0 35 14 63.5t36.5 48.5t51.5 31t59 11h273q16 0 35 -3.5t36 -13.5t28.5 -28.5t11.5 -48.5zM313 926q9 -1 18 -3.5t17 -9.5l91 -74q24 -20 26.5 -42.5t-8.5 -37.5q-6 -9 -15 -15.5t-21 -9
t-25 0.5t-26 13l-56 43l-58 -43q-13 -10 -26 -13t-25 -0.5t-21 9t-15 15.5q-11 15 -8.5 37.5t26.5 42.5l91 74q8 7 17 9.5t18 3.5z" />
    <glyph glyph-name="Edieresis" unicode="&#xcb;" horiz-adv-x="595" 
d="M574 586q0 -30 -10.5 -48.5t-26 -28.5t-34 -13.5t-33.5 -3.5h-172q-10 0 -15 -8t-5 -13q0 -15 5 -21t15 -6h126q45 0 74 -21.5t29 -72.5q0 -25 -8.5 -43t-23 -29.5t-33 -17t-38.5 -5.5h-126q-10 0 -18.5 -9t-8.5 -24t8.5 -21t18.5 -6h186q42 0 69.5 -25t27.5 -76
t-29 -72.5t-76 -21.5h-299q-35 0 -62.5 15.5t-46.5 39.5t-29 52.5t-10 53.5v365q0 35 14 63.5t36.5 48.5t51.5 31t59 11h273q16 0 35 -3.5t36 -13.5t28.5 -28.5t11.5 -48.5zM195 732q-23 0 -40 9t-28 22.5t-16 29t-5 28.5q0 20 8 36.5t21 28t29 17.5t31 6q25 0 41.5 -9
t26.5 -22.5t13.5 -28.5t3.5 -28q0 -18 -6.5 -34t-18 -28.5t-27 -19.5t-33.5 -7zM436 732q-23 0 -40 9t-28 22.5t-16 29t-5 28.5q0 20 8 36.5t21 28t29 17.5t31 6q25 0 41.5 -9t26.5 -22.5t13.5 -28.5t3.5 -28q0 -18 -6.5 -34t-18 -28.5t-27 -19.5t-33.5 -7z" />
    <glyph glyph-name="Igrave" unicode="&#xcc;" horiz-adv-x="310" 
d="M281 136q0 -24 -5.5 -50.5t-19.5 -48.5t-38 -36.5t-60 -15.5q-41 1 -66 16.5t-39 39t-19 52.5t-5 57v380q0 28 5.5 56.5t20 52.5t39.5 39.5t64 16.5q36 -1 59 -15.5t36.5 -36.5t19.5 -48.5t8 -50.5v-408zM73 790q-34 22 -39 49t7 48q14 23 41 29.5t56 -10.5l98 -56
q27 -15 35 -41.5t-6 -52.5q-14 -23 -40 -29.5t-55 9.5z" />
    <glyph glyph-name="Iacute" unicode="&#xcd;" horiz-adv-x="310" 
d="M281 136q0 -24 -5.5 -50.5t-19.5 -48.5t-38 -36.5t-60 -15.5q-41 1 -66 16.5t-39 39t-19 52.5t-5 57v380q0 28 5.5 56.5t20 52.5t39.5 39.5t64 16.5q36 -1 59 -15.5t36.5 -36.5t19.5 -48.5t8 -50.5v-408zM138 736q-29 -16 -55 -9.5t-40 29.5q-14 26 -6 52.5t35 41.5
l98 56q29 17 56 10.5t41 -29.5q12 -21 7 -48t-39 -49z" />
    <glyph glyph-name="Icircumflex" unicode="&#xce;" horiz-adv-x="310" 
d="M281 136q0 -24 -5.5 -50.5t-19.5 -48.5t-38 -36.5t-60 -15.5q-41 1 -66 16.5t-39 39t-19 52.5t-5 57v380q0 28 5.5 56.5t20 52.5t39.5 39.5t64 16.5q36 -1 59 -15.5t36.5 -36.5t19.5 -48.5t8 -50.5v-408zM155 926q9 -1 18 -3.5t17 -9.5l91 -74q24 -20 26.5 -42.5
t-8.5 -37.5q-6 -9 -15 -15.5t-21 -9t-25 0.5t-26 13l-56 43l-58 -43q-13 -10 -26 -13t-25 -0.5t-21 9t-15 15.5q-11 15 -8.5 37.5t26.5 42.5l91 74q8 7 17 9.5t18 3.5z" />
    <glyph glyph-name="Idieresis" unicode="&#xcf;" horiz-adv-x="310" 
d="M281 136q0 -24 -5.5 -50.5t-19.5 -48.5t-38 -36.5t-60 -15.5q-41 1 -66 16.5t-39 39t-19 52.5t-5 57v380q0 28 5.5 56.5t20 52.5t39.5 39.5t64 16.5q36 -1 59 -15.5t36.5 -36.5t19.5 -48.5t8 -50.5v-408zM37 732q-23 0 -40 9t-28 22.5t-16 29t-5 28.5q0 20 8 36.5t21 28
t29 17.5t31 6q25 0 41.5 -9t26.5 -22.5t13.5 -28.5t3.5 -28q0 -18 -6.5 -34t-18 -28.5t-27 -19.5t-33.5 -7zM278 732q-23 0 -40 9t-28 22.5t-16 29t-5 28.5q0 20 8 36.5t21 28t29 17.5t31 6q25 0 41.5 -9t26.5 -22.5t13.5 -28.5t3.5 -28q0 -18 -6.5 -34t-18 -28.5t-27 -19.5
t-33.5 -7z" />
    <glyph glyph-name="Eth" unicode="&#xd0;" horiz-adv-x="684" 
d="M191 0q-36 0 -65.5 13t-51 34.5t-33.5 49.5t-12 58v89h-2q-32 0 -53.5 13.5t-32 34t-10.5 44.5t10.5 44.5t32 34t53.5 13.5h2v91q0 52 16 83.5t41 49t55.5 23t60.5 5.5h149q62 0 119.5 -20t101.5 -61.5t70.5 -106.5t26.5 -155q0 -61 -22 -121t-63.5 -108t-101.5 -78
t-136 -30h-155z" />
    <glyph glyph-name="Ntilde" unicode="&#xd1;" horiz-adv-x="726" 
d="M267 328q3 -13 5 -39.5t3.5 -56t2.5 -57t1 -43.5q0 -42 -11 -70.5t-28.5 -45.5t-40 -24t-45.5 -7q-27 0 -49.5 8.5t-39.5 27.5t-26.5 48.5t-9.5 70.5l3 375q0 38 8.5 71t26 57t43.5 38t61 14q34 0 63.5 -18t54.5 -46.5t46 -64.5t40.5 -72.5t37 -69.5t35.5 -55
q0 17 -1.5 59.5t-1.5 112.5q0 18 4 44t17.5 50.5t38.5 42t67 17.5q36 0 60 -13t38.5 -35t20.5 -49.5t6 -56.5v-379q0 -34 -8 -65.5t-25 -55.5t-43 -38.5t-63 -14.5q-33 0 -62.5 19t-56 49t-50 68t-45 76t-41 71.5t-36.5 56.5zM316 932q26 0 42.5 -8t26 -19.5t13 -23.5
t3.5 -20q0 -15 3.5 -21t8.5 -6q12 0 12 20v29q0 5 1.5 13.5t6 16.5t13 13.5t23.5 5.5q13 0 22 -5.5t13.5 -13t6.5 -15t2 -11.5v-34q0 -44 -22.5 -72.5t-77.5 -28.5q-53 0 -73 21.5t-20 51.5q0 26 -13 26q-7 0 -8.5 -6t-1.5 -14v-30q0 -5 -1 -13.5t-5 -16.5t-12 -13.5
t-23 -5.5q-14 0 -22.5 5.5t-13 13t-6 15.5t-1.5 12v34q0 43 23.5 71.5t79.5 28.5z" />
    <glyph glyph-name="Ograve" unicode="&#xd2;" horiz-adv-x="746" 
d="M373 -15q-77 0 -141.5 28.5t-112 77t-74 113t-26.5 135.5t27.5 135.5t75.5 113t112.5 77t138.5 28.5q71 0 135.5 -28.5t113 -77t77 -113t28.5 -135.5t-27.5 -135.5t-75.5 -113t-112.5 -77t-138.5 -28.5zM290 790q-34 22 -39 49t7 48q14 23 41 29.5t56 -10.5l98 -56
q27 -15 35 -41.5t-6 -52.5q-14 -23 -40 -29.5t-55 9.5z" />
    <glyph glyph-name="Oacute" unicode="&#xd3;" horiz-adv-x="746" 
d="M373 -15q-77 0 -141.5 28.5t-112 77t-74 113t-26.5 135.5t27.5 135.5t75.5 113t112.5 77t138.5 28.5q71 0 135.5 -28.5t113 -77t77 -113t28.5 -135.5t-27.5 -135.5t-75.5 -113t-112.5 -77t-138.5 -28.5zM356 736q-29 -16 -55 -9.5t-40 29.5q-14 26 -6 52.5t35 41.5l98 56
q29 17 56 10.5t41 -29.5q12 -21 7 -48t-39 -49z" />
    <glyph glyph-name="Ocircumflex" unicode="&#xd4;" horiz-adv-x="746" 
d="M373 -15q-77 0 -141.5 28.5t-112 77t-74 113t-26.5 135.5t27.5 135.5t75.5 113t112.5 77t138.5 28.5q71 0 135.5 -28.5t113 -77t77 -113t28.5 -135.5t-27.5 -135.5t-75.5 -113t-112.5 -77t-138.5 -28.5zM373 926q9 -1 18 -3.5t17 -9.5l91 -74q24 -20 26.5 -42.5
t-8.5 -37.5q-6 -9 -15 -15.5t-21 -9t-25 0.5t-26 13l-56 43l-58 -43q-13 -10 -26 -13t-25 -0.5t-21 9t-15 15.5q-11 15 -8.5 37.5t26.5 42.5l91 74q8 7 17 9.5t18 3.5z" />
    <glyph glyph-name="Otilde" unicode="&#xd5;" horiz-adv-x="746" 
d="M373 -15q-77 0 -141.5 28.5t-112 77t-74 113t-26.5 135.5t27.5 135.5t75.5 113t112.5 77t138.5 28.5q71 0 135.5 -28.5t113 -77t77 -113t28.5 -135.5t-27.5 -135.5t-75.5 -113t-112.5 -77t-138.5 -28.5zM327 932q26 0 42.5 -8t26 -19.5t13 -23.5t3.5 -20q0 -15 3.5 -21
t8.5 -6q12 0 12 20v29q0 5 1.5 13.5t6 16.5t13 13.5t23.5 5.5q13 0 22 -5.5t13.5 -13t6.5 -15t2 -11.5v-34q0 -44 -22.5 -72.5t-77.5 -28.5q-53 0 -73 21.5t-20 51.5q0 26 -13 26q-7 0 -8.5 -6t-1.5 -14v-30q0 -5 -1 -13.5t-5 -16.5t-12 -13.5t-23 -5.5q-14 0 -22.5 5.5
t-13 13t-6 15.5t-1.5 12v34q0 43 23.5 71.5t79.5 28.5z" />
    <glyph glyph-name="Odieresis" unicode="&#xd6;" horiz-adv-x="746" 
d="M373 -15q-77 0 -141.5 28.5t-112 77t-74 113t-26.5 135.5t27.5 135.5t75.5 113t112.5 77t138.5 28.5q71 0 135.5 -28.5t113 -77t77 -113t28.5 -135.5t-27.5 -135.5t-75.5 -113t-112.5 -77t-138.5 -28.5zM255 732q-23 0 -40 9t-28 22.5t-16 29t-5 28.5q0 20 8 36.5t21 28
t29 17.5t31 6q25 0 41.5 -9t26.5 -22.5t13.5 -28.5t3.5 -28q0 -18 -6.5 -34t-18 -28.5t-27 -19.5t-33.5 -7zM496 732q-23 0 -40 9t-28 22.5t-16 29t-5 28.5q0 20 8 36.5t21 28t29 17.5t31 6q25 0 41.5 -9t26.5 -22.5t13.5 -28.5t3.5 -28q0 -18 -6.5 -34t-18 -28.5t-27 -19.5
t-33.5 -7z" />
    <glyph glyph-name="multiply" unicode="&#xd7;" horiz-adv-x="572" 
d="M332 447q11 11 27.5 18.5t36 9t40 -5t38.5 -24.5q20 -20 27 -40.5t5 -39.5t-10.5 -35.5t-18.5 -26.5l-47 -47l45 -44q11 -11 19 -27.5t9.5 -36t-5.5 -40t-25 -38.5t-38 -25.5t-39 -6t-36 9t-29 19.5l-44 46l-42 -42q-9 -9 -25.5 -17.5t-37 -12t-42.5 2t-42 25.5
q-18 18 -24.5 38.5t-4.5 40.5t10.5 37.5t21.5 30.5l41 40l-41 42q-13 12 -21.5 30t-10.5 38t4.5 40.5t24.5 38.5t38.5 24.5t40.5 4.5t38 -10.5t30 -21.5l42 -41l45 46v0z" />
    <glyph glyph-name="Oslash" unicode="&#xd8;" horiz-adv-x="746" 
d="M373 -15q-50 0 -91.5 12.5t-80.5 34.5l-22 -21q-23 -22 -49 -25.5t-48.5 5t-40 27t-24 41.5t-0.5 47.5t31 45.5l15 14q-44 78 -44 173q0 71 27.5 135.5t75.5 113t112.5 77t138.5 28.5q49 0 91 -13t82 -37l22 22q23 21 49 25t48.5 -5t39.5 -27.5t24 -41.5t0.5 -47.5
t-30.5 -45.5l-16 -17q44 -77 44 -167q0 -71 -27.5 -135.5t-75.5 -113t-112.5 -77t-138.5 -28.5z" />
    <glyph glyph-name="Ugrave" unicode="&#xd9;" horiz-adv-x="678" 
d="M276 299q0 -41 11 -64.5t48 -23.5q21 0 33 8t18 21.5t7.5 30.5t1.5 35v264q0 18 8.5 40t25 41t41.5 32t58 13q31 0 54.5 -13t39.5 -32t24 -41t8 -40v-313q0 -77 -32.5 -129t-81 -83.5t-104 -45.5t-101.5 -14q-43 0 -97 13t-101.5 44.5t-80 83.5t-32.5 131v313q0 18 8 40
t23.5 41t40 32t57.5 13t56.5 -14t38.5 -34.5t21.5 -43.5t6.5 -41v-264v0zM256 790q-34 22 -39 49t7 48q14 23 41 29.5t56 -10.5l98 -56q27 -15 35 -41.5t-6 -52.5q-14 -23 -40 -29.5t-55 9.5z" />
    <glyph glyph-name="Uacute" unicode="&#xda;" horiz-adv-x="678" 
d="M276 299q0 -41 11 -64.5t48 -23.5q21 0 33 8t18 21.5t7.5 30.5t1.5 35v264q0 18 8.5 40t25 41t41.5 32t58 13q31 0 54.5 -13t39.5 -32t24 -41t8 -40v-313q0 -77 -32.5 -129t-81 -83.5t-104 -45.5t-101.5 -14q-43 0 -97 13t-101.5 44.5t-80 83.5t-32.5 131v313q0 18 8 40
t23.5 41t40 32t57.5 13t56.5 -14t38.5 -34.5t21.5 -43.5t6.5 -41v-264v0zM322 736q-29 -16 -55 -9.5t-40 29.5q-14 26 -6 52.5t35 41.5l98 56q29 17 56 10.5t41 -29.5q12 -21 7 -48t-39 -49z" />
    <glyph glyph-name="Ucircumflex" unicode="&#xdb;" horiz-adv-x="678" 
d="M276 299q0 -41 11 -64.5t48 -23.5q21 0 33 8t18 21.5t7.5 30.5t1.5 35v264q0 18 8.5 40t25 41t41.5 32t58 13q31 0 54.5 -13t39.5 -32t24 -41t8 -40v-313q0 -77 -32.5 -129t-81 -83.5t-104 -45.5t-101.5 -14q-43 0 -97 13t-101.5 44.5t-80 83.5t-32.5 131v313q0 18 8 40
t23.5 41t40 32t57.5 13t56.5 -14t38.5 -34.5t21.5 -43.5t6.5 -41v-264v0zM339 926q9 -1 18 -3.5t17 -9.5l91 -74q24 -20 26.5 -42.5t-8.5 -37.5q-6 -9 -15 -15.5t-21 -9t-25 0.5t-26 13l-56 43l-58 -43q-13 -10 -26 -13t-25 -0.5t-21 9t-15 15.5q-11 15 -8.5 37.5t26.5 42.5
l91 74q8 7 17 9.5t18 3.5z" />
    <glyph glyph-name="Udieresis" unicode="&#xdc;" horiz-adv-x="678" 
d="M276 299q0 -41 11 -64.5t48 -23.5q21 0 33 8t18 21.5t7.5 30.5t1.5 35v264q0 18 8.5 40t25 41t41.5 32t58 13q31 0 54.5 -13t39.5 -32t24 -41t8 -40v-313q0 -77 -32.5 -129t-81 -83.5t-104 -45.5t-101.5 -14q-43 0 -97 13t-101.5 44.5t-80 83.5t-32.5 131v313q0 18 8 40
t23.5 41t40 32t57.5 13t56.5 -14t38.5 -34.5t21.5 -43.5t6.5 -41v-264v0zM221 732q-23 0 -40 9t-28 22.5t-16 29t-5 28.5q0 20 8 36.5t21 28t29 17.5t31 6q25 0 41.5 -9t26.5 -22.5t13.5 -28.5t3.5 -28q0 -18 -6.5 -34t-18 -28.5t-27 -19.5t-33.5 -7zM462 732q-23 0 -40 9
t-28 22.5t-16 29t-5 28.5q0 20 8 36.5t21 28t29 17.5t31 6q25 0 41.5 -9t26.5 -22.5t13.5 -28.5t3.5 -28q0 -18 -6.5 -34t-18 -28.5t-27 -19.5t-33.5 -7z" />
    <glyph glyph-name="Yacute" unicode="&#xdd;" horiz-adv-x="579" 
d="M289 493q19 27 36 61.5t37.5 66t47.5 53t66 21.5q19 0 37 -7t31.5 -21.5t21.5 -35t8 -47.5q0 -24 -12 -54t-29.5 -61.5t-38.5 -63.5t-38.5 -60t-29.5 -51t-12 -37q0 -63 -0.5 -113t-10.5 -85.5t-35.5 -54.5t-74.5 -19q-50 0 -74 21.5t-33.5 58.5t-9 86.5t0.5 105.5
q0 10 -12.5 32.5t-32 52t-41.5 63t-41.5 66.5t-32 62.5t-12.5 50.5q0 47 28.5 79t75.5 32q38 0 64 -22t45.5 -53.5t36 -66t34.5 -60.5zM272 736q-29 -16 -55 -9.5t-40 29.5q-14 26 -6 52.5t35 41.5l98 56q29 17 56 10.5t41 -29.5q12 -21 7 -48t-39 -49z" />
    <glyph glyph-name="Thorn" unicode="&#xde;" horiz-adv-x="614" 
d="M341 90h-22t-20 1q-11 1 -21 2q-3 -20 -10.5 -39.5t-22 -34.5t-36 -24t-51.5 -10q-41 1 -66 14.5t-39 34.5t-19 48t-5 55v402q0 28 5.5 55.5t20 49.5t39.5 36t64 15q33 -1 54.5 -11.5t35.5 -27t21 -37.5t10 -43h64q54 0 100.5 -16.5t81 -48t54.5 -77t20 -104.5
q0 -54 -15.5 -92.5t-39.5 -65t-54 -42.5t-58.5 -25t-53 -12t-37.5 -3z" />
    <glyph glyph-name="germandbls" unicode="&#xdf;" horiz-adv-x="602" 
d="M476 384q15 -9 34 -23t35 -34.5t27 -49t11 -67.5q0 -35 -14.5 -74.5t-41 -72.5t-64.5 -55t-84 -22q-10 0 -26 3t-31 12t-26 25t-11 41q0 27 11.5 42.5t26 28.5t26 29t11.5 45q0 21 -4 35.5t-10 25t-13 18t-12 13.5q-12 14 -22.5 29t-10.5 39q0 15 6 30t12.5 30.5
t12.5 31.5t6 34q0 23 -11.5 33t-31.5 10q-16 0 -22 -11t-6 -17v-403q0 -15 -4.5 -37t-17 -41.5t-35 -33.5t-57.5 -14q-40 0 -63 16.5t-35 38t-15 43.5t-3 34v334q0 63 23 109.5t60 77t84.5 45t96.5 14.5q43 0 88 -7.5t82 -28.5t61 -58t24 -95q0 -32 -12 -56t-25.5 -39.5
t-23.5 -23t-6 -4.5z" />
    <glyph glyph-name="agrave" unicode="&#xe0;" horiz-adv-x="535" 
d="M314 348q0 20 -11 27t-25 7q-17 0 -27.5 -8.5t-10.5 -32.5q0 -18 -9.5 -30t-23 -19t-28.5 -10t-26 -3q-34 0 -57.5 19.5t-23.5 62.5q0 39 21 68t53 48t71.5 28.5t76.5 9.5q34 0 72 -10t70 -31t53.5 -53t21.5 -76v-268q0 -40 -24.5 -66t-68.5 -26q-38 0 -55 21t-24 46
q-19 -27 -59 -47t-85 -20q-43 0 -76 12.5t-55 35.5t-33.5 55t-11.5 70q0 40 12.5 68.5t46.5 44.5q18 -13 44.5 -17.5t53.5 -1t49.5 16t31.5 33.5q29 0 43 6.5t14 39.5zM206 607q-34 22 -39 49t7 48q14 23 41.5 30t56.5 -10l97 -57q27 -15 35 -41.5t-6 -52.5
q-14 -23 -40 -29.5t-54 10.5z" />
    <glyph glyph-name="aacute" unicode="&#xe1;" horiz-adv-x="535" 
d="M314 348q0 20 -11 27t-25 7q-17 0 -27.5 -8.5t-10.5 -32.5q0 -18 -9.5 -30t-23 -19t-28.5 -10t-26 -3q-34 0 -57.5 19.5t-23.5 62.5q0 39 21 68t53 48t71.5 28.5t76.5 9.5q34 0 72 -10t70 -31t53.5 -53t21.5 -76v-268q0 -40 -24.5 -66t-68.5 -26q-38 0 -55 21t-24 46
q-19 -27 -59 -47t-85 -20q-43 0 -76 12.5t-55 35.5t-33.5 55t-11.5 70q0 40 12.5 68.5t46.5 44.5q18 -13 44.5 -17.5t53.5 -1t49.5 16t31.5 33.5q29 0 43 6.5t14 39.5zM277 554q-29 -17 -55 -10.5t-40 29.5q-14 26 -6 52.5t35 41.5l98 57q29 17 56 10t41 -30q12 -21 7 -48
t-39 -49z" />
    <glyph glyph-name="acircumflex" unicode="&#xe2;" horiz-adv-x="535" 
d="M314 348q0 20 -11 27t-25 7q-17 0 -27.5 -8.5t-10.5 -32.5q0 -18 -9.5 -30t-23 -19t-28.5 -10t-26 -3q-34 0 -57.5 19.5t-23.5 62.5q0 39 21 68t53 48t71.5 28.5t76.5 9.5q34 0 72 -10t70 -31t53.5 -53t21.5 -76v-268q0 -40 -24.5 -66t-68.5 -26q-38 0 -55 21t-24 46
q-19 -27 -59 -47t-85 -20q-43 0 -76 12.5t-55 35.5t-33.5 55t-11.5 70q0 40 12.5 68.5t46.5 44.5q18 -13 44.5 -17.5t53.5 -1t49.5 16t31.5 33.5q29 0 43 6.5t14 39.5zM294 746q9 -1 18 -3.5t17 -9.5l91 -73q24 -20 26.5 -43t-8.5 -38q-6 -9 -15 -15.5t-21 -8.5t-25 0.5
t-26 12.5l-56 43l-58 -43q-13 -10 -26 -12.5t-25 -0.5t-21 8.5t-15 15.5q-11 15 -8.5 38t26.5 43l91 73q8 7 17 9.5t18 3.5z" />
    <glyph glyph-name="atilde" unicode="&#xe3;" horiz-adv-x="535" 
d="M314 348q0 20 -11 27t-25 7q-17 0 -27.5 -8.5t-10.5 -32.5q0 -18 -9.5 -30t-23 -19t-28.5 -10t-26 -3q-34 0 -57.5 19.5t-23.5 62.5q0 39 21 68t53 48t71.5 28.5t76.5 9.5q34 0 72 -10t70 -31t53.5 -53t21.5 -76v-268q0 -40 -24.5 -66t-68.5 -26q-38 0 -55 21t-24 46
q-19 -27 -59 -47t-85 -20q-43 0 -76 12.5t-55 35.5t-33.5 55t-11.5 70q0 40 12.5 68.5t46.5 44.5q18 -13 44.5 -17.5t53.5 -1t49.5 16t31.5 33.5q29 0 43 6.5t14 39.5zM248 753q26 0 42.5 -8t26 -19.5t13 -23.5t3.5 -20q0 -26 12 -26t12 19v29q0 5 1.5 13.5t6 16.5t13 13.5
t23.5 5.5q13 0 22 -5.5t13.5 -13t6.5 -15t2 -11.5v-34q0 -44 -22.5 -72.5t-77.5 -28.5q-53 0 -73 21.5t-20 51.5q0 26 -13 26q-7 0 -8.5 -6t-1.5 -14v-29q0 -6 -1 -14.5t-5 -16.5t-12 -13.5t-23 -5.5q-14 0 -22.5 5.5t-13 13t-6 15.5t-1.5 12v34q0 43 23.5 71.5t79.5 28.5z
" />
    <glyph glyph-name="adieresis" unicode="&#xe4;" horiz-adv-x="535" 
d="M314 348q0 20 -11 27t-25 7q-17 0 -27.5 -8.5t-10.5 -32.5q0 -18 -9.5 -30t-23 -19t-28.5 -10t-26 -3q-34 0 -57.5 19.5t-23.5 62.5q0 39 21 68t53 48t71.5 28.5t76.5 9.5q34 0 72 -10t70 -31t53.5 -53t21.5 -76v-268q0 -40 -24.5 -66t-68.5 -26q-38 0 -55 21t-24 46
q-19 -27 -59 -47t-85 -20q-43 0 -76 12.5t-55 35.5t-33.5 55t-11.5 70q0 40 12.5 68.5t46.5 44.5q18 -13 44.5 -17.5t53.5 -1t49.5 16t31.5 33.5q29 0 43 6.5t14 39.5zM176 557q-23 0 -40 9t-28 22.5t-16 28.5t-5 28q0 20 8 36.5t21 28t29 17.5t31 6q25 0 41.5 -9
t26.5 -22.5t13.5 -28.5t3.5 -28q0 -18 -6.5 -34t-18 -28t-27 -19t-33.5 -7zM417 557q-23 0 -40 9t-28 22.5t-16 28.5t-5 28q0 20 8 36.5t21 28t29 17.5t31 6q25 0 41.5 -9t26.5 -22.5t13.5 -28.5t3.5 -28q0 -18 -6.5 -34t-18 -28t-27 -19t-33.5 -7z" />
    <glyph glyph-name="aring" unicode="&#xe5;" horiz-adv-x="535" 
d="M314 348q0 20 -11 27t-25 7q-17 0 -27.5 -8.5t-10.5 -32.5q0 -18 -9.5 -30t-23 -19t-28.5 -10t-26 -3q-34 0 -57.5 19.5t-23.5 62.5q0 39 21 68t53 48t71.5 28.5t76.5 9.5q34 0 72 -10t70 -31t53.5 -53t21.5 -76v-268q0 -40 -24.5 -66t-68.5 -26q-38 0 -55 21t-24 46
q-19 -27 -59 -47t-85 -20q-43 0 -76 12.5t-55 35.5t-33.5 55t-11.5 70q0 40 12.5 68.5t46.5 44.5q18 -13 44.5 -17.5t53.5 -1t49.5 16t31.5 33.5q29 0 43 6.5t14 39.5zM296 588q-29 0 -49.5 11.5t-34 28t-20 35.5t-6.5 35q0 26 9.5 46.5t24.5 35t35 22.5t41 8q31 0 52 -11.5
t33.5 -28.5t17.5 -36.5t5 -35.5q0 -22 -8.5 -42t-23 -35t-34 -24t-42.5 -9zM296 678q8 0 14.5 6.5t6.5 14.5q0 7 -4.5 15t-16.5 8q-8 0 -15 -6t-7 -17q0 -5 5.5 -13t16.5 -8z" />
    <glyph glyph-name="ae" unicode="&#xe6;" horiz-adv-x="985" 
d="M314 348q0 20 -11 27t-25 7q-17 0 -27.5 -8.5t-10.5 -32.5q0 -18 -9.5 -30t-23 -19t-28.5 -10t-26 -3q-34 0 -57.5 19.5t-23.5 62.5q0 39 21 68t53 48t71.5 28.5t76.5 9.5q24 0 51 -5.5t53 -16t49 -27.5t39 -39q40 41 94 64.5t114 23.5q50 0 98.5 -14t87 -41.5t62.5 -67
t24 -90.5q0 -22 -8.5 -40.5t-28.5 -30.5q-8 10 -29 19t-47 9.5t-53 -11.5t-47 -44h-108q-9 0 -12 -7.5t-1 -12.5q15 -54 71 -54q17 0 37.5 11t28.5 33q14 32 38 45t46 13q35 0 59 -22t24 -65q0 -39 -23.5 -69t-58.5 -50.5t-77.5 -30.5t-79.5 -10q-58 0 -106.5 15t-85.5 42
q-9 -26 -31.5 -41.5t-55.5 -15.5q-38 0 -55 21t-24 46q-12 -11 -28 -22.5t-35.5 -21.5t-42 -16.5t-48.5 -6.5q-39 0 -70 12.5t-52.5 35.5t-32.5 55t-11 70q0 40 12.5 68.5t46.5 44.5q18 -13 44.5 -17.5t53.5 -1t49.5 16t31.5 33.5q29 0 43 6.5t14 39.5z" />
    <glyph glyph-name="ccedilla" unicode="&#xe7;" horiz-adv-x="524" 
d="M500 379q0 -15 -6.5 -30t-17 -27t-24.5 -19t-29 -7q-18 0 -32.5 7.5t-27.5 16t-26 16t-29 7.5q-23 0 -38.5 -9t-25.5 -22.5t-14 -30t-4 -30.5q0 -36 20 -62.5t63 -26.5q15 0 29 6t28.5 13.5t29.5 13.5t33 6q31 0 52 -24.5t21 -55.5q0 -38 -21.5 -63.5t-54 -42t-72 -23.5
t-75.5 -7q-54 0 -101.5 19.5t-83 54.5t-55.5 84t-20 108q0 56 22.5 104.5t61 84t89 56t106.5 20.5q28 0 63 -9t66 -26.5t52 -43t21 -58.5zM392 -121q0 -65 -38.5 -98.5t-101.5 -33.5q-44 0 -65.5 17.5t-21.5 46.5q0 23 14.5 44t50.5 21q13 0 18 8t8 24q4 29 23.5 39t43.5 10
q11 0 23.5 -3.5t22.5 -12.5t16.5 -24t6.5 -38z" />
    <glyph glyph-name="egrave" unicode="&#xe8;" 
d="M381 174q13 32 37 45t46 13q35 0 59.5 -22t24.5 -65q0 -39 -23.5 -69t-59 -50.5t-77.5 -30.5t-79 -10q-65 0 -118.5 18.5t-91.5 53t-59 82.5t-21 107q0 56 23.5 105t63 85.5t91.5 57.5t108 21q50 0 98.5 -14t87 -41.5t62.5 -67t24 -90.5q0 -22 -8.5 -40.5t-28.5 -30.5
q-8 10 -28.5 19t-46.5 9.5t-53 -11.5t-48 -44h-108q-8 0 -11 -7.5t-1 -12.5q15 -54 71 -54q16 0 36.5 11t29.5 33zM220 607q-34 22 -39 49t7 48q14 23 41.5 30t56.5 -10l97 -57q27 -15 35 -41.5t-6 -52.5q-14 -23 -40 -29.5t-54 10.5z" />
    <glyph glyph-name="eacute" unicode="&#xe9;" 
d="M381 174q13 32 37 45t46 13q35 0 59.5 -22t24.5 -65q0 -39 -23.5 -69t-59 -50.5t-77.5 -30.5t-79 -10q-65 0 -118.5 18.5t-91.5 53t-59 82.5t-21 107q0 56 23.5 105t63 85.5t91.5 57.5t108 21q50 0 98.5 -14t87 -41.5t62.5 -67t24 -90.5q0 -22 -8.5 -40.5t-28.5 -30.5
q-8 10 -28.5 19t-46.5 9.5t-53 -11.5t-48 -44h-108q-8 0 -11 -7.5t-1 -12.5q15 -54 71 -54q16 0 36.5 11t29.5 33zM292 554q-29 -17 -55 -10.5t-40 29.5q-14 26 -6 52.5t35 41.5l98 57q29 17 56 10t41 -30q12 -21 7 -48t-39 -49z" />
    <glyph glyph-name="ecircumflex" unicode="&#xea;" 
d="M381 174q13 32 37 45t46 13q35 0 59.5 -22t24.5 -65q0 -39 -23.5 -69t-59 -50.5t-77.5 -30.5t-79 -10q-65 0 -118.5 18.5t-91.5 53t-59 82.5t-21 107q0 56 23.5 105t63 85.5t91.5 57.5t108 21q50 0 98.5 -14t87 -41.5t62.5 -67t24 -90.5q0 -22 -8.5 -40.5t-28.5 -30.5
q-8 10 -28.5 19t-46.5 9.5t-53 -11.5t-48 -44h-108q-8 0 -11 -7.5t-1 -12.5q15 -54 71 -54q16 0 36.5 11t29.5 33zM309 746q9 -1 18 -3.5t17 -9.5l91 -73q24 -20 26.5 -43t-8.5 -38q-6 -9 -15 -15.5t-21 -8.5t-25 0.5t-26 12.5l-56 43l-58 -43q-13 -10 -26 -12.5t-25 -0.5
t-21 8.5t-15 15.5q-11 15 -8.5 38t26.5 43l91 73q8 7 17 9.5t18 3.5z" />
    <glyph glyph-name="edieresis" unicode="&#xeb;" 
d="M381 174q13 32 37 45t46 13q35 0 59.5 -22t24.5 -65q0 -39 -23.5 -69t-59 -50.5t-77.5 -30.5t-79 -10q-65 0 -118.5 18.5t-91.5 53t-59 82.5t-21 107q0 56 23.5 105t63 85.5t91.5 57.5t108 21q50 0 98.5 -14t87 -41.5t62.5 -67t24 -90.5q0 -22 -8.5 -40.5t-28.5 -30.5
q-8 10 -28.5 19t-46.5 9.5t-53 -11.5t-48 -44h-108q-8 0 -11 -7.5t-1 -12.5q15 -54 71 -54q16 0 36.5 11t29.5 33zM191 557q-23 0 -40 9t-28 22.5t-16 28.5t-5 28q0 20 8 36.5t21 28t29 17.5t31 6q25 0 41.5 -9t26.5 -22.5t13.5 -28.5t3.5 -28q0 -18 -6.5 -34t-18 -28
t-27 -19t-33.5 -7zM432 557q-23 0 -40 9t-28 22.5t-16 28.5t-5 28q0 20 8 36.5t21 28t29 17.5t31 6q25 0 41.5 -9t26.5 -22.5t13.5 -28.5t3.5 -28q0 -18 -6.5 -34t-18 -28t-27 -19t-33.5 -7z" />
    <glyph glyph-name="igrave" unicode="&#xec;" horiz-adv-x="274" 
d="M250 116q0 -24 -5 -47t-17 -42t-33 -30.5t-54 -11.5q-44 0 -67.5 17.5t-34.5 40.5t-12.5 45t-1.5 32v257q0 15 2.5 38t13.5 45t34.5 38t65.5 16q38 0 59.5 -15.5t32.5 -36.5t14 -42t3 -32v-272zM53 607q-34 22 -39 49t7 48q14 23 41.5 30t56.5 -10l97 -57
q27 -15 35 -41.5t-6 -52.5q-14 -23 -40 -29.5t-54 10.5z" />
    <glyph glyph-name="iacute" unicode="&#xed;" horiz-adv-x="274" 
d="M250 116q0 -24 -5 -47t-17 -42t-33 -30.5t-54 -11.5q-44 0 -67.5 17.5t-34.5 40.5t-12.5 45t-1.5 32v257q0 15 2.5 38t13.5 45t34.5 38t65.5 16q38 0 59.5 -15.5t32.5 -36.5t14 -42t3 -32v-272zM125 554q-29 -17 -55 -10.5t-40 29.5q-14 26 -6 52.5t35 41.5l98 57
q29 17 56 10t41 -30q12 -21 7 -48t-39 -49z" />
    <glyph glyph-name="icircumflex" unicode="&#xee;" horiz-adv-x="274" 
d="M250 116q0 -24 -5 -47t-17 -42t-33 -30.5t-54 -11.5q-44 0 -67.5 17.5t-34.5 40.5t-12.5 45t-1.5 32v257q0 15 2.5 38t13.5 45t34.5 38t65.5 16q38 0 59.5 -15.5t32.5 -36.5t14 -42t3 -32v-272zM142 746q9 -1 18 -3.5t17 -9.5l91 -73q24 -20 26.5 -43t-8.5 -38
q-6 -9 -15 -15.5t-21 -8.5t-25 0.5t-26 12.5l-56 43l-58 -43q-13 -10 -26 -12.5t-25 -0.5t-21 8.5t-15 15.5q-11 15 -8.5 38t26.5 43l91 73q8 7 17 9.5t18 3.5z" />
    <glyph glyph-name="idieresis" unicode="&#xef;" horiz-adv-x="274" 
d="M250 116q0 -24 -5 -47t-17 -42t-33 -30.5t-54 -11.5q-44 0 -67.5 17.5t-34.5 40.5t-12.5 45t-1.5 32v257q0 15 2.5 38t13.5 45t34.5 38t65.5 16q38 0 59.5 -15.5t32.5 -36.5t14 -42t3 -32v-272zM24 557q-23 0 -40 9t-28 22.5t-16 28.5t-5 28q0 20 8 36.5t21 28t29 17.5
t31 6q25 0 41.5 -9t26.5 -22.5t13.5 -28.5t3.5 -28q0 -18 -6.5 -34t-18 -28t-27 -19t-33.5 -7zM265 557q-23 0 -40 9t-28 22.5t-16 28.5t-5 28q0 20 8 36.5t21 28t29 17.5t31 6q25 0 41.5 -9t26.5 -22.5t13.5 -28.5t3.5 -28q0 -18 -6.5 -34t-18 -28t-27 -19t-33.5 -7z" />
    <glyph glyph-name="eth" unicode="&#xf0;" horiz-adv-x="629" 
d="M-28 100q0 29 13 52.5t35 37.5q-1 8 -1 15v15q0 52 22 96.5t58 74.5q23 -11 47 -10t44.5 9.5t36 23.5t20.5 33q32 0 62 -10.5t56 -29.5q3 2 7.5 13t4.5 30q0 12 -3 23.5t-11.5 21t-23.5 15.5t-39 6q-20 0 -41 -9t-30 -31q-13 -32 -39 -47t-48 -15q-17 0 -35 6t-32.5 18
t-23.5 29t-9 38q0 39 16 74t47 61t77 41t107 15q26 0 48.5 -3.5t43.5 -9.5q14 17 35 27.5t46 10.5q22 0 42 -8.5t34.5 -23.5t23 -34.5t8.5 -41.5q0 -17 -5.5 -32.5t-13.5 -28.5q29 -47 43.5 -102.5t14.5 -115.5q0 -69 -21 -132.5t-61 -111.5t-98.5 -76.5t-132.5 -28.5
q-86 0 -150 31q-29 -23 -67 -23q-23 0 -42.5 8.5t-33.5 23t-22.5 34t-8.5 41.5z" />
    <glyph glyph-name="ntilde" unicode="&#xf1;" horiz-adv-x="590" 
d="M228 442q56 74 143 74q66 0 105.5 -33.5t59.5 -83.5t26 -109t6 -110q0 -31 -2 -65t-12.5 -63t-34 -48t-66.5 -19q-31 0 -52.5 14t-35.5 36.5t-21 50.5t-7 56l-1 147q0 29 -14.5 40t-32.5 11t-29 -12.5t-11 -28.5q0 -11 0.5 -29.5t1.5 -39t1.5 -40.5t0.5 -34
q0 -84 -30.5 -127.5t-87.5 -43.5q-23 0 -43 10.5t-35 30t-24 48.5t-9 65v233q0 25 5.5 51t17.5 46t31.5 33t47.5 13q46 0 69 -22t33 -51zM250 753q26 0 42.5 -8t26 -19.5t13 -23.5t3.5 -20q0 -26 12 -26t12 19v29q0 5 1.5 13.5t6 16.5t13 13.5t23.5 5.5q13 0 22 -5.5
t13.5 -13t6.5 -15t2 -11.5v-34q0 -44 -22.5 -72.5t-77.5 -28.5q-53 0 -73 21.5t-20 51.5q0 26 -13 26q-7 0 -8.5 -6t-1.5 -14v-29q0 -6 -1 -14.5t-5 -16.5t-12 -13.5t-23 -5.5q-14 0 -22.5 5.5t-13 13t-6 15.5t-1.5 12v34q0 43 23.5 71.5t79.5 28.5z" />
    <glyph glyph-name="ograve" unicode="&#xf2;" 
d="M298 -15q-54 0 -104 18.5t-89 53t-62.5 83.5t-23.5 111q0 64 25.5 113t65.5 83t90 51.5t98 17.5q54 0 104 -18.5t89 -53t62.5 -83.5t23.5 -110q0 -66 -25.5 -116t-65.5 -83.5t-90 -50t-98 -16.5zM209 607q-34 22 -39 49t7 48q14 23 41.5 30t56.5 -10l97 -57
q27 -15 35 -41.5t-6 -52.5q-14 -23 -40 -29.5t-54 10.5z" />
    <glyph glyph-name="oacute" unicode="&#xf3;" 
d="M298 -15q-54 0 -104 18.5t-89 53t-62.5 83.5t-23.5 111q0 64 25.5 113t65.5 83t90 51.5t98 17.5q54 0 104 -18.5t89 -53t62.5 -83.5t23.5 -110q0 -66 -25.5 -116t-65.5 -83.5t-90 -50t-98 -16.5zM281 554q-29 -17 -55 -10.5t-40 29.5q-14 26 -6 52.5t35 41.5l98 57
q29 17 56 10t41 -30q12 -21 7 -48t-39 -49z" />
    <glyph glyph-name="ocircumflex" unicode="&#xf4;" 
d="M298 -15q-54 0 -104 18.5t-89 53t-62.5 83.5t-23.5 111q0 64 25.5 113t65.5 83t90 51.5t98 17.5q54 0 104 -18.5t89 -53t62.5 -83.5t23.5 -110q0 -66 -25.5 -116t-65.5 -83.5t-90 -50t-98 -16.5zM298 746q9 -1 18 -3.5t17 -9.5l91 -73q24 -20 26.5 -43t-8.5 -38
q-6 -9 -15 -15.5t-21 -8.5t-25 0.5t-26 12.5l-56 43l-58 -43q-13 -10 -26 -12.5t-25 -0.5t-21 8.5t-15 15.5q-11 15 -8.5 38t26.5 43l91 73q8 7 17 9.5t18 3.5z" />
    <glyph glyph-name="otilde" unicode="&#xf5;" 
d="M298 -15q-54 0 -104 18.5t-89 53t-62.5 83.5t-23.5 111q0 64 25.5 113t65.5 83t90 51.5t98 17.5q54 0 104 -18.5t89 -53t62.5 -83.5t23.5 -110q0 -66 -25.5 -116t-65.5 -83.5t-90 -50t-98 -16.5zM252 753q26 0 42.5 -8t26 -19.5t13 -23.5t3.5 -20q0 -26 12 -26t12 19v29
q0 5 1.5 13.5t6 16.5t13 13.5t23.5 5.5q13 0 22 -5.5t13.5 -13t6.5 -15t2 -11.5v-34q0 -44 -22.5 -72.5t-77.5 -28.5q-53 0 -73 21.5t-20 51.5q0 26 -13 26q-7 0 -8.5 -6t-1.5 -14v-29q0 -6 -1 -14.5t-5 -16.5t-12 -13.5t-23 -5.5q-14 0 -22.5 5.5t-13 13t-6 15.5t-1.5 12
v34q0 43 23.5 71.5t79.5 28.5z" />
    <glyph glyph-name="odieresis" unicode="&#xf6;" 
d="M298 -15q-54 0 -104 18.5t-89 53t-62.5 83.5t-23.5 111q0 64 25.5 113t65.5 83t90 51.5t98 17.5q54 0 104 -18.5t89 -53t62.5 -83.5t23.5 -110q0 -66 -25.5 -116t-65.5 -83.5t-90 -50t-98 -16.5zM180 557q-23 0 -40 9t-28 22.5t-16 28.5t-5 28q0 20 8 36.5t21 28t29 17.5
t31 6q25 0 41.5 -9t26.5 -22.5t13.5 -28.5t3.5 -28q0 -18 -6.5 -34t-18 -28t-27 -19t-33.5 -7zM421 557q-23 0 -40 9t-28 22.5t-16 28.5t-5 28q0 20 8 36.5t21 28t29 17.5t31 6q25 0 41.5 -9t26.5 -22.5t13.5 -28.5t3.5 -28q0 -18 -6.5 -34t-18 -28t-27 -19t-33.5 -7z" />
    <glyph glyph-name="divide" unicode="&#xf7;" horiz-adv-x="582" 
d="M406 149q-9 21 -25 38q-14 14 -36.5 26t-54.5 12t-53 -12t-33 -26q-15 -17 -22 -38h-56q-18 0 -37 5.5t-34 17.5t-25 31.5t-10 47.5q0 46 29.5 74t76.5 28h56q7 -22 22 -39q12 -14 33 -26t53 -12t54.5 12t36.5 26q16 17 25 39h45q45 0 77 -28t32 -74q0 -28 -9.5 -47.5
t-25.5 -31.5t-35.5 -17.5t-38.5 -5.5h-45zM290 304q-26 0 -45 10t-31.5 25.5t-19 33.5t-6.5 33q0 23 8.5 43t22.5 34.5t32.5 23t38.5 8.5q28 0 48 -10.5t32.5 -26t18.5 -35t6 -37.5q0 -20 -7.5 -38.5t-21.5 -32.5t-33.5 -22.5t-42.5 -8.5zM290 -17q-26 0 -45 10.5
t-31.5 25.5t-19 33t-6.5 33q0 23 8.5 43t22.5 34.5t32.5 23t38.5 8.5q28 0 48 -10.5t32.5 -26t18.5 -35t6 -37.5q0 -20 -7.5 -38.5t-21.5 -32.5t-33.5 -22.5t-42.5 -8.5z" />
    <glyph glyph-name="oslash" unicode="&#xf8;" 
d="M428 489q23 21 47.5 25t46 -4t37.5 -25t22.5 -38.5t1 -45.5t-26.5 -45q10 -24 15.5 -50t5.5 -55q0 -66 -25.5 -116t-65.5 -83.5t-90 -50t-98 -16.5q-32 0 -63.5 7t-60.5 20l-1 -1q-23 -21 -47 -25.5t-45.5 3t-37.5 24t-23 38t-2.5 45t25.5 44.5q-24 49 -24 111
q0 64 21 113t58.5 83t88.5 51.5t111 17.5q68 0 128 -29l2 2v0z" />
    <glyph glyph-name="ugrave" unicode="&#xf9;" horiz-adv-x="588" 
d="M362 53q-18 -18 -33.5 -30.5t-32 -21t-35 -12.5t-41.5 -4q-54 0 -91.5 17t-61.5 46.5t-34.5 69.5t-10.5 86v183q0 24 6.5 47t20 41t34 28.5t48.5 10.5q31 0 53 -11t36 -30t20.5 -44t6.5 -53v-161q0 -29 8.5 -40.5t32.5 -11.5q9 0 18.5 4.5t17.5 10.5t13 13t5 12v180
q0 25 6.5 49t20.5 42t36 29t53 11q28 0 48.5 -11t33.5 -29.5t19.5 -44t6.5 -53.5v-248q0 -23 -5.5 -48t-17.5 -46t-31.5 -35t-47.5 -14q-41 0 -66.5 22t-35.5 46zM202 607q-34 22 -39 49t7 48q14 23 41.5 30t56.5 -10l97 -57q27 -15 35 -41.5t-6 -52.5q-14 -23 -40 -29.5
t-54 10.5z" />
    <glyph glyph-name="uacute" unicode="&#xfa;" horiz-adv-x="588" 
d="M362 53q-18 -18 -33.5 -30.5t-32 -21t-35 -12.5t-41.5 -4q-54 0 -91.5 17t-61.5 46.5t-34.5 69.5t-10.5 86v183q0 24 6.5 47t20 41t34 28.5t48.5 10.5q31 0 53 -11t36 -30t20.5 -44t6.5 -53v-161q0 -29 8.5 -40.5t32.5 -11.5q9 0 18.5 4.5t17.5 10.5t13 13t5 12v180
q0 25 6.5 49t20.5 42t36 29t53 11q28 0 48.5 -11t33.5 -29.5t19.5 -44t6.5 -53.5v-248q0 -23 -5.5 -48t-17.5 -46t-31.5 -35t-47.5 -14q-41 0 -66.5 22t-35.5 46zM273 554q-29 -17 -55 -10.5t-40 29.5q-14 26 -6 52.5t35 41.5l98 57q29 17 56 10t41 -30q12 -21 7 -48
t-39 -49z" />
    <glyph glyph-name="ucircumflex" unicode="&#xfb;" horiz-adv-x="588" 
d="M362 53q-18 -18 -33.5 -30.5t-32 -21t-35 -12.5t-41.5 -4q-54 0 -91.5 17t-61.5 46.5t-34.5 69.5t-10.5 86v183q0 24 6.5 47t20 41t34 28.5t48.5 10.5q31 0 53 -11t36 -30t20.5 -44t6.5 -53v-161q0 -29 8.5 -40.5t32.5 -11.5q9 0 18.5 4.5t17.5 10.5t13 13t5 12v180
q0 25 6.5 49t20.5 42t36 29t53 11q28 0 48.5 -11t33.5 -29.5t19.5 -44t6.5 -53.5v-248q0 -23 -5.5 -48t-17.5 -46t-31.5 -35t-47.5 -14q-41 0 -66.5 22t-35.5 46zM290 746q9 -1 18 -3.5t17 -9.5l91 -73q24 -20 26.5 -43t-8.5 -38q-6 -9 -15 -15.5t-21 -8.5t-25 0.5t-26 12.5
l-56 43l-58 -43q-13 -10 -26 -12.5t-25 -0.5t-21 8.5t-15 15.5q-11 15 -8.5 38t26.5 43l91 73q8 7 17 9.5t18 3.5z" />
    <glyph glyph-name="udieresis" unicode="&#xfc;" horiz-adv-x="588" 
d="M362 53q-18 -18 -33.5 -30.5t-32 -21t-35 -12.5t-41.5 -4q-54 0 -91.5 17t-61.5 46.5t-34.5 69.5t-10.5 86v183q0 24 6.5 47t20 41t34 28.5t48.5 10.5q31 0 53 -11t36 -30t20.5 -44t6.5 -53v-161q0 -29 8.5 -40.5t32.5 -11.5q9 0 18.5 4.5t17.5 10.5t13 13t5 12v180
q0 25 6.5 49t20.5 42t36 29t53 11q28 0 48.5 -11t33.5 -29.5t19.5 -44t6.5 -53.5v-248q0 -23 -5.5 -48t-17.5 -46t-31.5 -35t-47.5 -14q-41 0 -66.5 22t-35.5 46zM172 557q-23 0 -40 9t-28 22.5t-16 28.5t-5 28q0 20 8 36.5t21 28t29 17.5t31 6q25 0 41.5 -9t26.5 -22.5
t13.5 -28.5t3.5 -28q0 -18 -6.5 -34t-18 -28t-27 -19t-33.5 -7zM413 557q-23 0 -40 9t-28 22.5t-16 28.5t-5 28q0 20 8 36.5t21 28t29 17.5t31 6q25 0 41.5 -9t26.5 -22.5t13.5 -28.5t3.5 -28q0 -18 -6.5 -34t-18 -28t-27 -19t-33.5 -7z" />
    <glyph glyph-name="yacute" unicode="&#xfd;" horiz-adv-x="502" 
d="M255 240q7 31 15 77.5t23 90.5t39 75.5t65 31.5q23 0 41 -8.5t30 -22.5t18.5 -32.5t6.5 -38.5q0 -15 -10 -52t-25.5 -84.5t-34.5 -100t-38 -100t-35.5 -84.5t-26.5 -52q-31 -48 -77 -71.5t-93 -23.5q-21 0 -40.5 5t-34.5 16t-24.5 27.5t-9.5 39.5q0 25 13.5 40.5t30 25
t30.5 15.5t14 14t-8.5 34t-19.5 56t-20.5 56.5t-12.5 34.5q-5 15 -15.5 44t-20.5 60.5t-17.5 59t-7.5 40.5q0 50 27.5 76.5t63.5 26.5q42 0 66.5 -27.5t39.5 -68.5t25 -89.5t23 -90.5zM234 554q-29 -17 -55 -10.5t-40 29.5q-14 26 -6 52.5t35 41.5l98 57q29 17 56 10t41 -30
q12 -21 7 -48t-39 -49z" />
    <glyph glyph-name="thorn" unicode="&#xfe;" horiz-adv-x="595" 
d="M357 -15q-15 0 -32 3.5t-32.5 9t-29 13t-21.5 15.5q0 -12 0.5 -25.5t0.5 -27.5q0 -37 -9.5 -61.5t-25 -39.5t-35.5 -21t-42 -6q-48 0 -77.5 34.5t-29.5 111.5v570q0 27 6 51.5t19 43t34 29.5t50 11q31 0 53 -11.5t36 -30.5t20.5 -43.5t6.5 -49.5v-112q13 13 26 25t29 21
t35.5 14.5t45.5 5.5q46 0 81.5 -19.5t59.5 -54.5t36.5 -82.5t12.5 -103.5q0 -52 -15 -101t-43.5 -86.5t-69 -60t-90.5 -22.5z" />
    <glyph glyph-name="ydieresis" unicode="&#xff;" horiz-adv-x="502" 
d="M255 240q7 31 15 77.5t23 90.5t39 75.5t65 31.5q23 0 41 -8.5t30 -22.5t18.5 -32.5t6.5 -38.5q0 -15 -10 -52t-25.5 -84.5t-34.5 -100t-38 -100t-35.5 -84.5t-26.5 -52q-31 -48 -77 -71.5t-93 -23.5q-21 0 -40.5 5t-34.5 16t-24.5 27.5t-9.5 39.5q0 25 13.5 40.5t30 25
t30.5 15.5t14 14t-8.5 34t-19.5 56t-20.5 56.5t-12.5 34.5q-5 15 -15.5 44t-20.5 60.5t-17.5 59t-7.5 40.5q0 50 27.5 76.5t63.5 26.5q42 0 66.5 -27.5t39.5 -68.5t25 -89.5t23 -90.5zM133 557q-23 0 -40 9t-28 22.5t-16 28.5t-5 28q0 20 8 36.5t21 28t29 17.5t31 6
q25 0 41.5 -9t26.5 -22.5t13.5 -28.5t3.5 -28q0 -18 -6.5 -34t-18 -28t-27 -19t-33.5 -7zM374 557q-23 0 -40 9t-28 22.5t-16 28.5t-5 28q0 20 8 36.5t21 28t29 17.5t31 6q25 0 41.5 -9t26.5 -22.5t13.5 -28.5t3.5 -28q0 -18 -6.5 -34t-18 -28t-27 -19t-33.5 -7z" />
    <glyph glyph-name="dotlessi" unicode="&#x131;" horiz-adv-x="274" 
d="M250 116q0 -24 -5 -47t-17 -42t-33 -30.5t-54 -11.5q-44 0 -67.5 17.5t-34.5 40.5t-12.5 45t-1.5 32v257q0 15 2.5 38t13.5 45t34.5 38t65.5 16q38 0 59.5 -15.5t32.5 -36.5t14 -42t3 -32v-272z" />
    <glyph glyph-name="OE" unicode="&#x152;" horiz-adv-x="1082" 
d="M373 -15q-77 0 -141.5 28.5t-112 77t-74 113t-26.5 135.5t27.5 135.5t75.5 113t112.5 77t138.5 28.5q52 0 99.5 -15.5t89.5 -43.5q24 22 53.5 34t61.5 12h273q16 0 35 -3.5t36 -13.5t28.5 -28.5t11.5 -48.5t-10.5 -48.5t-26 -28.5t-34 -13.5t-33.5 -3.5h-172
q-11 0 -15.5 -8t-4.5 -13q0 -15 4.5 -21t15.5 -6h125q45 0 74.5 -21.5t29.5 -72.5q0 -25 -8.5 -43t-23 -29.5t-33 -17t-39.5 -5.5h-125q-11 0 -19 -9t-8 -24t8 -21t19 -6h185q43 0 70.5 -25t27.5 -76t-29 -72.5t-76 -21.5h-300q-30 0 -54.5 11.5t-43.5 31.5q-42 -28 -90 -43
t-102 -15z" />
    <glyph glyph-name="oe" unicode="&#x153;" horiz-adv-x="956" 
d="M298 -15q-54 0 -104 18.5t-89 53t-62.5 83.5t-23.5 111q0 64 25.5 113t65.5 83t90 51.5t98 17.5q51 0 99 -16.5t86 -48.5q38 30 84 47t97 17q50 0 99 -14t87.5 -41.5t62 -67t23.5 -90.5q0 -22 -8 -40.5t-28 -30.5q-8 10 -29 19t-47 9.5t-53 -11.5t-47 -44h-108
q-9 0 -12 -7.5t-1 -12.5q15 -54 71 -54q17 0 37.5 11t28.5 33q14 32 38 45t46 13q34 0 58.5 -22t24.5 -65q0 -39 -23.5 -69t-59 -50.5t-77.5 -30.5t-79 -10q-58 0 -106.5 15t-86.5 43q-39 -29 -85.5 -43.5t-91.5 -14.5z" />
    <glyph glyph-name="Scaron" unicode="&#x160;" horiz-adv-x="621" 
d="M318 695q52 0 101 -10.5t87.5 -34.5t61.5 -62t23 -93q0 -60 -26 -87.5t-74 -27.5q-16 0 -34 4t-33 14t-25 27t-10 42q0 33 -22.5 45.5t-50.5 12.5q-20 0 -33.5 -10t-13.5 -21q0 -17 21.5 -28.5t69.5 -27.5q9 -37 30.5 -57t49 -28t58 -6t56.5 9q23 -23 36.5 -60t13.5 -78
q0 -60 -27 -103.5t-70.5 -72t-97.5 -42.5t-107 -14q-56 0 -107 13t-91 40t-63.5 68t-23.5 97q0 60 26 87.5t74 27.5q15 0 32.5 -4.5t33 -14.5t25.5 -27t10 -42q0 -17 8.5 -29.5t22 -21t29 -13t29.5 -4.5q28 0 42.5 8t14.5 28q0 16 -13 30.5t-32 25.5t-40 19.5t-37 13.5
q-13 27 -36 42t-47.5 21t-46.5 5t-33 -7q-28 24 -35.5 56.5t-7.5 70.5q0 58 24 99.5t63.5 68t90 39t104.5 12.5zM310 741q-9 1 -18 3.5t-17 9.5l-91 74q-24 20 -26.5 42.5t8.5 37.5q11 18 36 24t51 -13l56 -43l58 43q26 19 51 13t36 -24q11 -15 8.5 -37.5t-26.5 -42.5
l-91 -74q-8 -7 -17 -9.5t-18 -3.5z" />
    <glyph glyph-name="scaron" unicode="&#x161;" horiz-adv-x="524" 
d="M260 392q-13 0 -24.5 -5.5t-11.5 -18.5q0 -10 20 -21.5t44 -19.5q9 -27 29 -41.5t43.5 -20.5t47 -5t39.5 6q29 -18 45.5 -41t16.5 -67q0 -51 -25 -84.5t-63.5 -53t-85.5 -27.5t-91 -8q-37 0 -75.5 8t-69.5 25.5t-51 45.5t-20 67q0 21 7.5 37t20 26t28.5 15t33 5
q11 0 25.5 -3t28 -10.5t23 -19t9.5 -29.5q0 -25 11 -33t27 -8q15 0 30 5t15 21q0 14 -14.5 23t-46.5 17q-4 17 -18.5 31t-36 22.5t-46.5 11t-50 -4.5q-27 18 -43 42t-16 68q0 45 22.5 77t58 52t79.5 29.5t87 9.5q37 0 75.5 -8t70 -25.5t51.5 -45.5t20 -67q0 -43 -23.5 -62.5
t-58.5 -19.5q-11 0 -25.5 3t-28 10t-23 19t-9.5 30q0 24 -17 33.5t-34 9.5zM261 561q-9 1 -18 3.5t-17 9.5l-91 74q-24 20 -26.5 42.5t8.5 38.5q6 9 15 15t21 8.5t25 -0.5t26 -13l56 -42l58 42q13 10 26 13t25 0.5t21 -8.5t15 -15q11 -16 8.5 -38.5t-26.5 -42.5l-91 -74
q-8 -7 -17 -9.5t-18 -3.5z" />
    <glyph glyph-name="Ydieresis" unicode="&#x178;" horiz-adv-x="579" 
d="M289 493q19 27 36 61.5t37.5 66t47.5 53t66 21.5q19 0 37 -7t31.5 -21.5t21.5 -35t8 -47.5q0 -24 -12 -54t-29.5 -61.5t-38.5 -63.5t-38.5 -60t-29.5 -51t-12 -37q0 -63 -0.5 -113t-10.5 -85.5t-35.5 -54.5t-74.5 -19q-50 0 -74 21.5t-33.5 58.5t-9 86.5t0.5 105.5
q0 10 -12.5 32.5t-32 52t-41.5 63t-41.5 66.5t-32 62.5t-12.5 50.5q0 47 28.5 79t75.5 32q38 0 64 -22t45.5 -53.5t36 -66t34.5 -60.5zM171 732q-23 0 -40 9t-28 22.5t-16 29t-5 28.5q0 20 8 36.5t21 28t29 17.5t31 6q25 0 41.5 -9t26.5 -22.5t13.5 -28.5t3.5 -28
q0 -18 -6.5 -34t-18 -28.5t-27 -19.5t-33.5 -7zM412 732q-23 0 -40 9t-28 22.5t-16 29t-5 28.5q0 20 8 36.5t21 28t29 17.5t31 6q25 0 41.5 -9t26.5 -22.5t13.5 -28.5t3.5 -28q0 -18 -6.5 -34t-18 -28.5t-27 -19.5t-33.5 -7z" />
    <glyph glyph-name="Zcaron" unicode="&#x17d;" horiz-adv-x="631" 
d="M151 476q-23 0 -45 5.5t-39 17.5t-27 31.5t-10 47.5t11.5 47.5t29.5 31.5t40.5 17.5t45.5 5.5h322q62 0 99 -23t37 -81q0 -23 -17 -53.5t-43.5 -64.5t-59 -70t-64 -69.5t-57.5 -63t-40 -51.5h159q25 0 48.5 -4.5t41.5 -16t28.5 -31t10.5 -50.5q0 -26 -11.5 -45t-30 -31.5
t-41.5 -19t-46 -6.5h-346q-59 0 -90 32.5t-31 83.5q0 28 15.5 59t40 63.5t55 65t60 63t55 58.5t41.5 51h-142zM323 741q-9 1 -18 3.5t-17 9.5l-91 74q-24 20 -26.5 42.5t8.5 37.5q11 18 36 24t51 -13l56 -43l58 43q26 19 51 13t36 -24q11 -15 8.5 -37.5t-26.5 -42.5l-91 -74
q-8 -7 -17 -9.5t-18 -3.5z" />
    <glyph glyph-name="zcaron" unicode="&#x17e;" horiz-adv-x="492" 
d="M139 331q-18 0 -35.5 5t-31 15.5t-22 25.5t-8.5 36q0 23 8.5 39.5t23 27.5t33 16t39.5 5h209q58 0 90 -25.5t32 -76.5q0 -36 -22.5 -68.5t-53.5 -61.5t-64.5 -54t-54.5 -45h19.5t26 0.5t25.5 0.5h19q21 0 40 -4.5t33.5 -14t23 -25.5t8.5 -39q0 -20 -9 -36.5t-23 -28
t-31.5 -17.5t-35.5 -6h-241q-60 0 -91 27.5t-31 73.5q0 36 24 68.5t57 61t67.5 54t54.5 46.5h-79zM246 561q-9 1 -18 3.5t-17 9.5l-91 74q-24 20 -26.5 42.5t8.5 38.5q6 9 15 15t21 8.5t25 -0.5t26 -13l56 -42l58 42q13 10 26 13t25 0.5t21 -8.5t15 -15q11 -16 8.5 -38.5
t-26.5 -42.5l-91 -74q-8 -7 -17 -9.5t-18 -3.5z" />
    <glyph glyph-name="florin" unicode="&#x192;" horiz-adv-x="329" 
d="M45 28v33t0.5 53t0.5 64v66v59.5t-1 45.5q-16 23 -28 40t-12 40q0 20 11.5 42.5t22.5 32.5q7 36 22.5 70.5t39.5 61t56 43t72 16.5q21 0 41.5 -6t37 -17.5t27 -28t10.5 -37.5q0 -23 -11.5 -37t-26 -23.5t-26 -17t-11.5 -17.5t7.5 -18.5t16.5 -18t16.5 -21.5t7.5 -29
q0 -15 -5 -26.5t-12 -20t-15.5 -15.5t-15.5 -14q1 -24 2.5 -66.5t2 -89t-0.5 -90t-6 -70.5q-6 -36 -20.5 -69.5t-37 -60t-54 -42t-71.5 -15.5q-20 0 -40.5 6t-37 17.5t-27 28t-10.5 36.5q0 23 11.5 37t26 23.5t26 17t11.5 17.5z" />
    <glyph glyph-name="circumflex" unicode="&#x2c6;" horiz-adv-x="404" 
d="M202 746q9 -1 18 -3.5t17 -9.5l91 -73q24 -20 26.5 -43t-8.5 -38q-6 -9 -15 -15.5t-21 -8.5t-25 0.5t-26 12.5l-56 43l-58 -43q-13 -10 -26 -12.5t-25 -0.5t-21 8.5t-15 15.5q-11 15 -8.5 38t26.5 43l91 73q8 7 17 9.5t18 3.5z" />
    <glyph glyph-name="caron" unicode="&#x2c7;" horiz-adv-x="404" 
d="M202 561q-9 1 -18 3.5t-17 9.5l-91 74q-24 20 -26.5 42.5t8.5 38.5q6 9 15 15t21 8.5t25 -0.5t26 -13l56 -42l58 42q13 10 26 13t25 0.5t21 -8.5t15 -15q11 -16 8.5 -38.5t-26.5 -42.5l-91 -74q-8 -7 -17 -9.5t-18 -3.5z" />
    <glyph glyph-name="ring" unicode="&#x2da;" horiz-adv-x="316" 
d="M159 588q-29 0 -49.5 11.5t-34 28t-20 35.5t-6.5 35q0 26 9.5 46.5t24.5 35t35 22.5t41 8q31 0 52 -11.5t33.5 -28.5t17.5 -36.5t5 -35.5q0 -22 -8.5 -42t-23 -35t-34 -24t-42.5 -9zM159 678q8 0 14.5 6.5t6.5 14.5q0 7 -4.5 15t-16.5 8q-8 0 -15 -6t-7 -17q0 -5 5.5 -13
t16.5 -8z" />
    <glyph glyph-name="tilde" unicode="&#x2dc;" horiz-adv-x="397" 
d="M152 753q26 0 42.5 -8t26 -19.5t13 -23.5t3.5 -20q0 -26 12 -26t12 19v29q0 5 1.5 13.5t6 16.5t13 13.5t23.5 5.5q13 0 22 -5.5t13.5 -13t6.5 -15t2 -11.5v-34q0 -44 -22.5 -72.5t-77.5 -28.5q-53 0 -73 21.5t-20 51.5q0 26 -13 26q-7 0 -8.5 -6t-1.5 -14v-29
q0 -6 -1 -14.5t-5 -16.5t-12 -13.5t-23 -5.5q-14 0 -22.5 5.5t-13 13t-6 15.5t-1.5 12v34q0 43 23.5 71.5t79.5 28.5z" />
    <glyph glyph-name="endash" unicode="&#x2013;" horiz-adv-x="582" 
d="M451 383q45 0 77 -28t32 -74q0 -28 -9.5 -47.5t-25.5 -31.5t-35.5 -17.5t-38.5 -5.5h-325q-18 0 -37 5.5t-34 17.5t-25 31.5t-10 47.5q0 46 29.5 74t76.5 28h325v0z" />
    <glyph glyph-name="emdash" unicode="&#x2014;" horiz-adv-x="717" 
d="M587 383q45 0 77 -28t32 -74q0 -28 -9.5 -47.5t-25.5 -31.5t-35.5 -17.5t-38.5 -5.5h-461q-18 0 -37 5.5t-34 17.5t-25 31.5t-10 47.5q0 46 29.5 74t76.5 28h461v0z" />
    <glyph glyph-name="quoteleft" unicode="&#x2018;" horiz-adv-x="276" 
d="M29 531q-23 42 -17.5 83t51.5 67q24 13 45.5 13.5t40.5 -8t33.5 -23t23.5 -30.5l41 -74q9 -17 14.5 -37.5t4 -41.5t-12 -39.5t-33.5 -31.5q-47 -26 -86.5 -11.5t-63.5 59.5z" />
    <glyph glyph-name="quoteright" unicode="&#x2019;" horiz-adv-x="276" 
d="M206 457q-24 -45 -63.5 -59.5t-86.5 11.5q-23 13 -33.5 31.5t-12 39.5t4 41.5t14.5 37.5l41 74q9 16 23.5 30.5t33.5 23t40.5 8t45.5 -13.5q46 -26 51.5 -67t-17.5 -83z" />
    <glyph glyph-name="quotesinglbase" unicode="&#x201a;" horiz-adv-x="276" 
d="M206 -41q-24 -44 -63.5 -58.5t-86.5 11.5q-23 13 -33.5 31.5t-12 39t4 41t14.5 37.5l41 75q9 16 23.5 30.5t33.5 23t40.5 8t45.5 -13.5q46 -26 51.5 -67t-17.5 -83z" />
    <glyph glyph-name="quotedblleft" unicode="&#x201c;" horiz-adv-x="535" 
d="M289 530q-23 42 -18 83t52 67q24 13 45.5 13.5t40 -8t33 -23t23.5 -30.5l41 -74q9 -17 14.5 -37.5t4 -41.5t-12 -39.5t-33.5 -31.5q-46 -26 -86 -11.5t-64 59.5zM29 530q-23 42 -17.5 83t51.5 67q24 13 45.5 13.5t40.5 -8t33.5 -23t23.5 -30.5l41 -74q9 -17 14.5 -37.5
t4 -41.5t-12 -39.5t-33.5 -31.5q-47 -26 -86.5 -11.5t-63.5 59.5z" />
    <glyph glyph-name="quotedblright" unicode="&#x201d;" horiz-adv-x="535" 
d="M206 456q-24 -45 -63.5 -59.5t-86.5 11.5q-23 13 -33.5 31.5t-12 39.5t4 41.5t14.5 37.5l41 74q9 16 23.5 30.5t33.5 23t40.5 8t45.5 -13.5q46 -26 51.5 -67t-17.5 -83zM465 456q-24 -45 -63.5 -59.5t-85.5 11.5q-23 13 -33.5 31.5t-12 39.5t4 41.5t14.5 37.5l40 74
q9 16 24 30.5t33.5 23t40 8t45.5 -13.5q46 -26 51.5 -67t-17.5 -83z" />
    <glyph glyph-name="quotedblbase" unicode="&#x201e;" horiz-adv-x="535" 
d="M206 -41q-24 -44 -63.5 -58.5t-86.5 11.5q-23 13 -33.5 31.5t-12 39t4 41t14.5 37.5l41 75q9 16 23.5 30.5t33.5 23t40.5 8t45.5 -13.5q46 -26 51.5 -67t-17.5 -83zM465 -41q-24 -44 -63.5 -58.5t-85.5 11.5q-23 13 -33.5 31.5t-12 39t4 41t14.5 37.5l40 75q9 16 24 30.5
t33.5 23t40 8t45.5 -13.5q46 -26 51.5 -67t-17.5 -83z" />
    <glyph glyph-name="dagger" unicode="&#x2020;" horiz-adv-x="553" 
d="M128 307q-45 0 -77 28t-32 74q0 28 9.5 47.5t25.5 31.5t35 17.5t39 5.5h44v78q0 18 5.5 37t17.5 34t31.5 25t47.5 10q46 0 74 -29.5t28 -76.5v-79h51q18 0 37 -5.5t34.5 -17.5t25 -31.5t9.5 -47.5q0 -46 -29 -74t-77 -28h-51v-354q0 -45 -28 -76.5t-74 -31.5
q-28 0 -47.5 9.5t-31.5 25t-17.5 34.5t-5.5 39v355h-44v0z" />
    <glyph glyph-name="daggerdbl" unicode="&#x2021;" horiz-adv-x="553" 
d="M128 308q-45 0 -77 28t-32 74q0 28 9.5 47.5t25.5 31.5t35 17.5t39 5.5h44v77q0 18 5.5 37t17.5 34t31.5 25t47.5 10q46 0 74 -29.5t28 -76.5v-78h51q18 0 37 -5.5t34.5 -17.5t25 -31.5t9.5 -47.5q0 -46 -29 -74t-77 -28h-51v-76h51q18 0 37 -5.5t34.5 -17.5t25 -31.5
t9.5 -47.5q0 -46 -29 -74t-77 -28h-51v-75q0 -45 -28 -76.5t-74 -31.5q-28 0 -47.5 9.5t-31.5 25t-17.5 34.5t-5.5 39v76h-44q-45 0 -77 28t-32 74q0 28 9.5 47.5t25.5 31.5t35 17.5t39 5.5h44v76h-44v0z" />
    <glyph glyph-name="bullet" unicode="&#x2022;" horiz-adv-x="363" 
d="M182 124q-38 0 -67 15.5t-48.5 38.5t-29 50t-9.5 50q0 34 12.5 64t33.5 52t49 34.5t59 12.5q42 0 72 -15.5t48.5 -39t27.5 -52.5t9 -56q0 -31 -11.5 -59t-32.5 -49t-50 -33.5t-63 -12.5z" />
    <glyph glyph-name="ellipsis" unicode="&#x2026;" horiz-adv-x="790" 
d="M131 -15q-26 0 -45 10.5t-31.5 25.5t-19 33t-6.5 33q0 23 8.5 43t22.5 34.5t32.5 23t38.5 8.5q28 0 48 -10.5t32.5 -26t18.5 -35t6 -37.5q0 -20 -8 -38.5t-22 -32.5t-33 -22.5t-42 -8.5zM393 -15q-26 0 -45 10.5t-31.5 25.5t-19 33t-6.5 33q0 23 8.5 43t22.5 34.5
t32.5 23t38.5 8.5q28 0 48 -10.5t32.5 -26t18.5 -35t6 -37.5q0 -20 -7.5 -38.5t-21.5 -32.5t-33.5 -22.5t-42.5 -8.5zM656 -15q-26 0 -45 10.5t-31.5 25.5t-19 33t-6.5 33q0 23 8 43t22 34.5t32.5 23t39.5 8.5q28 0 48 -10.5t32.5 -26t18.5 -35t6 -37.5q0 -20 -8 -38.5
t-22 -32.5t-33 -22.5t-42 -8.5z" />
    <glyph glyph-name="perthousand" unicode="&#x2030;" horiz-adv-x="756" 
d="M211 39q-11 -19 -39 -36.5t-58 -17.5q-33 0 -54 16.5t-30.5 40.5t-8.5 51t13 48l296 492q16 30 43 46t55 16q34 0 56.5 -16.5t32.5 -41t7.5 -53t-17.5 -53.5zM423 -13q-23 0 -43 9.5t-34.5 25.5t-23 37t-8.5 44t8.5 44t23 37t34.5 25.5t43 9.5q32 0 59.5 -18.5
t42.5 -46.5q14 28 39.5 46.5t57.5 18.5q23 0 44 -9.5t36.5 -25.5t25 -37t9.5 -44t-8.5 -44t-23.5 -37t-36.5 -25.5t-46.5 -9.5q-32 0 -57.5 18t-38.5 45q-14 -27 -41 -45t-62 -18zM123 463q-23 0 -42.5 9.5t-34 25.5t-23 37t-8.5 44t8.5 44t23 37t34 25.5t42.5 9.5
q28 0 50 -9.5t36.5 -25.5t22 -37t7.5 -44t-8.5 -44t-24 -37t-37 -25.5t-46.5 -9.5z" />
    <glyph glyph-name="guilsinglleft" unicode="&#x2039;" horiz-adv-x="379" 
d="M52 157q-18 21 -27 42t-9 46q0 18 4 33t19 38t45 59t81 96q20 23 40 33.5t48 10.5q19 0 38 -6.5t33.5 -19.5t23.5 -32.5t9 -44.5q0 -23 -12 -44.5t-26 -38.5l-68 -80l80 -90q24 -24 29.5 -54t-5.5 -57t-36.5 -45t-62.5 -18q-34 0 -53 13.5t-32 28.5z" />
    <glyph glyph-name="guilsinglright" unicode="&#x203a;" horiz-adv-x="379" 
d="M208 27q-14 -15 -32.5 -28.5t-53.5 -13.5q-37 0 -62.5 18t-36 45t-5 57t29.5 54l80 90l-68 80q-14 17 -26 38.5t-12 44.5q0 25 9 44.5t23.5 32.5t33 19.5t38.5 6.5q28 0 48 -10.5t40 -33.5q51 -60 81 -96t45 -59t19 -38t4 -33q0 -47 -37 -88z" />
    <glyph glyph-name="Euro" unicode="&#x20ac;" horiz-adv-x="752" 
d="M728 504q0 -20 -7.5 -38.5t-20 -32.5t-30 -22.5t-38.5 -8.5q-35 0 -58 17t-44 38q-15 20 -32 28.5t-43 8.5q-36 0 -53 -15.5t-28 -35.5h44q18 0 36.5 -7.5t34 -21t25.5 -32t10 -41.5q0 -28 -12 -47.5t-28.5 -31.5t-34.5 -17.5t-31 -5.5h-51q11 -20 32 -34t57 -14t53.5 13
t32 28t33.5 28t57 13q42 0 69 -27t27 -68q0 -54 -27 -90.5t-68 -59.5t-90 -33t-93 -10q-59 0 -112.5 18t-98 51t-76.5 80t-47 105q-11 0 -27 6.5t-31 19t-26 31.5t-11 45q0 24 9 43t23.5 32t32.5 20t36 7q18 54 50.5 100t77 79.5t100 53t119.5 19.5q41 0 86.5 -12.5t84 -37
t63.5 -60t25 -81.5z" />
    <glyph glyph-name="trademark" unicode="&#x2122;" horiz-adv-x="739" 
d="M320 587h-57v-153q0 -26 -13 -47.5t-47 -21.5q-31 0 -43.5 20t-12.5 46v156q-12 0 -27 0.5t-29 5t-23.5 14.5t-9.5 30q0 29 19.5 40t48.5 11l246 1q33 0 53 -10t31.5 -24.5t17 -31.5t8.5 -31q2 -9 5 -23t6 -27.5t5 -23.5t2 -11q0 1 2 11t4.5 23.5t5.5 27.5t5 23
q4 17 10.5 35.5t16.5 33.5t24.5 24.5t34.5 9.5q37 0 57.5 -21.5t20.5 -56.5v-196q0 -22 -14 -39t-41 -17q-13 0 -22.5 6t-16 14t-9.5 17.5t-3 17.5v88q-6 -12 -9.5 -36t-10.5 -47.5t-19 -41.5t-35 -18q-25 0 -37 17.5t-18 41t-9.5 47.5t-10.5 37v-85q0 -9 -3 -19t-9.5 -18.5
t-16 -14.5t-22.5 -6q-29 0 -41.5 17.5t-12.5 37.5z" />
    <glyph glyph-name="uniE000" unicode="&#xe000;" horiz-adv-x="340" 
d="M90 790q-34 22 -39 49t7 48q14 23 41 29.5t56 -10.5l98 -56q27 -15 35 -41.5t-6 -52.5q-14 -23 -40 -29.5t-55 9.5z" />
    <glyph glyph-name="uniE002" unicode="&#xe002;" horiz-adv-x="340" 
d="M153 736q-29 -16 -55 -9.5t-40 29.5q-14 26 -6 52.5t35 41.5l98 56q29 17 56 10.5t41 -29.5q12 -21 7 -48t-39 -49z" />
    <glyph glyph-name="uniE004" unicode="&#xe004;" horiz-adv-x="404" 
d="M202 926q9 -1 18 -3.5t17 -9.5l91 -74q24 -20 26.5 -42.5t-8.5 -37.5q-6 -9 -15 -15.5t-21 -9t-25 0.5t-26 13l-56 43l-58 -43q-13 -10 -26 -13t-25 -0.5t-21 9t-15 15.5q-11 15 -8.5 37.5t26.5 42.5l91 74q8 7 17 9.5t18 3.5z" />
    <glyph glyph-name="uniE006" unicode="&#xe006;" horiz-adv-x="404" 
d="M202 741q-9 1 -18 3.5t-17 9.5l-91 74q-24 20 -26.5 42.5t8.5 37.5q11 18 36 24t51 -13l56 -43l58 43q26 19 51 13t36 -24q11 -15 8.5 -37.5t-26.5 -42.5l-91 -74q-8 -7 -17 -9.5t-18 -3.5z" />
    <glyph glyph-name="uniE009" unicode="&#xe009;" horiz-adv-x="397" 
d="M152 932q26 0 42.5 -8t26 -19.5t13 -23.5t3.5 -20q0 -15 3.5 -21t8.5 -6q12 0 12 20v29q0 5 1.5 13.5t6 16.5t13 13.5t23.5 5.5q13 0 22 -5.5t13.5 -13t6.5 -15t2 -11.5v-34q0 -44 -22.5 -72.5t-77.5 -28.5q-53 0 -73 21.5t-20 51.5q0 26 -13 26q-7 0 -8.5 -6t-1.5 -14
v-30q0 -5 -1 -13.5t-5 -16.5t-12 -13.5t-23 -5.5q-14 0 -22.5 5.5t-13 13t-6 15.5t-1.5 12v34q0 43 23.5 71.5t79.5 28.5z" />
    <glyph glyph-name="uniE00B" unicode="&#xe00b;" horiz-adv-x="531" 
d="M147 732q-23 0 -40 9t-28 22.5t-16 29t-5 28.5q0 20 8 36.5t21 28t29 17.5t31 6q25 0 41.5 -9t26.5 -22.5t13.5 -28.5t3.5 -28q0 -18 -6.5 -34t-18 -28.5t-27 -19.5t-33.5 -7zM388 732q-23 0 -40 9t-28 22.5t-16 29t-5 28.5q0 20 8 36.5t21 28t29 17.5t31 6q25 0 41.5 -9
t26.5 -22.5t13.5 -28.5t3.5 -28q0 -18 -6.5 -34t-18 -28.5t-27 -19.5t-33.5 -7z" />
    <glyph glyph-name="uniE011" unicode="&#xe011;" horiz-adv-x="316" 
d="M159 767q-29 0 -49.5 11.5t-34 28t-20 36t-6.5 35.5q0 26 9.5 46.5t24.5 35t35 22.5t41 8q31 0 52 -11.5t33.5 -28.5t17.5 -36.5t5 -35.5q0 -22 -8.5 -42t-23 -35.5t-34 -24.5t-42.5 -9zM159 858q8 0 14.5 6.5t6.5 14.5q0 7 -4.5 14.5t-16.5 7.5q-8 0 -15 -5.5t-7 -16.5
q0 -6 5.5 -13.5t16.5 -7.5z" />
    </font>
</defs>
</svg>
